<svg width="390" height="407" viewBox="0 0 390 407" fill="none" xmlns="http://www.w3.org/2000/svg">
<g filter="url(#filter0_d_439_747)">
<rect x="104" y="97" width="182.433" height="199.643" rx="20.6527" fill="white"/>
</g>
<path d="M157.969 132.962C159.511 131.676 160.74 130.608 161.656 129.757C162.571 128.889 163.334 127.99 163.945 127.058C164.555 126.127 164.86 125.211 164.86 124.311C164.86 123.492 164.667 122.85 164.282 122.384C163.896 121.918 163.302 121.685 162.499 121.685C161.696 121.685 161.077 121.958 160.644 122.504C160.21 123.034 159.985 123.765 159.969 124.697H156.692C156.756 122.769 157.327 121.308 158.403 120.312C159.495 119.316 160.876 118.818 162.547 118.818C164.378 118.818 165.784 119.308 166.764 120.288C167.744 121.251 168.233 122.528 168.233 124.119C168.233 125.372 167.896 126.568 167.221 127.709C166.547 128.849 165.776 129.845 164.908 130.697C164.041 131.532 162.908 132.544 161.511 133.733H168.619V136.528H156.716V134.022L157.969 132.962ZM170.745 127.757C170.745 124.978 171.243 122.802 172.238 121.227C173.25 119.653 174.921 118.866 177.25 118.866C179.579 118.866 181.242 119.653 182.238 121.227C183.25 122.802 183.756 124.978 183.756 127.757C183.756 130.552 183.25 132.745 182.238 134.335C181.242 135.925 179.579 136.72 177.25 136.72C174.921 136.72 173.25 135.925 172.238 134.335C171.243 132.745 170.745 130.552 170.745 127.757ZM180.431 127.757C180.431 126.568 180.35 125.572 180.19 124.769C180.045 123.95 179.74 123.283 179.274 122.769C178.824 122.255 178.15 121.998 177.25 121.998C176.351 121.998 175.668 122.255 175.202 122.769C174.752 123.283 174.447 123.95 174.287 124.769C174.142 125.572 174.07 126.568 174.07 127.757C174.07 128.978 174.142 130.006 174.287 130.841C174.431 131.66 174.736 132.327 175.202 132.841C175.668 133.339 176.351 133.588 177.25 133.588C178.15 133.588 178.832 133.339 179.298 132.841C179.764 132.327 180.069 131.66 180.214 130.841C180.358 130.006 180.431 128.978 180.431 127.757ZM186.322 127.757C186.322 124.978 186.82 122.802 187.815 121.227C188.827 119.653 190.498 118.866 192.827 118.866C195.156 118.866 196.819 119.653 197.815 121.227C198.827 122.802 199.333 124.978 199.333 127.757C199.333 130.552 198.827 132.745 197.815 134.335C196.819 135.925 195.156 136.72 192.827 136.72C190.498 136.72 188.827 135.925 187.815 134.335C186.82 132.745 186.322 130.552 186.322 127.757ZM196.008 127.757C196.008 126.568 195.927 125.572 195.767 124.769C195.622 123.95 195.317 123.283 194.851 122.769C194.401 122.255 193.727 121.998 192.827 121.998C191.928 121.998 191.245 122.255 190.779 122.769C190.329 123.283 190.024 123.95 189.863 124.769C189.719 125.572 189.647 126.568 189.647 127.757C189.647 128.978 189.719 130.006 189.863 130.841C190.008 131.66 190.313 132.327 190.779 132.841C191.245 133.339 191.928 133.588 192.827 133.588C193.727 133.588 194.409 133.339 194.875 132.841C195.341 132.327 195.646 131.66 195.791 130.841C195.935 130.006 196.008 128.978 196.008 127.757ZM211.777 136.768L205.657 129.275V136.768H202.284V119.95H205.657V127.492L211.777 119.95H215.849L208.91 128.287L216.042 136.768H211.777ZM230.863 129.661H226.309V134.335H223.128V129.661H218.574V126.721H223.128V122.047H226.309V126.721H230.863V129.661Z" fill="#0F172A"/>
<rect x="114.326" y="201.985" width="17.2106" height="49.9108" rx="8.60531" fill="#F3F4F6"/>
<rect x="138.421" y="224.359" width="17.2106" height="27.537" rx="8.60531" fill="#6B84FE"/>
<rect x="162.516" y="183.053" width="17.2106" height="68.8425" rx="8.60531" fill="#F3F4F6"/>
<rect x="186.611" y="157.237" width="17.2106" height="94.6584" rx="8.60531" fill="#6B84FE"/>
<rect x="210.706" y="201.985" width="17.2106" height="49.9108" rx="8.60531" fill="#F3F4F6"/>
<rect x="234.801" y="183.053" width="17.2106" height="68.8425" rx="8.60531" fill="#6B84FE"/>
<rect x="258.896" y="195.101" width="17.2106" height="56.795" rx="8.60531" fill="#F3F4F6"/>
<path d="M131.583 270.517C131.583 271.126 131.439 271.699 131.153 272.239C130.866 272.778 130.407 273.22 129.776 273.564C129.145 273.896 128.336 274.063 127.349 274.063H125.181V278.916H123.219V266.955H127.349C128.267 266.955 129.041 267.115 129.672 267.437C130.315 267.747 130.791 268.171 131.101 268.71C131.422 269.25 131.583 269.852 131.583 270.517ZM127.349 272.462C128.095 272.462 128.651 272.296 129.018 271.963C129.386 271.619 129.569 271.137 129.569 270.517C129.569 269.209 128.829 268.555 127.349 268.555H125.181V272.462H127.349Z" fill="#555370"/>
<path d="M142.145 273.942C142.145 274.298 142.123 274.619 142.077 274.906H134.831C134.888 275.663 135.169 276.272 135.674 276.73C136.179 277.189 136.799 277.419 137.533 277.419C138.589 277.419 139.334 276.977 139.77 276.094H141.887C141.6 276.966 141.078 277.683 140.321 278.245C139.575 278.796 138.646 279.071 137.533 279.071C136.627 279.071 135.812 278.87 135.089 278.469C134.378 278.056 133.816 277.482 133.402 276.748C133.001 276.002 132.8 275.141 132.8 274.166C132.8 273.191 132.995 272.336 133.385 271.602C133.787 270.856 134.343 270.282 135.055 269.881C135.778 269.479 136.604 269.278 137.533 269.278C138.428 269.278 139.225 269.473 139.925 269.863C140.625 270.254 141.17 270.804 141.56 271.516C141.95 272.216 142.145 273.024 142.145 273.942ZM140.097 273.323C140.086 272.6 139.828 272.021 139.323 271.585C138.818 271.149 138.193 270.931 137.447 270.931C136.77 270.931 136.191 271.149 135.709 271.585C135.227 272.009 134.94 272.588 134.848 273.323H140.097Z" fill="#555370"/>
<path d="M148.19 279.071C147.295 279.071 146.486 278.87 145.763 278.469C145.04 278.056 144.472 277.482 144.059 276.748C143.646 276.002 143.44 275.141 143.44 274.166C143.44 273.202 143.652 272.348 144.076 271.602C144.501 270.856 145.08 270.282 145.815 269.881C146.549 269.479 147.369 269.278 148.276 269.278C149.182 269.278 150.002 269.479 150.737 269.881C151.471 270.282 152.051 270.856 152.475 271.602C152.9 272.348 153.112 273.202 153.112 274.166C153.112 275.13 152.894 275.985 152.458 276.73C152.022 277.476 151.425 278.056 150.668 278.469C149.922 278.87 149.096 279.071 148.19 279.071ZM148.19 277.367C148.694 277.367 149.165 277.247 149.601 277.006C150.048 276.765 150.41 276.403 150.685 275.922C150.961 275.44 151.098 274.855 151.098 274.166C151.098 273.478 150.966 272.898 150.702 272.428C150.438 271.946 150.089 271.585 149.653 271.344C149.217 271.103 148.746 270.982 148.241 270.982C147.736 270.982 147.266 271.103 146.83 271.344C146.405 271.585 146.067 271.946 145.815 272.428C145.562 272.898 145.436 273.478 145.436 274.166C145.436 275.187 145.694 275.979 146.21 276.541C146.738 277.092 147.398 277.367 148.19 277.367Z" fill="#555370"/>
<path d="M157.013 270.827C157.346 270.391 157.799 270.024 158.373 269.726C158.947 269.427 159.595 269.278 160.318 269.278C161.144 269.278 161.896 269.485 162.572 269.898C163.261 270.299 163.8 270.867 164.19 271.602C164.58 272.336 164.775 273.179 164.775 274.132C164.775 275.084 164.58 275.939 164.19 276.696C163.8 277.442 163.261 278.027 162.572 278.452C161.896 278.865 161.144 279.071 160.318 279.071C159.595 279.071 158.953 278.928 158.39 278.641C157.828 278.343 157.369 277.975 157.013 277.539V283.425H155.051V269.433H157.013V270.827ZM162.779 274.132C162.779 273.478 162.641 272.915 162.366 272.445C162.102 271.963 161.746 271.602 161.299 271.361C160.863 271.108 160.392 270.982 159.888 270.982C159.394 270.982 158.924 271.108 158.476 271.361C158.04 271.613 157.685 271.98 157.409 272.462C157.145 272.944 157.013 273.512 157.013 274.166C157.013 274.82 157.145 275.394 157.409 275.887C157.685 276.369 158.04 276.736 158.476 276.989C158.924 277.241 159.394 277.367 159.888 277.367C160.392 277.367 160.863 277.241 161.299 276.989C161.746 276.725 162.102 276.346 162.366 275.853C162.641 275.359 162.779 274.786 162.779 274.132Z" fill="#555370"/>
<path d="M168.678 266.18V278.916H166.716V266.18H168.678Z" fill="#555370"/>
<path d="M179.945 273.942C179.945 274.298 179.922 274.619 179.876 274.906H172.63C172.688 275.663 172.969 276.272 173.474 276.73C173.979 277.189 174.598 277.419 175.333 277.419C176.388 277.419 177.134 276.977 177.57 276.094H179.687C179.4 276.966 178.878 277.683 178.121 278.245C177.375 278.796 176.445 279.071 175.333 279.071C174.426 279.071 173.611 278.87 172.889 278.469C172.177 278.056 171.615 277.482 171.202 276.748C170.8 276.002 170.6 275.141 170.6 274.166C170.6 273.191 170.795 272.336 171.185 271.602C171.586 270.856 172.143 270.282 172.854 269.881C173.577 269.479 174.403 269.278 175.333 269.278C176.227 269.278 177.025 269.473 177.725 269.863C178.425 270.254 178.97 270.804 179.36 271.516C179.75 272.216 179.945 273.024 179.945 273.942ZM177.897 273.323C177.885 272.6 177.627 272.021 177.122 271.585C176.618 271.149 175.992 270.931 175.246 270.931C174.57 270.931 173.99 271.149 173.508 271.585C173.026 272.009 172.739 272.588 172.648 273.323H177.897Z" fill="#555370"/>
<path d="M195.003 270.397C194.694 269.8 194.263 269.353 193.713 269.055C193.162 268.745 192.525 268.59 191.802 268.59C191.011 268.59 190.305 268.768 189.685 269.123C189.066 269.479 188.578 269.984 188.222 270.638C187.878 271.292 187.706 272.049 187.706 272.91C187.706 273.77 187.878 274.533 188.222 275.199C188.578 275.853 189.066 276.358 189.685 276.713C190.305 277.069 191.011 277.247 191.802 277.247C192.869 277.247 193.736 276.948 194.401 276.352C195.067 275.755 195.474 274.946 195.623 273.925H191.131V272.359H197.723V273.891C197.597 274.82 197.264 275.675 196.725 276.455C196.197 277.235 195.503 277.861 194.642 278.331C193.793 278.79 192.846 279.02 191.802 279.02C190.678 279.02 189.651 278.761 188.722 278.245C187.792 277.717 187.052 276.989 186.501 276.059C185.962 275.13 185.693 274.08 185.693 272.91C185.693 271.739 185.962 270.69 186.501 269.76C187.052 268.831 187.792 268.108 188.722 267.592C189.662 267.064 190.689 266.8 191.802 266.8C193.076 266.8 194.206 267.115 195.193 267.747C196.191 268.366 196.914 269.25 197.361 270.397H195.003Z" fill="#555370"/>
<path d="M208.349 273.942C208.349 274.298 208.326 274.619 208.28 274.906H201.035C201.092 275.663 201.373 276.272 201.878 276.73C202.383 277.189 203.002 277.419 203.737 277.419C204.792 277.419 205.538 276.977 205.974 276.094H208.091C207.804 276.966 207.282 277.683 206.525 278.245C205.779 278.796 204.85 279.071 203.737 279.071C202.83 279.071 202.016 278.87 201.293 278.469C200.582 278.056 200.019 277.482 199.606 276.748C199.205 276.002 199.004 275.141 199.004 274.166C199.004 273.191 199.199 272.336 199.589 271.602C199.991 270.856 200.547 270.282 201.258 269.881C201.981 269.479 202.807 269.278 203.737 269.278C204.632 269.278 205.429 269.473 206.129 269.863C206.829 270.254 207.374 270.804 207.764 271.516C208.154 272.216 208.349 273.024 208.349 273.942ZM206.301 273.323C206.29 272.6 206.032 272.021 205.527 271.585C205.022 271.149 204.397 270.931 203.651 270.931C202.974 270.931 202.394 271.149 201.912 271.585C201.431 272.009 201.144 272.588 201.052 273.323H206.301Z" fill="#555370"/>
<path d="M212.569 271.034V276.283C212.569 276.639 212.649 276.897 212.81 277.057C212.982 277.207 213.269 277.281 213.671 277.281H214.875V278.916H213.326C212.443 278.916 211.766 278.71 211.295 278.297C210.825 277.884 210.59 277.212 210.59 276.283V271.034H209.471V269.433H210.59V267.075H212.569V269.433H214.875V271.034H212.569Z" fill="#555370"/>
<path d="M230.706 266.955V278.916H228.744V273.684H223.116V278.916H221.154V266.955H223.116V272.084H228.744V266.955H230.706Z" fill="#555370"/>
<path d="M234.287 268.177C233.932 268.177 233.633 268.056 233.392 267.815C233.151 267.574 233.031 267.276 233.031 266.92C233.031 266.565 233.151 266.266 233.392 266.025C233.633 265.785 233.932 265.664 234.287 265.664C234.632 265.664 234.924 265.785 235.165 266.025C235.406 266.266 235.527 266.565 235.527 266.92C235.527 267.276 235.406 267.574 235.165 267.815C234.924 268.056 234.632 268.177 234.287 268.177ZM235.251 269.433V278.916H233.289V269.433H235.251Z" fill="#555370"/>
<path d="M239.789 270.81C240.076 270.328 240.455 269.955 240.925 269.691C241.407 269.416 241.975 269.278 242.629 269.278V271.309H242.13C241.361 271.309 240.776 271.504 240.374 271.894C239.984 272.284 239.789 272.961 239.789 273.925V278.916H237.827V269.433H239.789V270.81Z" fill="#555370"/>
<path d="M253.124 273.942C253.124 274.298 253.101 274.619 253.055 274.906H245.809C245.867 275.663 246.148 276.272 246.653 276.73C247.157 277.189 247.777 277.419 248.511 277.419C249.567 277.419 250.313 276.977 250.749 276.094H252.866C252.579 276.966 252.057 277.683 251.299 278.245C250.554 278.796 249.624 279.071 248.511 279.071C247.605 279.071 246.79 278.87 246.067 278.469C245.356 278.056 244.794 277.482 244.381 276.748C243.979 276.002 243.778 275.141 243.778 274.166C243.778 273.191 243.973 272.336 244.364 271.602C244.765 270.856 245.322 270.282 246.033 269.881C246.756 269.479 247.582 269.278 248.511 269.278C249.406 269.278 250.204 269.473 250.904 269.863C251.603 270.254 252.148 270.804 252.539 271.516C252.929 272.216 253.124 273.024 253.124 273.942ZM251.076 273.323C251.064 272.6 250.806 272.021 250.301 271.585C249.796 271.149 249.171 270.931 248.425 270.931C247.748 270.931 247.169 271.149 246.687 271.585C246.205 272.009 245.918 272.588 245.826 273.323H251.076Z" fill="#555370"/>
<path d="M254.401 274.132C254.401 273.179 254.596 272.336 254.986 271.602C255.387 270.867 255.927 270.299 256.604 269.898C257.292 269.485 258.055 269.278 258.893 269.278C259.512 269.278 260.12 269.416 260.717 269.691C261.325 269.955 261.807 270.311 262.163 270.758V266.18H264.142V278.916H262.163V277.488C261.841 277.947 261.394 278.325 260.82 278.624C260.258 278.922 259.61 279.071 258.875 279.071C258.049 279.071 257.292 278.865 256.604 278.452C255.927 278.027 255.387 277.442 254.986 276.696C254.596 275.939 254.401 275.084 254.401 274.132ZM262.163 274.166C262.163 273.512 262.025 272.944 261.749 272.462C261.486 271.98 261.136 271.613 260.7 271.361C260.264 271.108 259.793 270.982 259.288 270.982C258.784 270.982 258.313 271.108 257.877 271.361C257.441 271.602 257.085 271.963 256.81 272.445C256.546 272.915 256.414 273.478 256.414 274.132C256.414 274.786 256.546 275.359 256.81 275.853C257.085 276.346 257.441 276.725 257.877 276.989C258.325 277.241 258.795 277.367 259.288 277.367C259.793 277.367 260.264 277.241 260.7 276.989C261.136 276.736 261.486 276.369 261.749 275.887C262.025 275.394 262.163 274.82 262.163 274.166Z" fill="#555370"/>
<defs>
<filter id="filter0_d_439_747" x="0.73629" y="0.620537" width="388.96" height="406.171" filterUnits="userSpaceOnUse" color-interpolation-filters="sRGB">
<feFlood flood-opacity="0" result="BackgroundImageFix"/>
<feColorMatrix in="SourceAlpha" type="matrix" values="0 0 0 0 0 0 0 0 0 0 0 0 0 0 0 0 0 0 127 0" result="hardAlpha"/>
<feOffset dy="6.88425"/>
<feGaussianBlur stdDeviation="51.6319"/>
<feComposite in2="hardAlpha" operator="out"/>
<feColorMatrix type="matrix" values="0 0 0 0 0 0 0 0 0 0 0 0 0 0 0 0 0 0 0.08 0"/>
<feBlend mode="normal" in2="BackgroundImageFix" result="effect1_dropShadow_439_747"/>
<feBlend mode="normal" in="SourceGraphic" in2="effect1_dropShadow_439_747" result="shape"/>
</filter>
</defs>
</svg>
