<svg width="16" height="16" viewBox="0 0 16 16" fill="none" xmlns="http://www.w3.org/2000/svg">
<g clip-path="url(#clip0_46_9)">
<path d="M8 10.75C7.72385 10.75 7.5 10.5261 7.5 10.25V8.5H5.75C5.47385 8.5 5.25 8.27615 5.25 8C5.25 7.72385 5.47385 7.5 5.75 7.5H7.5V5.75C7.5 5.47385 7.72385 5.25 8 5.25C8.27615 5.25 8.5 5.47385 8.5 5.75V7.5H10.25C10.5261 7.5 10.75 7.72385 10.75 8C10.75 8.27615 10.5261 8.5 10.25 8.5H8.5V10.25C8.5 10.5261 8.27615 10.75 8 10.75Z" fill="#2CC4BF"/>
<path fill-rule="evenodd" clip-rule="evenodd" d="M4.5 0.5C2.29086 0.5 0.5 2.29086 0.5 4.5V11.5C0.5 13.7092 2.29086 15.5 4.5 15.5H11.5C13.7092 15.5 15.5 13.7092 15.5 11.5V5.15182C15.5 4.59748 15.2699 4.06798 14.8646 3.68972L12.0234 1.03789C11.6531 0.692237 11.1653 0.5 10.6587 0.5H4.5ZM1.5 4.5C1.5 2.84315 2.84315 1.5 4.5 1.5H10.5V3C10.5 4.10458 11.3954 5 12.5 5H14.4884C14.4961 5.04992 14.5 5.10068 14.5 5.15182V11.5C14.5 13.1568 13.1568 14.5 11.5 14.5H4.5C2.84315 14.5 1.5 13.1568 1.5 11.5V4.5ZM11.5 3V1.91727L13.7315 4H12.5C11.9477 4 11.5 3.55227 11.5 3Z" fill="#2CC4BF"/>
</g>
<defs>
<clipPath id="clip0_46_9">
<rect width="16" height="16" fill="white"/>
</clipPath>
</defs>
</svg>
