<svg width="20" height="20" viewBox="0 0 20 20" fill="none" xmlns="http://www.w3.org/2000/svg">
<g clip-path="url(#clip0_519_10)">
<path d="M15.684 0H4.31831C3.25155 0 2.38373 0.867862 2.38373 1.93458C2.38373 16.3211 2.36805 15.4526 2.41714 15.5999C2.45007 15.6985 2.50521 15.7842 2.57155 15.8509C2.61177 15.8913 6.52873 19.8128 6.58572 19.8566C6.84052 20.0528 6.44885 19.9907 15.684 19.9907C16.7507 19.9907 17.6186 19.1228 17.6186 18.0561V1.93458C17.6186 0.867862 16.7507 0 15.684 0ZM6.3335 17.789L4.58541 16.0409H6.3335V17.789ZM16.3288 18.0561C16.3288 18.4117 16.0395 18.701 15.684 18.701H7.62322V15.3961C7.62322 15.0399 7.33453 14.7512 6.97836 14.7512H3.67345V1.93458C3.67345 1.57902 3.96275 1.28972 4.31831 1.28972H15.684C16.0395 1.28972 16.3288 1.57902 16.3288 1.93458V18.0561ZM14.2734 13.0181C14.2734 13.3743 13.9847 13.663 13.6285 13.663H6.3335C5.97734 13.663 5.68864 13.3743 5.68864 13.0181C5.68864 12.662 5.97734 12.3733 6.3335 12.3733H13.6285C13.9847 12.3733 14.2734 12.662 14.2734 13.0181ZM14.2734 16.323C14.2734 16.6792 13.9847 16.9679 13.6285 16.9679H9.4772C9.12104 16.9679 8.83234 16.6792 8.83234 16.323C8.83234 15.9669 9.12104 15.6782 9.4772 15.6782H13.6285C13.9847 15.6782 14.2734 15.9669 14.2734 16.323ZM9.97471 6.77414C11.1715 6.77414 12.1452 5.80048 12.1452 4.6037C12.1452 3.40692 11.1715 2.43326 9.97471 2.43326C8.77789 2.43326 7.80427 3.40692 7.80427 4.6037C7.80427 5.80048 8.77793 6.77414 9.97471 6.77414ZM9.97471 3.72298C10.4603 3.72298 10.8554 4.11808 10.8554 4.6037C10.8554 5.08932 10.4603 5.48442 9.97471 5.48442C9.48909 5.48442 9.09399 5.08932 9.09399 4.6037C9.09399 4.11808 9.48909 3.72298 9.97471 3.72298ZM6.70934 9.93291V9.04873C6.70934 8.49113 7.03834 7.9839 7.54753 7.75651L8.57028 7.29983C8.74178 7.22325 8.62167 7.2438 11.1016 7.2438C11.2829 7.2438 11.2767 7.26061 12.3873 7.75647C12.8965 7.98386 13.2255 8.49109 13.2255 9.04869V9.93287C13.2255 10.289 12.9368 10.5777 12.5806 10.5777C12.2244 10.5777 11.9357 10.289 11.9357 9.93287V9.04869C11.9357 8.99924 11.9066 8.9543 11.8614 8.93414L10.9641 8.53353H8.97062L8.07334 8.93414C8.0282 8.9543 7.99902 8.99928 7.99902 9.04869V9.93287C7.99902 10.289 7.71032 10.5777 7.35416 10.5777C6.99799 10.5777 6.70934 10.289 6.70934 9.93291Z" fill="#6B84FE"/>
</g>
<defs>
<clipPath id="clip0_519_10">
<rect width="20" height="20" fill="white"/>
</clipPath>
</defs>
</svg>
