<svg width="20" height="21" viewBox="0 0 20 21" fill="none" xmlns="http://www.w3.org/2000/svg">
<g clip-path="url(#clip0_4_576)">
<path d="M15.684 0.5H4.31831C3.25155 0.5 2.38373 1.36786 2.38373 2.43458C2.38373 16.8211 2.36805 15.9526 2.41714 16.0999C2.45007 16.1985 2.50521 16.2842 2.57155 16.3509C2.61177 16.3913 6.52873 20.3128 6.58572 20.3566C6.84052 20.5528 6.44885 20.4907 15.684 20.4907C16.7507 20.4907 17.6186 19.6228 17.6186 18.5561V2.43458C17.6186 1.36786 16.7507 0.5 15.684 0.5ZM6.3335 18.289L4.58541 16.5409H6.3335V18.289ZM16.3288 18.5561C16.3288 18.9117 16.0395 19.201 15.684 19.201H7.62322V15.8961C7.62322 15.5399 7.33453 15.2512 6.97836 15.2512H3.67345V2.43458C3.67345 2.07902 3.96275 1.78972 4.31831 1.78972H15.684C16.0395 1.78972 16.3288 2.07902 16.3288 2.43458V18.5561ZM14.2734 13.5181C14.2734 13.8743 13.9847 14.163 13.6285 14.163H6.3335C5.97734 14.163 5.68864 13.8743 5.68864 13.5181C5.68864 13.162 5.97734 12.8733 6.3335 12.8733H13.6285C13.9847 12.8733 14.2734 13.162 14.2734 13.5181ZM14.2734 16.823C14.2734 17.1792 13.9847 17.4679 13.6285 17.4679H9.4772C9.12104 17.4679 8.83234 17.1792 8.83234 16.823C8.83234 16.4669 9.12104 16.1782 9.4772 16.1782H13.6285C13.9847 16.1782 14.2734 16.4669 14.2734 16.823ZM9.97471 7.27414C11.1715 7.27414 12.1452 6.30048 12.1452 5.1037C12.1452 3.90692 11.1715 2.93326 9.97471 2.93326C8.77789 2.93326 7.80427 3.90692 7.80427 5.1037C7.80427 6.30048 8.77793 7.27414 9.97471 7.27414ZM9.97471 4.22298C10.4603 4.22298 10.8554 4.61808 10.8554 5.1037C10.8554 5.58932 10.4603 5.98442 9.97471 5.98442C9.48909 5.98442 9.09399 5.58932 9.09399 5.1037C9.09399 4.61808 9.48909 4.22298 9.97471 4.22298ZM6.70934 10.4329V9.54873C6.70934 8.99113 7.03834 8.4839 7.54753 8.25651L8.57028 7.79983C8.74178 7.72325 8.62167 7.7438 11.1016 7.7438C11.2829 7.7438 11.2767 7.76061 12.3873 8.25647C12.8965 8.48386 13.2255 8.99109 13.2255 9.54869V10.4329C13.2255 10.789 12.9368 11.0777 12.5806 11.0777C12.2244 11.0777 11.9357 10.789 11.9357 10.4329V9.54869C11.9357 9.49924 11.9066 9.4543 11.8614 9.43414L10.9641 9.03353H8.97062L8.07334 9.43414C8.0282 9.4543 7.99902 9.49928 7.99902 9.54869V10.4329C7.99902 10.789 7.71032 11.0777 7.35416 11.0777C6.99799 11.0777 6.70934 10.789 6.70934 10.4329Z" fill="#666666"/>
</g>
<defs>
<clipPath id="clip0_4_576">
<rect width="20" height="20" fill="white" transform="translate(0 0.5)"/>
</clipPath>
</defs>
</svg>
