<svg width="26" height="24" viewBox="0 0 26 24" fill="none" xmlns="http://www.w3.org/2000/svg">
<path d="M26 6.75501C26 5.51155 24.9749 4.49992 23.7148 4.49992H19.6523V2.88242C19.6523 1.57753 18.5766 0.51593 17.2544 0.51593H8.7457C7.42341 0.51593 6.34766 1.57753 6.34766 2.88242V4.49992H2.28516C1.02512 4.49992 0 5.51155 0 6.75501V10.3129C0 10.9759 0.218766 11.8027 1.01562 12.6137V20.8869C1.01562 22.1304 2.04075 23.142 3.30078 23.142H22.6992C23.9593 23.142 24.9844 22.1304 24.9844 20.8869V12.6137C25.7809 11.8031 26 10.9766 26 10.3129V6.75501ZM7.87109 2.88242C7.87109 2.4065 8.26343 2.01932 8.7457 2.01932H17.2544C17.7366 2.01932 18.129 2.4065 18.129 2.88242V4.49992H7.87109V2.88242ZM1.52344 6.75501C1.52344 6.34052 1.86514 6.00331 2.28516 6.00331H23.7148C24.1349 6.00331 24.4766 6.34052 24.4766 6.75501V10.3129C24.4766 12.1625 20.8808 13.6718 15.6406 14.0673V13.3699C15.6406 12.9548 15.2996 12.6182 14.8789 12.6182H11.1211C10.7004 12.6182 10.3594 12.9548 10.3594 13.3699V14.067C5.12388 13.6711 1.52344 12.1577 1.52344 10.3129V6.75501ZM14.1172 14.1216V15.0988C14.1172 15.6377 13.673 16.076 13.127 16.076H12.873C12.327 16.076 11.8828 15.6377 11.8828 15.0988V14.1216H14.1172ZM22.6992 21.6386H3.30078C2.88077 21.6386 2.53906 21.3014 2.53906 20.8869V13.717C4.80716 14.8639 7.19073 15.3062 10.4069 15.5781C10.6338 16.7172 11.6532 17.5794 12.873 17.5794H13.127C14.3469 17.5794 15.3663 16.7171 15.5931 15.5779C18.2499 15.388 20.6482 14.9068 22.3994 14.2075C22.7932 14.0502 23.1455 13.8859 23.4609 13.7168V20.8869C23.4609 21.3014 23.1192 21.6386 22.6992 21.6386Z" fill="#6B84FE"/>
</svg>
