<svg width="26" height="26" viewBox="0 0 26 26" fill="none" xmlns="http://www.w3.org/2000/svg">
<path d="M26 7.75501C26 6.51155 24.9749 5.49992 23.7148 5.49992H19.6523V3.88242C19.6523 2.57753 18.5766 1.51593 17.2544 1.51593H8.7457C7.42341 1.51593 6.34766 2.57753 6.34766 3.88242V5.49992H2.28516C1.02512 5.49992 0 6.51155 0 7.75501V11.3129C0 11.9759 0.218766 12.8027 1.01562 13.6137V21.8869C1.01562 23.1304 2.04075 24.142 3.30078 24.142H22.6992C23.9593 24.142 24.9844 23.1304 24.9844 21.8869V13.6137C25.7809 12.8031 26 11.9766 26 11.3129V7.75501ZM7.87109 3.88242C7.87109 3.4065 8.26343 3.01932 8.7457 3.01932H17.2544C17.7366 3.01932 18.129 3.4065 18.129 3.88242V5.49992H7.87109V3.88242ZM1.52344 7.75501C1.52344 7.34052 1.86514 7.00331 2.28516 7.00331H23.7148C24.1349 7.00331 24.4766 7.34052 24.4766 7.75501V11.3129C24.4766 13.1625 20.8808 14.6718 15.6406 15.0673V14.3699C15.6406 13.9548 15.2996 13.6182 14.8789 13.6182H11.1211C10.7004 13.6182 10.3594 13.9548 10.3594 14.3699V15.067C5.12388 14.6711 1.52344 13.1577 1.52344 11.3129V7.75501ZM14.1172 15.1216V16.0988C14.1172 16.6377 13.673 17.076 13.127 17.076H12.873C12.327 17.076 11.8828 16.6377 11.8828 16.0988V15.1216H14.1172ZM22.6992 22.6386H3.30078C2.88077 22.6386 2.53906 22.3014 2.53906 21.8869V14.717C4.80716 15.8639 7.19073 16.3062 10.4069 16.5781C10.6338 17.7172 11.6532 18.5794 12.873 18.5794H13.127C14.3469 18.5794 15.3663 17.7171 15.5931 16.5779C18.2499 16.388 20.6482 15.9068 22.3994 15.2075C22.7932 15.0502 23.1455 14.8859 23.4609 14.7168V21.8869C23.4609 22.3014 23.1192 22.6386 22.6992 22.6386Z" fill="#6B84FE"/>
</svg>
