<svg width="55" height="21" viewBox="0 0 55 21" fill="none" xmlns="http://www.w3.org/2000/svg">
<path d="M33.336 5.27V6.572H30.746V15H29.15V6.572H26.546V5.27H33.336ZM36.5483 5.27V15H34.9523V5.27H36.5483ZM45.4478 8.168C45.4478 8.66267 45.3311 9.12933 45.0978 9.568C44.8644 10.0067 44.4911 10.366 43.9778 10.646C43.4644 10.9167 42.8064 11.052 42.0038 11.052H40.2398V15H38.6438V5.27H42.0038C42.7504 5.27 43.3804 5.40067 43.8938 5.662C44.4164 5.914 44.8038 6.25933 45.0558 6.698C45.3171 7.13667 45.4478 7.62667 45.4478 8.168ZM42.0038 9.75C42.6104 9.75 43.0631 9.61467 43.3618 9.344C43.6604 9.064 43.8098 8.672 43.8098 8.168C43.8098 7.104 43.2078 6.572 42.0038 6.572H40.2398V9.75H42.0038ZM50.1759 15.098C49.5226 15.098 48.9346 14.986 48.4119 14.762C47.8893 14.5287 47.4786 14.202 47.1799 13.782C46.8813 13.362 46.7319 12.872 46.7319 12.312H48.4399C48.4773 12.732 48.6406 13.0773 48.9299 13.348C49.2286 13.6187 49.6439 13.754 50.1759 13.754C50.7266 13.754 51.1559 13.6233 51.4639 13.362C51.7719 13.0913 51.9259 12.746 51.9259 12.326C51.9259 11.9993 51.8279 11.7333 51.6319 11.528C51.4453 11.3227 51.2073 11.164 50.9179 11.052C50.6379 10.94 50.2459 10.8187 49.7419 10.688C49.1073 10.52 48.5893 10.352 48.1879 10.184C47.7959 10.0067 47.4599 9.736 47.1799 9.372C46.8999 9.008 46.7599 8.52267 46.7599 7.916C46.7599 7.356 46.8999 6.866 47.1799 6.446C47.4599 6.026 47.8519 5.704 48.3559 5.48C48.8599 5.256 49.4433 5.144 50.1059 5.144C51.0486 5.144 51.8186 5.382 52.4159 5.858C53.0226 6.32467 53.3586 6.96867 53.4239 7.79H51.6599C51.6319 7.43533 51.4639 7.132 51.1559 6.88C50.8479 6.628 50.4419 6.502 49.9379 6.502C49.4806 6.502 49.1073 6.61867 48.8179 6.852C48.5286 7.08533 48.3839 7.42133 48.3839 7.86C48.3839 8.15867 48.4726 8.406 48.6499 8.602C48.8366 8.78867 49.0699 8.938 49.3499 9.05C49.6299 9.162 50.0126 9.28333 50.4979 9.414C51.1419 9.59133 51.6646 9.76867 52.0659 9.946C52.4766 10.1233 52.8219 10.3987 53.1019 10.772C53.3913 11.136 53.5359 11.626 53.5359 12.242C53.5359 12.7367 53.4006 13.2033 53.1299 13.642C52.8686 14.0807 52.4813 14.4353 51.9679 14.706C51.4639 14.9673 50.8666 15.098 50.1759 15.098Z" fill="#6B84FE"/>
<path d="M7.03134 14.2187C6.88228 14.2187 6.73884 14.1597 6.63478 14.0528C6.53071 13.9459 6.46884 13.8053 6.46884 13.6562C6.46884 12.9728 6.15665 12.3231 5.61103 11.8759C4.22446 10.7369 3.50446 8.98749 3.68446 7.19312C3.93478 4.71249 5.91478 2.7128 8.39259 2.43718C9.91415 2.26843 11.4329 2.75218 12.5635 3.76468C13.6942 4.77718 14.3438 6.22843 14.3438 7.74718C14.3438 9.35312 13.6295 10.8606 12.3807 11.8816C11.8407 12.3231 11.5313 12.97 11.5313 13.6534C11.5313 13.9628 11.2782 14.2159 10.9688 14.2159H7.03134V14.2187ZM7.54603 13.0937H10.4513C10.5863 12.2837 11.0138 11.5469 11.6663 11.0125C12.6507 10.2081 13.216 9.01843 13.216 7.74999C13.216 6.55187 12.7042 5.40437 11.8098 4.60562C10.9042 3.79562 9.73134 3.42155 8.51353 3.55655C6.56165 3.77312 5.00071 5.35093 4.80103 7.30562C4.65759 8.72312 5.22571 10.1041 6.31978 11.0041C6.9779 11.5441 7.4054 12.2837 7.54321 13.0909L7.54603 13.0937Z" fill="#6B84FE"/>
<path d="M9.84375 17.5938H8.15625C7.22531 17.5938 6.46875 16.8372 6.46875 15.9062V13.6562C6.46875 13.3469 6.72187 13.0938 7.03125 13.0938H10.9688C11.2781 13.0938 11.5312 13.3469 11.5312 13.6562V15.9062C11.5312 16.8372 10.7747 17.5938 9.84375 17.5938ZM7.59375 14.2188V15.9062C7.59375 16.2156 7.84687 16.4688 8.15625 16.4688H9.84375C10.1531 16.4688 10.4062 16.2156 10.4062 15.9062V14.2188H7.59375Z" fill="#6B84FE"/>
<path d="M9.84375 17.5938H8.15625C7.22531 17.5938 6.46875 16.8372 6.46875 15.9062V13.6562C6.46875 13.3469 6.72187 13.0938 7.03125 13.0938H10.9688C11.2781 13.0938 11.5312 13.3469 11.5312 13.6562V15.9062C11.5312 16.8372 10.7747 17.5938 9.84375 17.5938ZM7.59375 14.2188V15.9062C7.59375 16.2156 7.84687 16.4688 8.15625 16.4688H9.84375C10.1531 16.4688 10.4062 16.2156 10.4062 15.9062V14.2188H7.59375Z" fill="#6B84FE"/>
<path d="M16.875 8.3125H15.75C15.4406 8.3125 15.1875 8.05937 15.1875 7.75C15.1875 7.44062 15.4406 7.1875 15.75 7.1875H16.875C17.1844 7.1875 17.4375 7.44062 17.4375 7.75C17.4375 8.05937 17.1844 8.3125 16.875 8.3125Z" fill="#6B84FE"/>
<path d="M2.25 8.3125H1.125C0.815625 8.3125 0.5625 8.05937 0.5625 7.75C0.5625 7.44062 0.815625 7.1875 1.125 7.1875H2.25C2.55938 7.1875 2.8125 7.44062 2.8125 7.75C2.8125 8.05937 2.55938 8.3125 2.25 8.3125Z" fill="#6B84FE"/>
<path d="M2.25016 12.25C2.06734 12.25 1.89016 12.1628 1.78047 11.9997C1.60891 11.7409 1.67922 11.3922 1.93516 11.2206L2.77891 10.6581C3.03766 10.4837 3.38641 10.5569 3.55797 10.8128C3.72953 11.0715 3.65922 11.4203 3.40328 11.5919L2.55953 12.1544C2.46391 12.219 2.35422 12.25 2.24734 12.25H2.25016Z" fill="#6B84FE"/>
<path d="M15.7503 12.25C15.6434 12.25 15.5337 12.219 15.4381 12.1544L14.5944 11.5919C14.3356 11.4203 14.2653 11.0715 14.4397 10.8128C14.6112 10.554 14.96 10.4837 15.2187 10.6581L16.0625 11.2206C16.3212 11.3922 16.3915 11.7409 16.2172 11.9997C16.1075 12.1628 15.9303 12.25 15.7475 12.25H15.7503Z" fill="#6B84FE"/>
<path d="M3.09404 4.93749C2.98717 4.93749 2.87748 4.90655 2.78185 4.84186L1.9381 4.27936C1.67935 4.1078 1.60904 3.75905 1.78342 3.5003C1.95498 3.24155 2.30373 3.17124 2.56248 3.34561L3.40623 3.90811C3.66498 4.07967 3.73529 4.42842 3.56092 4.68717C3.45123 4.8503 3.27404 4.93749 3.09123 4.93749H3.09404Z" fill="#6B84FE"/>
<path d="M14.9064 4.9375C14.7236 4.9375 14.5464 4.85031 14.4367 4.68719C14.2652 4.42844 14.3355 4.07969 14.5914 3.90812L15.4352 3.34562C15.6939 3.17406 16.0427 3.24437 16.2142 3.50031C16.3858 3.75906 16.3155 4.10781 16.0595 4.27937L15.2158 4.84187C15.1202 4.90656 15.0105 4.9375 14.9036 4.9375H14.9064Z" fill="#6B84FE"/>
</svg>
