<svg width="32" height="32" viewBox="0 0 32 32" fill="none" xmlns="http://www.w3.org/2000/svg">
<g clip-path="url(#clip0_1302_391)">
<path d="M29.1875 4.75H2.8125C1.26172 4.75 0 6.01172 0 7.5625V24.4375C0 25.9883 1.26172 27.25 2.8125 27.25H29.1875C30.7383 27.25 32 25.9883 32 24.4375V7.5625C32 6.01172 30.7383 4.75 29.1875 4.75ZM30.125 24.4375C30.125 24.9543 29.7043 25.375 29.1875 25.375H2.8125C2.29565 25.375 1.875 24.9543 1.875 24.4375V7.5625C1.875 7.04565 2.29565 6.625 2.8125 6.625H29.1875C29.7043 6.625 30.125 7.04565 30.125 7.5625V24.4375Z" fill="url(#paint0_linear_1302_391)"/>
<path d="M11.6626 15.7449C12.1836 15.1421 12.5 14.3574 12.5 13.5C12.5 11.6045 10.958 10.0625 9.0625 10.0625C7.16699 10.0625 5.625 11.6045 5.625 13.5C5.625 14.3574 5.94141 15.1421 6.4624 15.7449C4.84521 16.6565 3.75 18.3899 3.75 20.375V21C3.75 21.5178 4.16968 21.9375 4.6875 21.9375H13.4375C13.9553 21.9375 14.375 21.5178 14.375 21V20.375C14.375 18.3899 13.2798 16.6565 11.6626 15.7449ZM7.5 13.5C7.5 12.6384 8.20093 11.9375 9.0625 11.9375C9.92407 11.9375 10.625 12.6384 10.625 13.5C10.625 14.3616 9.92407 15.0625 9.0625 15.0625C8.20093 15.0625 7.5 14.3616 7.5 13.5ZM5.63916 20.0625C5.79736 18.313 7.27222 16.9375 9.0625 16.9375C10.8528 16.9375 12.3276 18.313 12.4858 20.0625H5.63916Z" fill="url(#paint1_linear_1302_391)"/>
<path d="M27.3125 18.8125H17.3125C16.7947 18.8125 16.375 19.2322 16.375 19.75C16.375 20.2678 16.7947 20.6875 17.3125 20.6875H27.3125C27.8303 20.6875 28.25 20.2678 28.25 19.75C28.25 19.2322 27.8303 18.8125 27.3125 18.8125Z" fill="url(#paint2_linear_1302_391)"/>
<path d="M27.3125 15.0625H17.3125C16.7947 15.0625 16.375 15.4822 16.375 16C16.375 16.5178 16.7947 16.9375 17.3125 16.9375H27.3125C27.8303 16.9375 28.25 16.5178 28.25 16C28.25 15.4822 27.8303 15.0625 27.3125 15.0625Z" fill="url(#paint3_linear_1302_391)"/>
<path d="M17.3125 13.1875H21.0625C21.5803 13.1875 22 12.7678 22 12.25C22 11.7322 21.5803 11.3125 21.0625 11.3125H17.3125C16.7947 11.3125 16.375 11.7322 16.375 12.25C16.375 12.7678 16.7947 13.1875 17.3125 13.1875Z" fill="url(#paint4_linear_1302_391)"/>
</g>
<defs>
<linearGradient id="paint0_linear_1302_391" x1="16" y1="4.75" x2="16" y2="27.25" gradientUnits="userSpaceOnUse">
<stop stop-color="#26A378"/>
<stop offset="1" stop-color="#6B84FE"/>
</linearGradient>
<linearGradient id="paint1_linear_1302_391" x1="9.0625" y1="10.0625" x2="9.0625" y2="21.9375" gradientUnits="userSpaceOnUse">
<stop stop-color="#26A378"/>
<stop offset="1" stop-color="#6B84FE"/>
</linearGradient>
<linearGradient id="paint2_linear_1302_391" x1="22.3125" y1="18.8125" x2="22.3125" y2="20.6875" gradientUnits="userSpaceOnUse">
<stop stop-color="#26A378"/>
<stop offset="1" stop-color="#6B84FE"/>
</linearGradient>
<linearGradient id="paint3_linear_1302_391" x1="22.3125" y1="15.0625" x2="22.3125" y2="16.9375" gradientUnits="userSpaceOnUse">
<stop stop-color="#26A378"/>
<stop offset="1" stop-color="#6B84FE"/>
</linearGradient>
<linearGradient id="paint4_linear_1302_391" x1="19.1875" y1="11.3125" x2="19.1875" y2="13.1875" gradientUnits="userSpaceOnUse">
<stop stop-color="#26A378"/>
<stop offset="1" stop-color="#6B84FE"/>
</linearGradient>
<clipPath id="clip0_1302_391">
<rect width="32" height="32" fill="white"/>
</clipPath>
</defs>
</svg>
