<svg width="750" height="828" viewBox="0 0 750 828" fill="none" xmlns="http://www.w3.org/2000/svg">
<path d="M0 188.523L76.5361 630.883L188.607 560.725C188.607 560.725 426.188 372.118 543.497 369.385C677.663 366.424 680.624 318.589 680.624 318.589L639.167 78.0467L0 188.523Z" fill="url(#paint0_linear_811_5)"/>
<path d="M639.096 78.0383L0.0576172 188.479L18.0571 292.629L657.095 182.188L639.096 78.0383Z" fill="#80DEEA"/>
<path d="M110.476 827.691L749.415 717.215L680.624 318.817C680.624 318.817 677.663 366.652 543.497 369.613C426.187 372.119 188.606 560.953 188.606 560.953L76.5356 631.111L110.476 827.691Z" fill="white"/>
<path d="M680.625 318.589C656.479 374.397 507.963 217.68 507.963 217.68C366.736 352.074 31.207 641.362 31.207 641.362C40.3185 667.102 97.7205 658.901 168.562 621.772C323.912 540.225 530.058 425.193 610.011 378.725C670.83 343.418 680.169 327.473 681.08 321.55L680.625 318.589Z" fill="url(#paint1_linear_811_5)"/>
<path opacity="0.64" d="M355.346 226.336C354.435 229.525 356.485 220.641 354.207 226.108C353.98 223.602 351.93 226.336 350.791 225.197C350.563 220.641 347.602 223.602 345.552 223.83C342.818 225.425 340.996 223.375 338.718 222.008C336.212 221.097 333.479 220.641 330.745 219.958C326.645 223.83 324.595 220.186 322.09 217.68C318.901 217.908 315.484 218.591 312.978 215.174C308.878 218.591 309.334 204.241 303.867 212.669C301.589 209.252 298.855 207.657 295.211 210.391C292.022 211.302 289.744 209.024 287.238 208.341C283.594 211.758 282.455 207.202 280.405 206.518C277.216 209.707 277.671 201.052 275.166 205.152C274.71 200.824 272.66 203.557 271.749 204.241C271.293 202.874 269.699 206.518 270.61 204.013C270.61 204.241 270.154 205.835 270.838 203.329C270.61 203.785 271.293 201.279 271.293 201.735C273.571 193.307 271.066 202.646 271.977 199.002C272.66 196.268 271.977 199.001 272.888 195.357C273.799 191.712 273.343 193.762 274.027 190.801C274.71 188.523 274.938 187.384 275.393 185.334C276.077 182.373 276.532 181.006 276.988 179.184C277.444 177.362 278.127 174.856 278.81 172.351C279.266 170.528 279.949 168.023 280.86 164.834C281.544 162.556 282.227 159.595 282.91 156.861C291.338 125.654 302.272 84.653 310.928 52.5351C311.611 50.0295 312.295 47.7516 312.978 45.246C313.661 42.9681 315.484 35.679 314.8 38.4124C316.395 32.49 315.484 35.679 316.623 32.0344C317.989 27.2509 317.534 29.0732 318.217 26.112C319.356 21.784 319.812 20.6451 319.584 20.6451C319.812 19.5062 321.406 13.8115 320.951 15.6338C322.773 8.57245 320.723 16.545 322.09 11.3059C322.773 8.57244 321.406 13.5837 323.001 7.6613C323.001 7.43352 323.456 5.83902 323.684 4.70009C323.228 6.52238 324.823 0.372158 324.367 2.65002C323.684 5.61123 325.734 -2.36128 324.823 1.2833C324.367 3.33337 323.229 7.20573 325.051 0.827723C324.823 1.73887 325.506 1.05551 326.19 1.05551C326.873 1.73887 328.695 -0.0834209 329.607 1.96665C330.29 5.61123 333.934 -0.766773 334.846 3.33337C338.262 -0.994559 338.718 6.0668 341.679 5.15566C346.235 -1.9057 346.007 9.25581 349.652 7.20574C354.891 -1.45013 354.891 10.6225 358.308 9.4836C361.952 7.66131 361.269 22.2396 367.419 11.9892C371.975 6.97795 375.391 6.29459 376.53 14.4949C380.631 11.0781 382.908 13.8115 385.186 16.7727C388.831 14.2671 389.059 24.0619 393.159 18.8228C396.348 17.0005 396.803 24.2897 399.992 20.6451C402.726 18.595 405.231 16.7727 405.231 22.0118C408.42 16.0894 409.559 16.545 408.648 22.923C407.965 28.8454 410.471 20.8729 409.787 23.1508C409.787 23.1508 409.787 23.6063 409.559 23.6063C408.876 25.8842 410.243 20.6451 409.104 24.973C410.015 21.1007 410.698 19.5062 408.42 27.2509C407.281 31.8066 407.965 29.301 407.737 30.2121C407.054 32.7178 407.965 29.301 406.826 33.8567C406.37 35.679 407.282 32.2622 405.687 38.1846C405.231 40.0069 405.915 37.5013 404.32 43.1959C404.093 44.3348 402.498 50.2573 402.726 48.6628C400.903 55.7241 403.181 47.2961 401.131 54.813C400.22 58.002 400.676 56.4075 399.309 61.4188C399.309 61.191 397.259 68.9357 397.487 68.2524C397.259 68.9357 395.892 74.1748 395.437 75.5415C394.753 78.0472 394.07 80.5528 393.387 83.0584C384.275 116.771 373.341 157.544 365.369 187.157C364.686 189.662 364.002 192.168 363.319 194.674C362.635 196.951 361.952 199.913 361.497 201.507C358.991 211.074 360.813 204.241 359.902 207.657C360.358 206.291 358.308 213.58 358.535 213.124C358.308 214.263 356.941 219.047 357.396 217.68C356.03 222.919 359.219 210.619 356.485 221.325C356.713 220.641 356.485 221.552 355.802 224.058C355.119 226.791 354.435 228.841 355.346 225.652C354.435 229.297 355.802 224.969 355.346 226.336Z" fill="#CFD8DC"/>
<path d="M143.365 716.95C141.71 717.466 140.46 718.467 139.616 719.952C138.816 721.426 138.37 722.998 138.278 724.667C138.175 726.292 138.326 727.9 138.732 729.49C139.137 731.079 139.758 732.591 140.593 734.024C141.473 735.445 142.639 736.606 144.092 737.506C145.533 738.361 147.103 738.619 148.804 738.279L170.663 732.705C173.513 732.261 175.425 733.396 176.399 736.11C176.67 737.358 176.471 738.514 175.802 739.578C175.121 740.599 174.163 741.266 172.926 741.582L151.796 746.97L148.749 747.747C145.613 748.358 142.775 747.835 140.236 746.178C137.686 744.477 135.614 742.348 134.022 739.791C132.473 737.223 131.328 734.482 130.584 731.567C130.033 729.403 129.729 727.2 129.675 724.956C129.62 722.713 129.858 720.512 130.39 718.354C130.954 716.141 131.923 714.13 133.296 712.322C134.713 710.503 136.542 709.284 138.783 708.665L140.042 708.344L162.961 702.5C165.81 702.056 167.722 703.191 168.697 705.905C169.012 707.142 168.813 708.298 168.1 709.373C167.419 710.393 166.461 711.061 165.224 711.376L143.365 716.95ZM209.196 690.71C211.46 690.18 213.649 690.374 215.765 691.293C217.88 692.211 219.71 693.485 221.254 695.114C222.842 696.731 224.171 698.532 225.242 700.517C226.312 702.501 227.129 704.597 227.692 706.805C228.435 709.72 228.703 712.709 228.497 715.771C228.323 718.778 227.474 721.629 225.95 724.322C224.471 727.004 222.208 728.827 219.162 729.792L196.044 735.687C192.919 736.342 190.043 735.853 187.416 734.218C184.788 732.584 182.673 730.466 181.069 727.865C179.509 725.253 178.358 722.489 177.615 719.575C176.871 716.66 176.587 713.699 176.76 710.692C176.923 707.641 177.744 704.774 179.224 702.092C180.736 699.355 183.021 697.526 186.078 696.605L187.337 696.284L207.938 691.031L209.196 690.71ZM214.646 721.49C216.302 720.974 217.535 720.001 218.346 718.571C219.19 717.086 219.658 715.509 219.75 713.839C219.842 712.17 219.685 710.54 219.279 708.95C218.874 707.361 218.215 705.883 217.302 704.516C216.422 703.095 215.278 701.928 213.87 701.018C212.462 700.107 210.908 699.821 209.207 700.161L190.395 704.958C188.74 705.474 187.512 706.469 186.712 707.943C185.912 709.417 185.444 710.994 185.308 712.675C185.205 714.3 185.357 715.907 185.762 717.497C186.167 719.087 186.81 720.593 187.69 722.014C188.57 723.436 189.714 724.602 191.122 725.513C192.563 726.369 194.134 726.626 195.834 726.287L214.646 721.49ZM243.516 680.054C245.062 679.66 246.631 679.542 248.223 679.701C249.86 679.848 251.492 680.254 253.12 680.921C253.397 681.085 253.696 681.244 254.017 681.398C254.182 681.12 254.368 680.838 254.577 680.549C255.687 679.185 256.903 678.052 258.225 677.15C259.592 676.237 261.025 675.589 262.527 675.207C264.072 674.812 265.641 674.695 267.234 674.853C268.87 675 270.486 675.434 272.081 676.156C273.709 676.823 275.251 677.888 276.705 679.351C278.204 680.803 279.258 682.722 279.866 685.106L285.964 709.019C286.374 711.736 285.283 713.543 282.69 714.439C281.453 714.754 280.27 714.633 279.14 714.074C278.043 713.461 277.336 712.535 277.021 711.299L271.059 687.916C270.788 686.857 270.365 686.024 269.787 685.419C269.198 684.769 268.61 684.308 268.023 684.034C267.425 683.717 266.838 683.537 266.263 683.495C265.677 683.41 265.119 683.435 264.589 683.57C264.059 683.705 263.557 683.95 263.084 684.306C262.643 684.607 262.236 685.04 261.863 685.605C261.478 686.126 261.183 686.813 260.977 687.665C260.76 688.473 260.764 689.413 260.99 690.484L266.953 713.866C267.363 716.584 266.272 718.39 263.679 719.287C262.442 719.602 261.259 719.48 260.129 718.922C259.032 718.308 258.326 717.383 258.01 716.147L252.048 692.764C251.778 691.704 251.354 690.872 250.776 690.266C250.187 689.617 249.599 689.156 249.012 688.882C248.414 688.564 247.827 688.385 247.252 688.343C246.666 688.257 246.108 688.282 245.578 688.417C245.048 688.552 244.546 688.798 244.073 689.154C243.632 689.454 243.225 689.887 242.852 690.453C242.467 690.974 242.172 691.661 241.966 692.513C241.749 693.321 241.753 694.26 241.979 695.331L247.942 718.714C248.397 721.42 247.328 723.221 244.734 724.117C243.498 724.433 242.314 724.311 241.184 723.753C240.087 723.139 239.381 722.214 239.066 720.977L232.968 697.065C232.448 694.658 232.477 692.463 233.053 690.482C233.63 688.501 234.473 686.828 235.583 685.463C236.682 684.054 237.892 682.899 239.214 681.998C240.581 681.085 242.015 680.437 243.516 680.054ZM292.682 706.318C292.367 705.081 292.522 703.937 293.147 702.884C293.805 701.775 294.752 701.063 295.989 700.748L308.707 697.505L303.268 676.176L290.55 679.419C289.313 679.734 288.163 679.557 287.099 678.888C286.002 678.274 285.295 677.349 284.98 676.113C284.665 674.876 284.82 673.731 285.445 672.678C286.103 671.57 287.05 670.858 288.286 670.543L322.599 661.793C323.835 661.478 325.002 661.627 326.099 662.241C327.163 662.91 327.853 663.863 328.168 665.1C328.484 666.336 328.312 667.509 327.654 668.617C327.029 669.67 326.098 670.354 324.862 670.67L312.21 673.896L317.649 695.225L330.301 691.999C331.537 691.683 332.704 691.833 333.801 692.447C334.866 693.116 335.555 694.069 335.871 695.305C336.186 696.542 336.015 697.714 335.357 698.822C334.731 699.875 333.801 700.56 332.564 700.875L298.252 709.624C297.016 709.94 295.865 709.763 294.801 709.093C293.704 708.479 292.998 707.554 292.682 706.318ZM354.534 651.745C356.83 651.16 359.15 650.85 361.493 650.817C363.88 650.773 366.225 651.022 368.526 651.564C370.817 652.061 372.954 652.974 374.939 654.302C376.968 655.619 378.353 657.453 379.093 659.804L379.803 662.586L385.191 683.716C385.601 686.434 384.51 688.24 381.917 689.137C380.68 689.452 379.497 689.331 378.367 688.772C377.27 688.158 376.564 687.233 376.248 685.997L370.674 664.138C370.237 662.791 369.42 661.8 368.223 661.165C367.059 660.474 365.814 660.015 364.486 659.79C363.203 659.552 361.887 659.465 360.539 659.526C359.235 659.577 357.943 659.765 356.662 660.092C355.381 660.418 354.135 660.877 352.922 661.469C351.753 662.049 350.64 662.756 349.582 663.59C348.569 664.413 347.695 665.412 346.96 666.587C346.258 667.706 346.037 668.962 346.298 670.353L351.872 692.212C352.327 694.918 351.258 696.72 348.664 697.616C347.428 697.931 346.245 697.81 345.115 697.251C344.018 696.637 343.311 695.712 342.996 694.476L337.608 673.345L336.898 670.563C336.423 668.145 336.738 665.877 337.845 663.761C338.951 661.645 340.391 659.82 342.163 658.286C343.924 656.708 345.841 655.373 347.914 654.28C350.031 653.176 352.238 652.331 354.534 651.745ZM397.052 642.808L425.005 635.68C426.253 635.409 427.387 635.614 428.407 636.294C429.471 636.964 430.161 637.916 430.476 639.153C430.931 641.859 429.862 643.66 427.269 644.556L401.568 651.11C399.912 651.626 398.684 652.621 397.884 654.095C397.084 655.569 396.617 657.146 396.481 658.827C396.378 660.452 396.529 662.06 396.934 663.65C397.34 665.239 397.982 666.745 398.862 668.167C399.775 669.533 400.936 670.672 402.344 671.582C403.752 672.493 405.306 672.779 407.006 672.439L427.143 667.304C427.927 667.058 428.234 666.509 428.064 665.659L427.084 661.817C426.815 660.945 426.283 660.61 425.488 660.813L408.531 665.137C407.294 665.452 406.127 665.303 405.03 664.689C403.966 664.02 403.276 663.067 402.961 661.831C402.646 660.594 402.795 659.427 403.409 658.33C404.078 657.266 405.031 656.576 406.267 656.261L428.921 650.484C430.158 650.169 431.325 650.318 432.422 650.932C433.431 651.568 434.109 652.477 434.457 653.658L434.491 653.791L438.444 669.291C438.703 670.494 438.537 671.595 437.945 672.592C437.32 673.645 436.417 674.346 435.236 674.694L407.018 681.89C403.881 682.501 401.022 681.984 398.439 680.338C395.888 678.637 393.817 676.508 392.224 673.951C390.676 671.383 389.53 668.642 388.787 665.727C388.044 662.813 387.759 659.852 387.933 656.844C388.107 653.837 388.911 650.998 390.347 648.328C391.771 645.613 394.006 643.773 397.052 642.808ZM515.693 617.282C516.008 618.519 515.832 619.669 515.162 620.733C514.548 621.83 513.623 622.537 512.387 622.852L485.891 629.608C485.063 629.866 484.407 630.245 483.923 630.745C483.472 631.189 483.17 631.666 483.018 632.175C482.854 632.64 482.829 633.093 482.942 633.535C483.054 633.976 483.299 634.384 483.677 634.758C484.043 635.088 484.536 635.362 485.156 635.58C485.809 635.743 486.561 635.739 487.411 635.57L506.223 630.773C509.337 630.073 512.062 630.154 514.398 631.016C516.767 631.823 518.597 633.003 519.886 634.555C521.208 636.052 522.1 637.706 522.562 639.516C523.013 641.283 523.021 643.162 522.589 645.153C522.145 647.101 521.103 649.012 519.465 650.888C517.816 652.72 515.446 654.03 512.354 654.818L511.957 654.919C511.703 655.031 511.444 655.12 511.179 655.188L486.14 661.573C484.904 661.888 483.737 661.739 482.64 661.125C481.576 660.456 480.886 659.503 480.571 658.266C480.255 657.03 480.432 655.88 481.102 654.815C481.715 653.718 482.641 653.012 483.877 652.697L510.505 645.907C511.356 645.737 512.001 645.408 512.441 644.919C512.925 644.42 513.243 643.915 513.395 643.406C513.536 642.853 513.545 642.333 513.421 641.847C513.342 641.538 513.103 641.153 512.703 640.69C512.291 640.184 511.754 639.827 511.089 639.62C510.469 639.402 509.734 639.378 508.884 639.548L490.072 644.344C486.958 645.044 484.217 644.991 481.848 644.184C479.523 643.366 477.704 642.231 476.393 640.778C475.115 639.269 474.251 637.632 473.8 635.866C473.361 634.143 473.369 632.331 473.825 630.427C474.269 628.48 475.315 626.591 476.965 624.759C478.614 622.927 480.973 621.573 484.042 620.697L484.439 620.596C484.693 620.484 484.952 620.394 485.217 620.327L510.123 613.976C511.36 613.66 512.51 613.837 513.575 614.507C514.672 615.12 515.378 616.046 515.693 617.282ZM558.677 601.595C560.941 601.065 563.13 601.259 565.246 602.177C567.361 603.096 569.191 604.37 570.735 605.998C572.323 607.616 573.652 609.416 574.723 611.401C575.793 613.386 576.61 615.482 577.173 617.69C577.916 620.604 578.184 623.593 577.978 626.656C577.804 629.663 576.955 632.513 575.431 635.206C573.952 637.888 571.689 639.711 568.643 640.676L545.525 646.571C542.4 647.227 539.524 646.737 536.897 645.103C534.269 643.468 532.154 641.35 530.55 638.749C528.99 636.137 527.839 633.374 527.096 630.459C526.352 627.545 526.068 624.584 526.242 621.576C526.404 618.525 527.225 615.658 528.705 612.977C530.217 610.239 532.502 608.41 535.56 607.49L536.818 607.169L557.419 601.916L558.677 601.595ZM564.127 632.374C565.783 631.858 567.016 630.885 567.827 629.456C568.672 627.971 569.139 626.393 569.231 624.724C569.323 623.054 569.166 621.425 568.76 619.835C568.355 618.245 567.696 616.767 566.783 615.401C565.903 613.979 564.759 612.813 563.351 611.902C561.943 610.991 560.389 610.706 558.688 611.045L539.876 615.842C538.221 616.358 536.993 617.353 536.193 618.827C535.393 620.301 534.925 621.878 534.789 623.559C534.686 625.184 534.838 626.792 535.243 628.382C535.648 629.971 536.291 631.477 537.171 632.899C538.051 634.321 539.195 635.487 540.603 636.398C542.044 637.253 543.615 637.511 545.315 637.171L564.127 632.374ZM614.981 587.238C617.244 586.708 619.434 586.902 621.549 587.82C623.665 588.739 625.495 590.012 627.039 591.641C628.627 593.258 629.956 595.059 631.027 597.044C632.097 599.028 632.914 601.125 633.477 603.333C634.22 606.247 634.488 609.236 634.281 612.299C634.108 615.306 633.259 618.156 631.735 620.849C630.256 623.531 627.993 625.354 624.947 626.319L601.829 632.214C598.704 632.87 595.828 632.38 593.2 630.746C590.573 629.111 588.458 626.993 586.854 624.392C585.294 621.78 584.143 619.017 583.399 616.102C582.656 613.188 582.372 610.227 582.545 607.219C582.708 604.168 583.529 601.301 585.008 598.619C586.521 595.882 588.806 594.053 591.863 593.133L593.122 592.812L613.722 587.559L614.981 587.238ZM620.431 618.017C622.087 617.501 623.32 616.528 624.131 615.098C624.975 613.613 625.443 612.036 625.535 610.367C625.626 608.697 625.47 607.068 625.064 605.478C624.659 603.888 624 602.41 623.087 601.044C622.207 599.622 621.063 598.456 619.655 597.545C618.247 596.634 616.693 596.349 614.992 596.688L596.18 601.485C594.525 602.001 593.297 602.996 592.497 604.47C591.697 605.944 591.229 607.521 591.093 609.202C590.99 610.827 591.142 612.435 591.547 614.025C591.952 615.614 592.595 617.12 593.475 618.542C594.355 619.963 595.499 621.13 596.907 622.041C598.348 622.896 599.918 623.154 601.619 622.814L620.431 618.017ZM656.388 574.774C658.685 574.189 661.005 573.879 663.348 573.846C665.735 573.802 668.079 574.051 670.381 574.593C672.671 575.09 674.809 576.003 676.794 577.331C678.823 578.648 680.207 580.482 680.948 582.833L681.657 585.615L687.045 606.745C687.456 609.462 686.365 611.269 683.771 612.166C682.535 612.481 681.352 612.359 680.222 611.801C679.124 611.187 678.418 610.262 678.103 609.026L672.529 587.166C672.092 585.82 671.275 584.829 670.078 584.194C668.914 583.503 667.668 583.044 666.341 582.818C665.058 582.581 663.742 582.494 662.394 582.555C661.09 582.605 659.797 582.794 658.517 583.12C657.236 583.447 655.989 583.906 654.776 584.498C653.607 585.078 652.494 585.785 651.437 586.619C650.424 587.442 649.55 588.44 648.815 589.616C648.113 590.735 647.892 591.991 648.153 593.382L653.727 615.241C654.182 617.947 653.112 619.748 650.519 620.645C649.283 620.96 648.099 620.839 646.969 620.28C645.872 619.666 645.166 618.741 644.851 617.505L639.462 596.374L638.753 593.592C638.277 591.174 638.593 588.906 639.699 586.79C640.806 584.674 642.245 582.849 644.018 581.315C645.779 579.737 647.696 578.402 649.768 577.309C651.886 576.205 654.092 575.36 656.388 574.774Z" fill="#0F172A"/>
<path d="M443 724C479.167 686.667 581.5 616.8 701.5 636" stroke="#FF1A51" stroke-width="3"/>
<defs>
<linearGradient id="paint0_linear_811_5" x1="392.385" y1="554.59" x2="337.039" y2="234.339" gradientUnits="userSpaceOnUse">
<stop stop-color="#80DEEA"/>
<stop offset="0.5763" stop-color="#60D5E4"/>
<stop offset="1" stop-color="#4DD0E1"/>
</linearGradient>
<linearGradient id="paint1_linear_811_5" x1="311.942" y1="400.187" x2="372.868" y2="510.987" gradientUnits="userSpaceOnUse">
<stop stop-color="#F5F5F5"/>
<stop offset="0.348" stop-color="#FEFEFE"/>
<stop offset="0.3897" stop-color="white"/>
<stop offset="0.5787" stop-color="#FCFCFC"/>
<stop offset="0.7206" stop-color="#F2F3F3"/>
<stop offset="0.8471" stop-color="#E2E3E4"/>
<stop offset="0.964" stop-color="#CCCCCE"/>
<stop offset="1" stop-color="#C3C4C6"/>
</linearGradient>
</defs>
</svg>
