<svg width="56" height="56" viewBox="0 0 56 56" fill="none" xmlns="http://www.w3.org/2000/svg">
<path d="M47.0049 3.77356H8.94044C4.96065 3.77356 1.72266 7.01091 1.72266 10.9913V34.286C1.72266 38.2574 4.94655 41.4897 8.91481 41.5038V52.0746L24.1063 41.5038H47.0049C50.9847 41.5038 54.2227 38.2658 54.2227 34.286V10.9913C54.2227 7.01091 50.9847 3.77356 47.0049 3.77356ZM51.1465 34.286C51.1465 36.5694 49.2886 38.4276 47.0049 38.4276H23.1411L11.991 46.1866V38.4276H8.94044C6.65671 38.4276 4.79883 36.5694 4.79883 34.286V10.9913C4.79883 8.70729 6.65671 6.84973 8.94044 6.84973H47.0049C49.2886 6.84973 51.1465 8.70729 51.1465 10.9913V34.286Z" fill="#6B84FE"/>
<path d="M15.7734 14.643H40.1707V17.7192H15.7734V14.643Z" fill="#6B84FE"/>
<path d="M15.7734 21.2055H40.1707V24.2817H15.7734V21.2055Z" fill="#6B84FE"/>
<path d="M15.7734 27.768H40.1707V30.8442H15.7734V27.768Z" fill="#6B84FE"/>
</svg>
