<svg width="40" height="40" viewBox="0 0 40 40" fill="none" xmlns="http://www.w3.org/2000/svg">
<path d="M34.72 6.8425L30.69 2.81125C29.7812 1.885 28.555 1.375 27.2375 1.375H8.72498C6.03748 1.375 3.84998 3.5625 3.84998 6.25V33.75C3.84998 36.4375 6.03748 38.625 8.72498 38.625H31.275C33.9625 38.625 36.15 36.4437 36.15 33.7612V10.2875C36.15 8.97125 35.64 7.745 34.72 6.8425ZM29.0925 4.39625L33.1375 8.44125C33.63 8.92375 33.9 9.58 33.9 10.2887V10.6663H28.245C27.4875 10.6663 26.87 10.05 26.87 9.29125V3.625H27.2375C27.945 3.625 28.6012 3.89625 29.0925 4.39625ZM31.275 36.375H8.72498C7.27748 36.375 6.09998 35.1987 6.09998 33.75V6.25C6.09998 4.8025 7.27748 3.625 8.72498 3.625H24.62V9.29C24.62 11.2888 26.2462 12.915 28.245 12.915H33.9V33.7625C33.9 35.2025 32.7225 36.375 31.275 36.375Z" fill="#6B84FE"/>
<path d="M27.9225 17.3899H12.0775C11.4563 17.3899 10.9525 17.8936 10.9525 18.5149C10.9525 19.1361 11.4563 19.6399 12.0775 19.6399H27.9225C28.5438 19.6399 29.0475 19.1361 29.0475 18.5149C29.0475 17.8936 28.5438 17.3899 27.9225 17.3899Z" fill="#6B84FE"/>
<path d="M27.9225 22.0537H12.0775C11.4563 22.0537 10.9525 22.5575 10.9525 23.1787C10.9525 23.8 11.4563 24.3037 12.0775 24.3037H27.9225C28.5438 24.3037 29.0475 23.8 29.0475 23.1787C29.0475 22.5575 28.5438 22.0537 27.9225 22.0537Z" fill="#6B84FE"/>
<path d="M27.9224 29.6499H24.1124C23.4912 29.6499 22.9874 30.1537 22.9874 30.7749C22.9874 31.3962 23.4912 31.8999 24.1124 31.8999H27.9224C28.5437 31.8999 29.0474 31.3962 29.0474 30.7749C29.0474 30.1537 28.5437 29.6499 27.9224 29.6499Z" fill="#6B84FE"/>
</svg>
