<svg width="40" height="40" viewBox="0 0 40 40" fill="none" xmlns="http://www.w3.org/2000/svg">
<path d="M35.294 5.6471C35.294 3.17651 33.294 1.17651 30.8235 1.17651H9.1764C6.70581 1.17651 4.70581 3.17651 4.70581 5.6471V34.353C4.70581 36.8236 6.70581 38.8236 9.1764 38.8236H30.8235C33.294 38.8236 35.294 36.8236 35.294 34.353V5.6471ZM32.9411 34.353C32.9411 35.5295 31.9999 36.4706 30.8235 36.4706H9.1764C7.99993 36.4706 7.05875 35.5295 7.05875 34.353V5.6471C7.05875 4.47063 7.99993 3.52945 9.1764 3.52945H30.8235C31.9999 3.52945 32.9411 4.47063 32.9411 5.6471V34.353Z" fill="#6B84FE"/>
<path d="M12.8234 22.3529H26.7058C27.0587 22.3529 27.4117 22.2353 27.647 21.8823C27.8823 21.647 27.9999 21.2941 27.8823 20.9412C27.4117 18.1176 25.647 15.8823 23.294 14.8235C23.9999 14 24.4705 12.9412 24.4705 11.647C24.4705 9.05881 22.3529 6.94116 19.7646 6.94116C17.1764 6.94116 15.0587 9.05881 15.0587 11.647C15.0587 12.8235 15.5293 13.8823 16.2352 14.8235C13.8823 16 11.9999 18.2353 11.647 20.9412C11.647 21.2941 11.647 21.647 11.8823 21.8823C12.1176 22.2353 12.4705 22.3529 12.8234 22.3529ZM17.4117 11.7647C17.4117 10.4706 18.4705 9.41175 19.7646 9.41175C21.0587 9.41175 22.1176 10.4706 22.1176 11.7647C22.1176 13.0588 21.0587 14.1176 19.7646 14.1176C18.4705 14.1176 17.4117 13.0588 17.4117 11.7647ZM19.7646 16.4706C22.1176 16.4706 24.2352 17.8823 25.1764 20H14.3529C15.294 17.8823 17.4117 16.4706 19.7646 16.4706Z" fill="#6B84FE"/>
<path d="M29.4116 25.8823H10.5881C9.88221 25.8823 9.41162 26.3529 9.41162 27.0588C9.41162 27.7647 9.88221 28.2353 10.5881 28.2353H29.4116C30.1175 28.2353 30.5881 27.7647 30.5881 27.0588C30.5881 26.3529 30.1175 25.8823 29.4116 25.8823Z" fill="#6B84FE"/>
<path d="M29.4116 30.5884H10.5881C9.88221 30.5884 9.41162 31.059 9.41162 31.7648C9.41162 32.4707 9.88221 32.9413 10.5881 32.9413H29.4116C30.1175 32.9413 30.5881 32.4707 30.5881 31.7648C30.5881 31.059 30.1175 30.5884 29.4116 30.5884Z" fill="#6B84FE"/>
</svg>
