<svg width="26" height="26" viewBox="0 0 26 26" fill="none" xmlns="http://www.w3.org/2000/svg">
<g clip-path="url(#clip0_439_828)">
<path d="M25.2381 25.6579H0.761713C0.341044 25.6579 0 25.3213 0 24.9062C0 24.4911 0.341044 24.1545 0.761713 24.1545H25.2381C25.6588 24.1545 25.9998 24.4911 25.9998 24.9062C25.9998 25.3213 25.6588 25.6579 25.2381 25.6579Z" fill="#6B84FE"/>
<path d="M5.38278 25.6579H2.33593C1.91526 25.6579 1.57422 25.3213 1.57422 24.9062V19.3938C1.57422 18.703 2.14373 18.141 2.84374 18.141H4.87497C5.57499 18.141 6.1445 18.703 6.1445 19.3938V24.9062C6.1445 25.3213 5.80345 25.6579 5.38278 25.6579ZM3.09764 24.1545H4.62107V19.6444H3.09764V24.1545Z" fill="#6B84FE"/>
<path d="M11.4765 25.6579H8.42968C8.00901 25.6579 7.66797 25.3213 7.66797 24.9062V17.5898C7.66797 16.899 8.23748 16.3369 8.93749 16.3369H10.9687C11.6687 16.3369 12.2382 16.899 12.2382 17.5898V24.9062C12.2382 25.3213 11.8972 25.6579 11.4765 25.6579ZM9.19139 24.1545H10.7148V17.8403H9.19139V24.1545Z" fill="#6B84FE"/>
<path d="M17.5703 25.6579H14.5234C14.1028 25.6579 13.7617 25.3214 13.7617 24.9062V14.8336C13.7617 14.1428 14.3312 13.5807 15.0312 13.5807H17.0625C17.7625 13.5807 18.332 14.1428 18.332 14.8336V24.9062C18.332 25.3214 17.991 25.6579 17.5703 25.6579ZM15.2851 24.1545H16.8086V15.0841H15.2851V24.1545Z" fill="#6B84FE"/>
<path d="M23.6638 25.6579H20.6169C20.1963 25.6579 19.8552 25.3213 19.8552 24.9062V9.82228C19.8552 9.13147 20.4247 8.56946 21.1247 8.56946H23.156C23.856 8.56946 24.4255 9.13147 24.4255 9.82228V24.9062C24.4255 25.3213 24.0845 25.6579 23.6638 25.6579ZM21.3787 24.1545H22.9021V10.0728H21.3787V24.1545Z" fill="#6B84FE"/>
<path d="M0.761713 16.1518C0.341044 16.1518 0 15.8152 0 15.4001C0 14.9849 0.341044 14.6484 0.761713 14.6484C5.24089 14.6484 10.1178 13.0388 14.4939 10.116C18.5199 7.42724 21.7279 3.90232 23.2954 0.445094C23.4673 0.0661419 23.9178 -0.10364 24.3018 0.0659916C24.6858 0.235523 24.8578 0.680173 24.6859 1.05912C23.0058 4.76481 19.6022 8.51975 15.3478 11.3611C10.7222 14.4504 5.54207 16.1518 0.761713 16.1518Z" fill="#6B84FE"/>
<path d="M25.2375 6.0976C24.9012 6.0976 24.5934 5.8761 24.5023 5.54024L23.4521 1.6725L19.5328 2.70888C19.1263 2.81642 18.7087 2.57838 18.5999 2.17738C18.491 1.77638 18.7321 1.3642 19.1385 1.25676L23.7935 0.0258441C24.2 -0.0816476 24.6176 0.156388 24.7264 0.557339L25.9738 5.15117C26.0826 5.55217 25.8415 5.96435 25.4352 6.07179C25.3691 6.08923 25.3028 6.0976 25.2375 6.0976Z" fill="#6B84FE"/>
</g>
<defs>
<clipPath id="clip0_439_828">
<rect width="26" height="25.6579" fill="white"/>
</clipPath>
</defs>
</svg>
