<svg width="18" height="18" viewBox="0 0 18 18" fill="none" xmlns="http://www.w3.org/2000/svg">
<path d="M16.7093 9.39763L14.4593 11.6476C14.2393 11.8676 13.8838 11.8676 13.6639 11.6476C13.444 11.4277 13.444 11.0722 13.6639 10.8523L14.9537 9.56244H9.56159V14.9546L10.8514 13.6648C11.0713 13.4448 11.4268 13.4448 11.6468 13.6648C11.8667 13.8847 11.8667 14.2402 11.6468 14.4601L9.39677 16.7101C9.18415 16.9233 8.82696 16.9363 8.60084 16.7101L6.35084 14.4601C6.1309 14.2402 6.1309 13.8847 6.35084 13.6648C6.57077 13.4448 6.92627 13.4448 7.14621 13.6648L8.43659 14.9546V9.56244H3.04446L4.33427 10.8523C4.55421 11.0722 4.55421 11.4277 4.33427 11.6476C4.11434 11.8676 3.75884 11.8676 3.5389 11.6476L1.2889 9.39763C1.07121 9.17994 1.06952 8.82107 1.2889 8.60169L3.5389 6.35169C3.75884 6.13175 4.11434 6.13175 4.33427 6.35169C4.55421 6.57163 4.55421 6.92713 4.33427 7.14707L3.04446 8.43744H8.43659V3.04532L7.14677 4.33513C6.92684 4.55507 6.57134 4.55507 6.3514 4.33513C6.13146 4.11519 6.13146 3.75969 6.3514 3.53975L8.6014 1.28975C8.81909 1.07207 9.17796 1.07038 9.39734 1.28975L11.6473 3.53975C11.8673 3.75969 11.8673 4.11519 11.6473 4.33513C11.5371 4.44482 11.3931 4.49994 11.2491 4.49994C11.1051 4.49994 10.9611 4.44482 10.8514 4.33513L9.56159 3.04532V8.43744H14.9537L13.6639 7.14763C13.444 6.92769 13.444 6.57219 13.6639 6.35225C13.8838 6.13232 14.2393 6.13232 14.4593 6.35225L16.7093 8.60225C16.9286 8.82107 16.927 9.1805 16.7093 9.39763Z" fill="#989898"/>
</svg>
