<svg width="20" height="20" viewBox="0 0 20 20" fill="none" xmlns="http://www.w3.org/2000/svg">
<path d="M16.6666 12.7084C16.8323 12.7084 16.9913 12.7742 17.1085 12.8914C17.2257 13.0086 17.2916 13.1676 17.2916 13.3334V14.1667C17.2916 14.9955 16.9623 15.7904 16.3763 16.3764C15.7902 16.9625 14.9954 17.2917 14.1666 17.2917H5.83325C5.00445 17.2917 4.20959 16.9625 3.62354 16.3764C3.03749 15.7904 2.70825 14.9955 2.70825 14.1667V13.3367C2.70825 13.1709 2.7741 13.012 2.89131 12.8948C3.00852 12.7776 3.16749 12.7117 3.33325 12.7117C3.49901 12.7117 3.65798 12.7776 3.77519 12.8948C3.8924 13.012 3.95825 13.1709 3.95825 13.3367V14.1667C3.95825 14.664 4.1558 15.1409 4.50743 15.4925C4.85906 15.8442 5.33597 16.0417 5.83325 16.0417H14.1666C14.6639 16.0417 15.1408 15.8442 15.4924 15.4925C15.844 15.1409 16.0416 14.664 16.0416 14.1667V13.3334C16.0416 13.1676 16.1074 13.0086 16.2246 12.8914C16.3419 12.7742 16.5008 12.7084 16.6666 12.7084Z" fill="#FF8C40"/>
<path d="M10.6249 3.75C10.6249 3.58424 10.559 3.42527 10.4418 3.30806C10.3246 3.19085 10.1656 3.125 9.99986 3.125C9.8341 3.125 9.67513 3.19085 9.55792 3.30806C9.44071 3.42527 9.37486 3.58424 9.37486 3.75V9.55833H6.64152C6.52448 9.67552 6.45874 9.83437 6.45874 10C6.45874 10.1656 6.52448 10.3245 6.64152 10.4417L9.55819 13.3583C9.67538 13.4754 9.83423 13.5411 9.99986 13.5411C10.1655 13.5411 10.3243 13.4754 10.4415 13.3583L13.3582 10.4417C13.4752 10.3245 13.541 10.1656 13.541 10C13.541 9.83437 13.4752 9.67552 13.3582 9.55833H10.6249V3.75Z" fill="#FF8C40"/>
</svg>
