<svg width="56" height="56" viewBox="0 0 56 56" fill="none" xmlns="http://www.w3.org/2000/svg">
<g clip-path="url(#clip0_1074_2)">
<path d="M34.486 32.0186C33.8028 31.3354 32.695 31.3354 32.0118 32.0186L29.7497 34.2807V23.6332C29.7497 22.667 28.9665 21.8837 28.0002 21.8837C27.034 21.8837 26.2506 22.667 26.2506 23.6332V34.2806L23.9887 32.0186C23.3054 31.3354 22.1977 31.3354 21.5144 32.0186C20.8312 32.7019 20.8312 33.8096 21.5144 34.4929C27.156 40.1346 26.8809 39.9345 27.3306 40.1208C27.9752 40.388 28.7301 40.2489 29.2373 39.7416L34.486 34.4929C35.1693 33.8097 35.1693 32.7019 34.486 32.0186Z" fill="#6B84FE"/>
<path d="M36.7471 47.2522H19.2515C18.2853 47.2522 17.502 46.4689 17.502 45.5027C17.502 44.5365 18.2853 43.7531 19.2515 43.7531H36.7471C37.7134 43.7531 38.4966 44.5365 38.4966 45.5027C38.4966 46.4689 37.7134 47.2522 36.7471 47.2522Z" fill="#6B84FE"/>
<path d="M48.9939 17.4843C48.9868 17.0149 48.795 16.585 48.4821 16.2722C31.7534 -0.456517 32.6773 0.40995 32.3248 0.221217C31.7597 -0.0810189 33.3553 0.0143319 10.8057 0.0143319C8.71047 0.0143319 7.00586 1.71895 7.00586 3.81415V52.2003C7.00586 54.2955 8.71047 56.0001 10.8057 56.0001H45.1954C47.2906 56.0001 48.9952 54.2955 48.9952 52.2003C48.9952 51.7303 48.9959 17.6249 48.9939 17.4843ZM33.2492 15.4595V5.98764L43.0219 15.7603C32.8559 15.7603 33.5358 15.7637 33.4893 15.7542C33.3524 15.7261 33.2492 15.6046 33.2492 15.4595ZM45.4961 52.2002C45.4961 52.3661 45.3613 52.5009 45.1954 52.5009H10.8057C10.6398 52.5009 10.505 52.3661 10.505 52.2002V3.81404C10.505 3.64816 10.6398 3.51333 10.8057 3.51333H29.7501V15.4595C29.7501 17.5547 31.4547 19.2593 33.5499 19.2593H45.4961V52.2002Z" fill="#6B84FE"/>
</g>
<defs>
<clipPath id="clip0_1074_2">
<rect width="56" height="56" fill="white"/>
</clipPath>
</defs>
</svg>
