<svg width="437" height="331" viewBox="0 0 437 331" fill="none" xmlns="http://www.w3.org/2000/svg">
<g filter="url(#filter0_d_439_761)">
<rect x="104" y="97" width="262" height="123" rx="20.6527" fill="white"/>
</g>
<rect x="116.5" y="114.5" width="71" height="23" rx="11.5" fill="white" stroke="#DADADA"/>
<path d="M130.652 121.636V122.524H127.016V125.344H129.968V126.232H127.016V130H125.924V121.636H130.652ZM137.803 123.424V130H136.711V129.028C136.503 129.364 136.211 129.628 135.835 129.82C135.467 130.004 135.059 130.096 134.611 130.096C134.099 130.096 133.639 129.992 133.231 129.784C132.823 129.568 132.499 129.248 132.259 128.824C132.027 128.4 131.911 127.884 131.911 127.276V123.424H132.991V127.132C132.991 127.78 133.155 128.28 133.483 128.632C133.811 128.976 134.259 129.148 134.827 129.148C135.411 129.148 135.871 128.968 136.207 128.608C136.543 128.248 136.711 127.724 136.711 127.036V123.424H137.803ZM140.739 121.12V130H139.647V121.12H140.739ZM143.692 121.12V130H142.6V121.12H143.692ZM150.113 125.14V126.064H145.325V125.14H150.113ZM153.494 124.324V128.2C153.494 128.52 153.562 128.748 153.698 128.884C153.834 129.012 154.07 129.076 154.406 129.076H155.21V130H154.226C153.618 130 153.162 129.86 152.858 129.58C152.554 129.3 152.402 128.84 152.402 128.2V124.324H151.55V123.424H152.402V121.768H153.494V123.424H155.21V124.324H153.494ZM157.097 122.356C156.889 122.356 156.713 122.284 156.569 122.14C156.425 121.996 156.353 121.82 156.353 121.612C156.353 121.404 156.425 121.228 156.569 121.084C156.713 120.94 156.889 120.868 157.097 120.868C157.297 120.868 157.465 120.94 157.601 121.084C157.745 121.228 157.817 121.404 157.817 121.612C157.817 121.82 157.745 121.996 157.601 122.14C157.465 122.284 157.297 122.356 157.097 122.356ZM157.625 123.424V130H156.533V123.424H157.625ZM167.395 123.304C167.907 123.304 168.363 123.412 168.763 123.628C169.163 123.836 169.479 124.152 169.711 124.576C169.943 125 170.059 125.516 170.059 126.124V130H168.979V126.28C168.979 125.624 168.815 125.124 168.487 124.78C168.167 124.428 167.731 124.252 167.179 124.252C166.611 124.252 166.159 124.436 165.823 124.804C165.487 125.164 165.319 125.688 165.319 126.376V130H164.239V126.28C164.239 125.624 164.075 125.124 163.747 124.78C163.427 124.428 162.991 124.252 162.439 124.252C161.871 124.252 161.419 124.436 161.083 124.804C160.747 125.164 160.579 125.688 160.579 126.376V130H159.487V123.424H160.579V124.372C160.795 124.028 161.083 123.764 161.443 123.58C161.811 123.396 162.215 123.304 162.655 123.304C163.207 123.304 163.695 123.428 164.119 123.676C164.543 123.924 164.859 124.288 165.067 124.768C165.251 124.304 165.555 123.944 165.979 123.688C166.403 123.432 166.875 123.304 167.395 123.304ZM177.85 126.46C177.85 126.668 177.838 126.888 177.814 127.12H172.558C172.598 127.768 172.818 128.276 173.218 128.644C173.626 129.004 174.118 129.184 174.694 129.184C175.166 129.184 175.558 129.076 175.87 128.86C176.19 128.636 176.414 128.34 176.542 127.972H177.718C177.542 128.604 177.19 129.12 176.662 129.52C176.134 129.912 175.478 130.108 174.694 130.108C174.07 130.108 173.51 129.968 173.014 129.688C172.526 129.408 172.142 129.012 171.862 128.5C171.582 127.98 171.442 127.38 171.442 126.7C171.442 126.02 171.578 125.424 171.85 124.912C172.122 124.4 172.502 124.008 172.99 123.736C173.486 123.456 174.054 123.316 174.694 123.316C175.318 123.316 175.87 123.452 176.35 123.724C176.83 123.996 177.198 124.372 177.454 124.852C177.718 125.324 177.85 125.86 177.85 126.46ZM176.722 126.232C176.722 125.816 176.63 125.46 176.446 125.164C176.262 124.86 176.01 124.632 175.69 124.48C175.378 124.32 175.03 124.24 174.646 124.24C174.094 124.24 173.622 124.416 173.23 124.768C172.846 125.12 172.626 125.608 172.57 126.232H176.722Z" fill="#0F172A"/>
<rect x="194.5" y="114.5" width="63" height="23" rx="11.5" fill="white" stroke="#DADADA"/>
<path d="M207.328 130L205.336 126.58H204.016V130H202.924V121.636H205.624C206.256 121.636 206.788 121.744 207.22 121.96C207.66 122.176 207.988 122.468 208.204 122.836C208.42 123.204 208.528 123.624 208.528 124.096C208.528 124.672 208.36 125.18 208.024 125.62C207.696 126.06 207.2 126.352 206.536 126.496L208.636 130H207.328ZM204.016 125.704H205.624C206.216 125.704 206.66 125.56 206.956 125.272C207.252 124.976 207.4 124.584 207.4 124.096C207.4 123.6 207.252 123.216 206.956 122.944C206.668 122.672 206.224 122.536 205.624 122.536H204.016V125.704ZM216.225 126.46C216.225 126.668 216.213 126.888 216.189 127.12H210.933C210.973 127.768 211.193 128.276 211.593 128.644C212.001 129.004 212.493 129.184 213.069 129.184C213.541 129.184 213.933 129.076 214.245 128.86C214.565 128.636 214.789 128.34 214.917 127.972H216.093C215.917 128.604 215.565 129.12 215.037 129.52C214.509 129.912 213.853 130.108 213.069 130.108C212.445 130.108 211.885 129.968 211.389 129.688C210.901 129.408 210.517 129.012 210.237 128.5C209.957 127.98 209.817 127.38 209.817 126.7C209.817 126.02 209.953 125.424 210.225 124.912C210.497 124.4 210.877 124.008 211.365 123.736C211.861 123.456 212.429 123.316 213.069 123.316C213.693 123.316 214.245 123.452 214.725 123.724C215.205 123.996 215.573 124.372 215.829 124.852C216.093 125.324 216.225 125.86 216.225 126.46ZM215.097 126.232C215.097 125.816 215.005 125.46 214.821 125.164C214.637 124.86 214.385 124.632 214.065 124.48C213.753 124.32 213.405 124.24 213.021 124.24C212.469 124.24 211.997 124.416 211.605 124.768C211.221 125.12 211.001 125.608 210.945 126.232H215.097ZM225.574 123.304C226.086 123.304 226.542 123.412 226.942 123.628C227.342 123.836 227.658 124.152 227.89 124.576C228.122 125 228.238 125.516 228.238 126.124V130H227.158V126.28C227.158 125.624 226.994 125.124 226.666 124.78C226.346 124.428 225.91 124.252 225.358 124.252C224.79 124.252 224.338 124.436 224.002 124.804C223.666 125.164 223.498 125.688 223.498 126.376V130H222.418V126.28C222.418 125.624 222.254 125.124 221.926 124.78C221.606 124.428 221.17 124.252 220.618 124.252C220.05 124.252 219.598 124.436 219.262 124.804C218.926 125.164 218.758 125.688 218.758 126.376V130H217.666V123.424H218.758V124.372C218.974 124.028 219.262 123.764 219.622 123.58C219.99 123.396 220.394 123.304 220.834 123.304C221.386 123.304 221.874 123.428 222.298 123.676C222.722 123.924 223.038 124.288 223.246 124.768C223.43 124.304 223.734 123.944 224.158 123.688C224.582 123.432 225.054 123.304 225.574 123.304ZM232.897 130.108C232.281 130.108 231.721 129.968 231.217 129.688C230.721 129.408 230.329 129.012 230.041 128.5C229.761 127.98 229.621 127.38 229.621 126.7C229.621 126.028 229.765 125.436 230.053 124.924C230.349 124.404 230.749 124.008 231.253 123.736C231.757 123.456 232.321 123.316 232.945 123.316C233.569 123.316 234.133 123.456 234.637 123.736C235.141 124.008 235.537 124.4 235.825 124.912C236.121 125.424 236.269 126.02 236.269 126.7C236.269 127.38 236.117 127.98 235.813 128.5C235.517 129.012 235.113 129.408 234.601 129.688C234.089 129.968 233.521 130.108 232.897 130.108ZM232.897 129.148C233.289 129.148 233.657 129.056 234.001 128.872C234.345 128.688 234.621 128.412 234.829 128.044C235.045 127.676 235.153 127.228 235.153 126.7C235.153 126.172 235.049 125.724 234.841 125.356C234.633 124.988 234.361 124.716 234.025 124.54C233.689 124.356 233.325 124.264 232.933 124.264C232.533 124.264 232.165 124.356 231.829 124.54C231.501 124.716 231.237 124.988 231.037 125.356C230.837 125.724 230.737 126.172 230.737 126.7C230.737 127.236 230.833 127.688 231.025 128.056C231.225 128.424 231.489 128.7 231.817 128.884C232.145 129.06 232.505 129.148 232.897 129.148ZM239.037 124.324V128.2C239.037 128.52 239.105 128.748 239.241 128.884C239.377 129.012 239.613 129.076 239.949 129.076H240.753V130H239.769C239.161 130 238.705 129.86 238.401 129.58C238.097 129.3 237.945 128.84 237.945 128.2V124.324H237.093V123.424H237.945V121.768H239.037V123.424H240.753V124.324H239.037ZM248.076 126.46C248.076 126.668 248.064 126.888 248.04 127.12H242.784C242.824 127.768 243.044 128.276 243.444 128.644C243.852 129.004 244.344 129.184 244.92 129.184C245.392 129.184 245.784 129.076 246.096 128.86C246.416 128.636 246.64 128.34 246.768 127.972H247.944C247.768 128.604 247.416 129.12 246.888 129.52C246.36 129.912 245.704 130.108 244.92 130.108C244.296 130.108 243.736 129.968 243.24 129.688C242.752 129.408 242.368 129.012 242.088 128.5C241.808 127.98 241.668 127.38 241.668 126.7C241.668 126.02 241.804 125.424 242.076 124.912C242.348 124.4 242.728 124.008 243.216 123.736C243.712 123.456 244.28 123.316 244.92 123.316C245.544 123.316 246.096 123.452 246.576 123.724C247.056 123.996 247.424 124.372 247.68 124.852C247.944 125.324 248.076 125.86 248.076 126.46ZM246.948 126.232C246.948 125.816 246.856 125.46 246.672 125.164C246.488 124.86 246.236 124.632 245.916 124.48C245.604 124.32 245.256 124.24 244.872 124.24C244.32 124.24 243.848 124.416 243.456 124.768C243.072 125.12 242.852 125.608 242.796 126.232H246.948Z" fill="#0F172A"/>
<path d="M315.938 127.186C315.938 127.671 315.812 128.129 315.56 128.558C315.317 128.978 314.953 129.328 314.468 129.608C313.992 129.879 313.427 130.037 312.774 130.084V131.218H311.878V130.07C310.945 129.986 310.193 129.706 309.624 129.23C309.055 128.745 308.761 128.091 308.742 127.27H310.842C310.898 127.942 311.243 128.348 311.878 128.488V125.814C311.206 125.646 310.665 125.478 310.254 125.31C309.843 125.142 309.489 124.871 309.19 124.498C308.891 124.125 308.742 123.616 308.742 122.972C308.742 122.16 309.031 121.497 309.61 120.984C310.198 120.471 310.954 120.177 311.878 120.102V118.968H312.774V120.102C313.67 120.177 314.384 120.447 314.916 120.914C315.457 121.381 315.761 122.025 315.826 122.846H313.712C313.684 122.575 313.586 122.342 313.418 122.146C313.259 121.941 313.045 121.796 312.774 121.712V124.358C313.474 124.535 314.025 124.708 314.426 124.876C314.837 125.035 315.191 125.301 315.49 125.674C315.789 126.038 315.938 126.542 315.938 127.186ZM310.786 122.874C310.786 123.182 310.879 123.434 311.066 123.63C311.253 123.817 311.523 123.971 311.878 124.092V121.67C311.542 121.717 311.276 121.843 311.08 122.048C310.884 122.253 310.786 122.529 310.786 122.874ZM312.774 128.516C313.129 128.451 313.404 128.306 313.6 128.082C313.805 127.858 313.908 127.587 313.908 127.27C313.908 126.962 313.81 126.715 313.614 126.528C313.418 126.341 313.138 126.187 312.774 126.066V128.516ZM317.664 121.6V119.794H321.038V130H319.022V121.6H317.664ZM325.34 127.942L323.702 131.876H322.442L323.352 127.942H325.34ZM333.389 121.488H328.853V123.882C329.049 123.639 329.329 123.443 329.693 123.294C330.057 123.135 330.444 123.056 330.855 123.056C331.602 123.056 332.213 123.219 332.689 123.546C333.165 123.873 333.51 124.293 333.725 124.806C333.94 125.31 334.047 125.851 334.047 126.43C334.047 127.503 333.739 128.367 333.123 129.02C332.516 129.673 331.648 130 330.519 130C329.455 130 328.606 129.734 327.971 129.202C327.336 128.67 326.977 127.975 326.893 127.116H328.797C328.881 127.489 329.068 127.788 329.357 128.012C329.656 128.236 330.034 128.348 330.491 128.348C331.042 128.348 331.457 128.175 331.737 127.83C332.017 127.485 332.157 127.027 332.157 126.458C332.157 125.879 332.012 125.441 331.723 125.142C331.443 124.834 331.028 124.68 330.477 124.68C330.085 124.68 329.758 124.778 329.497 124.974C329.236 125.17 329.049 125.431 328.937 125.758H327.061V119.766H333.389V121.488ZM335.539 124.764C335.539 123.149 335.828 121.885 336.407 120.97C336.995 120.055 337.966 119.598 339.319 119.598C340.672 119.598 341.638 120.055 342.217 120.97C342.805 121.885 343.099 123.149 343.099 124.764C343.099 126.388 342.805 127.662 342.217 128.586C341.638 129.51 340.672 129.972 339.319 129.972C337.966 129.972 336.995 129.51 336.407 128.586C335.828 127.662 335.539 126.388 335.539 124.764ZM341.167 124.764C341.167 124.073 341.12 123.495 341.027 123.028C340.943 122.552 340.766 122.165 340.495 121.866C340.234 121.567 339.842 121.418 339.319 121.418C338.796 121.418 338.4 121.567 338.129 121.866C337.868 122.165 337.69 122.552 337.597 123.028C337.513 123.495 337.471 124.073 337.471 124.764C337.471 125.473 337.513 126.071 337.597 126.556C337.681 127.032 337.858 127.419 338.129 127.718C338.4 128.007 338.796 128.152 339.319 128.152C339.842 128.152 340.238 128.007 340.509 127.718C340.78 127.419 340.957 127.032 341.041 126.556C341.125 126.071 341.167 125.473 341.167 124.764ZM344.59 124.764C344.59 123.149 344.879 121.885 345.458 120.97C346.046 120.055 347.016 119.598 348.37 119.598C349.723 119.598 350.689 120.055 351.268 120.97C351.856 121.885 352.15 123.149 352.15 124.764C352.15 126.388 351.856 127.662 351.268 128.586C350.689 129.51 349.723 129.972 348.37 129.972C347.016 129.972 346.046 129.51 345.458 128.586C344.879 127.662 344.59 126.388 344.59 124.764ZM350.218 124.764C350.218 124.073 350.171 123.495 350.078 123.028C349.994 122.552 349.816 122.165 349.546 121.866C349.284 121.567 348.892 121.418 348.37 121.418C347.847 121.418 347.45 121.567 347.18 121.866C346.918 122.165 346.741 122.552 346.648 123.028C346.564 123.495 346.522 124.073 346.522 124.764C346.522 125.473 346.564 126.071 346.648 126.556C346.732 127.032 346.909 127.419 347.18 127.718C347.45 128.007 347.847 128.152 348.37 128.152C348.892 128.152 349.289 128.007 349.56 127.718C349.83 127.419 350.008 127.032 350.092 126.556C350.176 126.071 350.218 125.473 350.218 124.764Z" fill="#0F172A"/>
<path d="M116.516 197.812C116.516 196.996 116.7 196.264 117.068 195.616C117.436 194.96 117.936 194.448 118.568 194.08C119.208 193.712 119.916 193.528 120.692 193.528C121.604 193.528 122.4 193.748 123.08 194.188C123.76 194.628 124.256 195.252 124.568 196.06H123.26C123.028 195.556 122.692 195.168 122.252 194.896C121.82 194.624 121.3 194.488 120.692 194.488C120.108 194.488 119.584 194.624 119.12 194.896C118.656 195.168 118.292 195.556 118.028 196.06C117.764 196.556 117.632 197.14 117.632 197.812C117.632 198.476 117.764 199.06 118.028 199.564C118.292 200.06 118.656 200.444 119.12 200.716C119.584 200.988 120.108 201.124 120.692 201.124C121.3 201.124 121.82 200.992 122.252 200.728C122.692 200.456 123.028 200.068 123.26 199.564H124.568C124.256 200.364 123.76 200.984 123.08 201.424C122.4 201.856 121.604 202.072 120.692 202.072C119.916 202.072 119.208 201.892 118.568 201.532C117.936 201.164 117.436 200.656 117.068 200.008C116.7 199.36 116.516 198.628 116.516 197.812ZM129.062 202.108C128.446 202.108 127.886 201.968 127.382 201.688C126.886 201.408 126.494 201.012 126.206 200.5C125.926 199.98 125.786 199.38 125.786 198.7C125.786 198.028 125.93 197.436 126.218 196.924C126.514 196.404 126.914 196.008 127.418 195.736C127.922 195.456 128.486 195.316 129.11 195.316C129.734 195.316 130.298 195.456 130.802 195.736C131.306 196.008 131.702 196.4 131.99 196.912C132.286 197.424 132.434 198.02 132.434 198.7C132.434 199.38 132.282 199.98 131.978 200.5C131.682 201.012 131.278 201.408 130.766 201.688C130.254 201.968 129.686 202.108 129.062 202.108ZM129.062 201.148C129.454 201.148 129.822 201.056 130.166 200.872C130.51 200.688 130.786 200.412 130.994 200.044C131.21 199.676 131.318 199.228 131.318 198.7C131.318 198.172 131.214 197.724 131.006 197.356C130.798 196.988 130.526 196.716 130.19 196.54C129.854 196.356 129.49 196.264 129.098 196.264C128.698 196.264 128.33 196.356 127.994 196.54C127.666 196.716 127.402 196.988 127.202 197.356C127.002 197.724 126.902 198.172 126.902 198.7C126.902 199.236 126.998 199.688 127.19 200.056C127.39 200.424 127.654 200.7 127.982 200.884C128.31 201.06 128.67 201.148 129.062 201.148ZM141.777 195.304C142.289 195.304 142.745 195.412 143.145 195.628C143.545 195.836 143.861 196.152 144.093 196.576C144.325 197 144.441 197.516 144.441 198.124V202H143.361V198.28C143.361 197.624 143.197 197.124 142.869 196.78C142.549 196.428 142.113 196.252 141.561 196.252C140.993 196.252 140.541 196.436 140.205 196.804C139.869 197.164 139.701 197.688 139.701 198.376V202H138.621V198.28C138.621 197.624 138.457 197.124 138.129 196.78C137.809 196.428 137.373 196.252 136.821 196.252C136.253 196.252 135.801 196.436 135.465 196.804C135.129 197.164 134.961 197.688 134.961 198.376V202H133.869V195.424H134.961V196.372C135.177 196.028 135.465 195.764 135.825 195.58C136.193 195.396 136.597 195.304 137.037 195.304C137.589 195.304 138.077 195.428 138.501 195.676C138.925 195.924 139.241 196.288 139.449 196.768C139.633 196.304 139.937 195.944 140.361 195.688C140.785 195.432 141.257 195.304 141.777 195.304ZM147.325 196.636C147.541 196.26 147.861 195.948 148.285 195.7C148.717 195.444 149.217 195.316 149.785 195.316C150.369 195.316 150.897 195.456 151.369 195.736C151.849 196.016 152.225 196.412 152.497 196.924C152.769 197.428 152.905 198.016 152.905 198.688C152.905 199.352 152.769 199.944 152.497 200.464C152.225 200.984 151.849 201.388 151.369 201.676C150.897 201.964 150.369 202.108 149.785 202.108C149.225 202.108 148.729 201.984 148.297 201.736C147.873 201.48 147.549 201.164 147.325 200.788V205.12H146.233V195.424H147.325V196.636ZM151.789 198.688C151.789 198.192 151.689 197.76 151.489 197.392C151.289 197.024 151.017 196.744 150.673 196.552C150.337 196.36 149.965 196.264 149.557 196.264C149.157 196.264 148.785 196.364 148.441 196.564C148.105 196.756 147.833 197.04 147.625 197.416C147.425 197.784 147.325 198.212 147.325 198.7C147.325 199.196 147.425 199.632 147.625 200.008C147.833 200.376 148.105 200.66 148.441 200.86C148.785 201.052 149.157 201.148 149.557 201.148C149.965 201.148 150.337 201.052 150.673 200.86C151.017 200.66 151.289 200.376 151.489 200.008C151.689 199.632 151.789 199.192 151.789 198.688ZM153.934 198.688C153.934 198.016 154.07 197.428 154.342 196.924C154.614 196.412 154.986 196.016 155.458 195.736C155.938 195.456 156.47 195.316 157.054 195.316C157.63 195.316 158.13 195.44 158.554 195.688C158.978 195.936 159.294 196.248 159.502 196.624V195.424H160.606V202H159.502V200.776C159.286 201.16 158.962 201.48 158.53 201.736C158.106 201.984 157.61 202.108 157.042 202.108C156.458 202.108 155.93 201.964 155.458 201.676C154.986 201.388 154.614 200.984 154.342 200.464C154.07 199.944 153.934 199.352 153.934 198.688ZM159.502 198.7C159.502 198.204 159.402 197.772 159.202 197.404C159.002 197.036 158.73 196.756 158.386 196.564C158.05 196.364 157.678 196.264 157.27 196.264C156.862 196.264 156.49 196.36 156.154 196.552C155.818 196.744 155.55 197.024 155.35 197.392C155.15 197.76 155.05 198.192 155.05 198.688C155.05 199.192 155.15 199.632 155.35 200.008C155.55 200.376 155.818 200.66 156.154 200.86C156.49 201.052 156.862 201.148 157.27 201.148C157.678 201.148 158.05 201.052 158.386 200.86C158.73 200.66 159.002 200.376 159.202 200.008C159.402 199.632 159.502 199.196 159.502 198.7ZM165.655 195.304C166.455 195.304 167.103 195.548 167.599 196.036C168.095 196.516 168.343 197.212 168.343 198.124V202H167.263V198.28C167.263 197.624 167.099 197.124 166.771 196.78C166.443 196.428 165.995 196.252 165.427 196.252C164.851 196.252 164.391 196.432 164.047 196.792C163.711 197.152 163.543 197.676 163.543 198.364V202H162.451V195.424H163.543V196.36C163.759 196.024 164.051 195.764 164.419 195.58C164.795 195.396 165.207 195.304 165.655 195.304ZM175.791 195.424L171.831 205.096H170.703L171.999 201.928L169.347 195.424H170.559L172.623 200.752L174.663 195.424H175.791ZM183.292 195.304C184.092 195.304 184.74 195.548 185.236 196.036C185.732 196.516 185.98 197.212 185.98 198.124V202H184.9V198.28C184.9 197.624 184.736 197.124 184.408 196.78C184.08 196.428 183.632 196.252 183.064 196.252C182.488 196.252 182.028 196.432 181.684 196.792C181.348 197.152 181.18 197.676 181.18 198.364V202H180.088V195.424H181.18V196.36C181.396 196.024 181.688 195.764 182.056 195.58C182.432 195.396 182.844 195.304 183.292 195.304ZM187.356 198.688C187.356 198.016 187.492 197.428 187.764 196.924C188.036 196.412 188.408 196.016 188.88 195.736C189.36 195.456 189.892 195.316 190.476 195.316C191.052 195.316 191.552 195.44 191.976 195.688C192.4 195.936 192.716 196.248 192.924 196.624V195.424H194.028V202H192.924V200.776C192.708 201.16 192.384 201.48 191.952 201.736C191.528 201.984 191.032 202.108 190.464 202.108C189.88 202.108 189.352 201.964 188.88 201.676C188.408 201.388 188.036 200.984 187.764 200.464C187.492 199.944 187.356 199.352 187.356 198.688ZM192.924 198.7C192.924 198.204 192.824 197.772 192.624 197.404C192.424 197.036 192.152 196.756 191.808 196.564C191.472 196.364 191.1 196.264 190.692 196.264C190.284 196.264 189.912 196.36 189.576 196.552C189.24 196.744 188.972 197.024 188.772 197.392C188.572 197.76 188.472 198.192 188.472 198.688C188.472 199.192 188.572 199.632 188.772 200.008C188.972 200.376 189.24 200.66 189.576 200.86C189.912 201.052 190.284 201.148 190.692 201.148C191.1 201.148 191.472 201.052 191.808 200.86C192.152 200.66 192.424 200.376 192.624 200.008C192.824 199.632 192.924 199.196 192.924 198.7ZM203.781 195.304C204.293 195.304 204.749 195.412 205.149 195.628C205.549 195.836 205.865 196.152 206.097 196.576C206.329 197 206.445 197.516 206.445 198.124V202H205.365V198.28C205.365 197.624 205.201 197.124 204.873 196.78C204.553 196.428 204.117 196.252 203.565 196.252C202.997 196.252 202.545 196.436 202.209 196.804C201.873 197.164 201.705 197.688 201.705 198.376V202H200.625V198.28C200.625 197.624 200.461 197.124 200.133 196.78C199.813 196.428 199.377 196.252 198.825 196.252C198.257 196.252 197.805 196.436 197.469 196.804C197.133 197.164 196.965 197.688 196.965 198.376V202H195.873V195.424H196.965V196.372C197.181 196.028 197.469 195.764 197.829 195.58C198.197 195.396 198.601 195.304 199.041 195.304C199.593 195.304 200.081 195.428 200.505 195.676C200.929 195.924 201.245 196.288 201.453 196.768C201.637 196.304 201.941 195.944 202.365 195.688C202.789 195.432 203.261 195.304 203.781 195.304ZM214.237 198.46C214.237 198.668 214.225 198.888 214.201 199.12H208.945C208.985 199.768 209.205 200.276 209.605 200.644C210.013 201.004 210.505 201.184 211.081 201.184C211.553 201.184 211.945 201.076 212.257 200.86C212.577 200.636 212.801 200.34 212.929 199.972H214.105C213.929 200.604 213.577 201.12 213.049 201.52C212.521 201.912 211.865 202.108 211.081 202.108C210.457 202.108 209.897 201.968 209.401 201.688C208.913 201.408 208.529 201.012 208.249 200.5C207.969 199.98 207.829 199.38 207.829 198.7C207.829 198.02 207.965 197.424 208.237 196.912C208.509 196.4 208.889 196.008 209.377 195.736C209.873 195.456 210.441 195.316 211.081 195.316C211.705 195.316 212.257 195.452 212.737 195.724C213.217 195.996 213.585 196.372 213.841 196.852C214.105 197.324 214.237 197.86 214.237 198.46ZM213.109 198.232C213.109 197.816 213.017 197.46 212.833 197.164C212.649 196.86 212.397 196.632 212.077 196.48C211.765 196.32 211.417 196.24 211.033 196.24C210.481 196.24 210.009 196.416 209.617 196.768C209.233 197.12 209.013 197.608 208.957 198.232H213.109Z" fill="#0F172A"/>
<path d="M121.008 168.832C122.181 168.832 123.211 169.061 124.096 169.52C124.992 169.979 125.68 170.635 126.16 171.488C126.651 172.331 126.896 173.312 126.896 174.432C126.896 175.552 126.651 176.533 126.16 177.376C125.68 178.208 124.992 178.853 124.096 179.312C123.211 179.771 122.181 180 121.008 180H117.104V168.832H121.008ZM120.928 178.096C122.101 178.096 123.008 177.776 123.648 177.136C124.288 176.496 124.608 175.595 124.608 174.432C124.608 173.269 124.288 172.363 123.648 171.712C123.008 171.051 122.101 170.72 120.928 170.72H119.344V178.096H120.928ZM134.333 180L131.869 175.648H130.813V180H128.573V168.832H132.765C133.629 168.832 134.365 168.987 134.973 169.296C135.581 169.595 136.034 170.005 136.333 170.528C136.642 171.04 136.797 171.616 136.797 172.256C136.797 172.992 136.583 173.659 136.157 174.256C135.73 174.843 135.095 175.248 134.253 175.472L136.925 180H134.333ZM130.813 173.968H132.685C133.293 173.968 133.746 173.824 134.045 173.536C134.343 173.237 134.493 172.827 134.493 172.304C134.493 171.792 134.343 171.397 134.045 171.12C133.746 170.832 133.293 170.688 132.685 170.688H130.813V173.968ZM141.063 170.64V173.44H144.823V175.216H141.063V178.176H145.303V180H138.823V168.816H145.303V170.64H141.063ZM154.186 177.872H149.738L149.002 180H146.65L150.666 168.816H153.274L157.29 180H154.922L154.186 177.872ZM153.578 176.08L151.962 171.408L150.346 176.08H153.578ZM170.968 168.832V180H168.728V172.736L165.736 180H164.04L161.032 172.736V180H158.792V168.832H161.336L164.888 177.136L168.44 168.832H170.968ZM183.507 168.832V176.672C183.507 177.76 183.192 178.608 182.563 179.216C181.933 179.813 181.091 180.112 180.035 180.112C178.968 180.112 178.104 179.803 177.443 179.184C176.792 178.565 176.467 177.701 176.467 176.592H178.707C178.717 177.072 178.829 177.445 179.043 177.712C179.267 177.979 179.587 178.112 180.003 178.112C180.408 178.112 180.717 177.984 180.931 177.728C181.144 177.472 181.251 177.12 181.251 176.672V168.832H183.507ZM191.304 180.112C190.258 180.112 189.298 179.867 188.424 179.376C187.549 178.885 186.856 178.208 186.344 177.344C185.832 176.469 185.576 175.483 185.576 174.384C185.576 173.296 185.832 172.32 186.344 171.456C186.856 170.581 187.549 169.899 188.424 169.408C189.298 168.917 190.258 168.672 191.304 168.672C192.36 168.672 193.32 168.917 194.184 169.408C195.058 169.899 195.746 170.581 196.248 171.456C196.76 172.32 197.016 173.296 197.016 174.384C197.016 175.483 196.76 176.469 196.248 177.344C195.746 178.208 195.058 178.885 194.184 179.376C193.309 179.867 192.349 180.112 191.304 180.112ZM191.304 178.112C191.976 178.112 192.568 177.963 193.08 177.664C193.592 177.355 193.992 176.917 194.28 176.352C194.568 175.787 194.712 175.131 194.712 174.384C194.712 173.637 194.568 172.987 194.28 172.432C193.992 171.867 193.592 171.435 193.08 171.136C192.568 170.837 191.976 170.688 191.304 170.688C190.632 170.688 190.034 170.837 189.512 171.136C189 171.435 188.6 171.867 188.312 172.432C188.024 172.987 187.88 173.637 187.88 174.384C187.88 175.131 188.024 175.787 188.312 176.352C188.6 176.917 189 177.355 189.512 177.664C190.034 177.963 190.632 178.112 191.304 178.112ZM205.018 174.272C205.647 174.389 206.165 174.704 206.57 175.216C206.975 175.728 207.178 176.315 207.178 176.976C207.178 177.573 207.029 178.101 206.73 178.56C206.442 179.008 206.021 179.36 205.466 179.616C204.911 179.872 204.255 180 203.498 180H198.682V168.832H203.29C204.047 168.832 204.698 168.955 205.242 169.2C205.797 169.445 206.213 169.787 206.49 170.224C206.778 170.661 206.922 171.157 206.922 171.712C206.922 172.363 206.746 172.907 206.394 173.344C206.053 173.781 205.594 174.091 205.018 174.272ZM200.922 173.44H202.97C203.503 173.44 203.914 173.323 204.202 173.088C204.49 172.843 204.634 172.496 204.634 172.048C204.634 171.6 204.49 171.253 204.202 171.008C203.914 170.763 203.503 170.64 202.97 170.64H200.922V173.44ZM203.178 178.176C203.722 178.176 204.143 178.048 204.442 177.792C204.751 177.536 204.906 177.173 204.906 176.704C204.906 176.224 204.746 175.851 204.426 175.584C204.106 175.307 203.674 175.168 203.13 175.168H200.922V178.176H203.178Z" fill="#0F172A"/>
<mask id="mask0_439_761" style="mask-type:luminance" maskUnits="userSpaceOnUse" x="318" y="165" width="34" height="34">
<path d="M335 197C336.97 197.003 338.921 196.616 340.742 195.862C342.562 195.108 344.215 194.001 345.607 192.606C347.001 191.215 348.108 189.562 348.862 187.742C349.616 185.921 350.003 183.97 350 182C350.003 180.03 349.616 178.079 348.862 176.258C348.108 174.438 347.001 172.785 345.607 171.393C344.215 169.999 342.562 168.892 340.742 168.138C338.921 167.384 336.97 166.997 335 167C333.03 166.997 331.079 167.384 329.258 168.138C327.438 168.892 325.785 169.999 324.394 171.393C322.999 172.785 321.892 174.438 321.138 176.258C320.384 178.079 319.998 180.03 320 182C319.997 183.97 320.384 185.921 321.138 187.742C321.892 189.562 322.999 191.215 324.394 192.606C325.785 194.001 327.438 195.108 329.258 195.862C331.079 196.616 333.03 197.003 335 197Z" fill="white" stroke="white" stroke-width="4" stroke-linejoin="round"/>
<path d="M329 182L333.5 186.5L342.5 177.5" stroke="black" stroke-width="4" stroke-linecap="round" stroke-linejoin="round"/>
</mask>
<g mask="url(#mask0_439_761)">
<path d="M317 164H353V200H317V164Z" fill="#10CB5A"/>
</g>
<defs>
<filter id="filter0_d_439_761" x="0.73629" y="0.620537" width="468.527" height="329.527" filterUnits="userSpaceOnUse" color-interpolation-filters="sRGB">
<feFlood flood-opacity="0" result="BackgroundImageFix"/>
<feColorMatrix in="SourceAlpha" type="matrix" values="0 0 0 0 0 0 0 0 0 0 0 0 0 0 0 0 0 0 127 0" result="hardAlpha"/>
<feOffset dy="6.88425"/>
<feGaussianBlur stdDeviation="51.6319"/>
<feComposite in2="hardAlpha" operator="out"/>
<feColorMatrix type="matrix" values="0 0 0 0 0 0 0 0 0 0 0 0 0 0 0 0 0 0 0.08 0"/>
<feBlend mode="normal" in2="BackgroundImageFix" result="effect1_dropShadow_439_761"/>
<feBlend mode="normal" in="SourceGraphic" in2="effect1_dropShadow_439_761" result="shape"/>
</filter>
</defs>
</svg>
