<svg width="56" height="54" viewBox="0 0 56 54" fill="none" xmlns="http://www.w3.org/2000/svg">
<path d="M25.9854 30.5135L11.6328 21.2579C11.167 20.9575 10.561 20.9893 10.1293 21.3368L0.479891 29.102C-0.20353 29.6519 -0.14806 30.7096 0.589204 31.185L14.9418 40.4406C15.4076 40.741 16.0135 40.7092 16.4453 40.3618L26.0947 32.5967C26.7781 32.0466 26.7226 30.9889 25.9854 30.5135Z" fill="#1587EA"/>
<path d="M29.9051 32.5966L39.5546 40.3616C39.9864 40.7091 40.5922 40.7409 41.058 40.4405L55.4106 31.1849C56.1479 30.7095 56.2033 29.6518 55.5199 29.1018L45.8705 21.3368C45.4386 20.9893 44.8329 20.9575 44.3671 21.2579L30.0145 30.5135C29.2773 30.9889 29.2217 32.0466 29.9051 32.5966Z" fill="#1587EA"/>
<path d="M26.0947 8.29043L16.4453 0.525373C16.0134 0.177902 15.4076 0.146098 14.9418 0.446488L0.589204 9.7021C-0.14806 10.1775 -0.20353 11.2352 0.479891 11.7852L10.1293 19.5502C10.5612 19.8977 11.167 19.9295 11.6328 19.6291L25.9854 10.3735C26.7226 9.89807 26.7781 8.84038 26.0947 8.29043Z" fill="#1587EA"/>
<path d="M55.4107 9.7021L41.0581 0.446488C40.5923 0.146098 39.9863 0.177902 39.5546 0.525373L29.9052 8.29043C29.2218 8.84038 29.2772 9.89807 30.0145 10.3735L44.3672 19.6291C44.833 19.9295 45.4389 19.8977 45.8707 19.5502L55.5201 11.7852C56.2034 11.2351 56.1479 10.1774 55.4107 9.7021Z" fill="#1587EA"/>
<path d="M27.297 33.96L16.4909 42.5799C16.0993 42.8923 15.552 42.9198 15.131 42.6484L12.4675 40.9307C11.6911 40.4299 10.6685 40.9874 10.6685 41.9112V42.8398C10.6685 43.2478 10.8816 43.6262 11.2304 43.8376L27.3181 53.5899C27.6899 53.8152 28.1561 53.8152 28.5278 53.5899L44.6155 43.8376C44.9644 43.6262 45.1775 43.2479 45.1775 42.8398V42.011C45.1775 41.0872 44.1547 40.5297 43.3784 41.0305L40.8711 42.6474C40.4494 42.9193 39.9009 42.8911 39.5093 42.5774L28.7542 33.9615C28.3285 33.6205 27.7233 33.6199 27.297 33.96Z" fill="#1587EA"/>
</svg>
