<svg width="18" height="18" viewBox="0 0 18 18" fill="none" xmlns="http://www.w3.org/2000/svg">
<path d="M3.57 14.1075C3.57 14.1075 3.63 14.1075 3.6525 14.1075L5.85 13.905C6.1575 13.875 6.4425 13.74 6.66 13.5225L14.955 5.22745C15.345 4.83745 15.5625 4.31995 15.5625 3.77245C15.5625 3.22495 15.345 2.70745 14.955 2.31745L14.4225 1.78495C13.6425 1.00495 12.285 1.00495 11.505 1.78495L10.4475 2.84245L3.2175 10.0725C3 10.29 2.865 10.575 2.8425 10.8825L2.64 13.08C2.6175 13.3575 2.715 13.6275 2.91 13.83C3.09 14.01 3.3225 14.1075 3.57 14.1075ZM12.9675 2.30245C13.2075 2.30245 13.4475 2.39245 13.6275 2.57995L14.16 3.11245C14.34 3.29245 14.4375 3.52495 14.4375 3.77245C14.4375 4.01995 14.34 4.25995 14.16 4.43245L13.5 5.09245L11.6475 3.23995L12.3075 2.57995C12.4875 2.39995 12.7275 2.30245 12.9675 2.30245ZM3.96 10.9875C3.96 10.9425 3.9825 10.905 4.0125 10.875L10.845 4.03495L12.6975 5.88745L5.865 12.7199C5.865 12.7199 5.79 12.7725 5.7525 12.7725L3.78 12.9525L3.96 10.98V10.9875ZM17.0625 16.5C17.0625 16.8075 16.8075 17.0625 16.5 17.0625H1.5C1.1925 17.0625 0.9375 16.8075 0.9375 16.5C0.9375 16.1925 1.1925 15.9375 1.5 15.9375H16.5C16.8075 15.9375 17.0625 16.1925 17.0625 16.5Z" fill="#989898"/>
</svg>
