<svg width="48" height="48" viewBox="0 0 48 48" fill="none" xmlns="http://www.w3.org/2000/svg">
<circle cx="24" cy="24" r="24" fill="white"/>
<path d="M28.5 18H25.5C24.9477 18 24.5 18.4477 24.5 19V22H28.5C28.6137 21.9975 28.7216 22.0504 28.7892 22.1419C28.8568 22.2334 28.8758 22.352 28.84 22.46L28.1 24.66C28.0318 24.8619 27.8431 24.9984 27.63 25H24.5V32.5C24.5 32.7761 24.2761 33 24 33H21.5C21.2239 33 21 32.7761 21 32.5V25H19.5C19.2239 25 19 24.7761 19 24.5V22.5C19 22.2239 19.2239 22 19.5 22H21V19C21 16.7909 22.7909 15 25 15H28.5C28.7761 15 29 15.2239 29 15.5V17.5C29 17.7761 28.7761 18 28.5 18Z" fill="#6B84FE"/>
</svg>
