<svg width="48" height="48" viewBox="0 0 48 48" fill="none" xmlns="http://www.w3.org/2000/svg">
<g clip-path="url(#clip0_179_260)">
<path d="M23.9983 8.53488C15.4709 8.53488 8.5332 15.4725 8.5332 24C8.5332 32.5275 15.4709 39.4651 23.9983 39.4651C32.5258 39.4651 39.4635 32.5275 39.4635 24C39.4635 15.4725 32.5259 8.53488 23.9983 8.53488ZM23.9983 36.6533C17.0213 36.6533 11.345 30.977 11.345 24C11.345 17.023 17.0213 11.3467 23.9983 11.3467C30.9753 11.3467 36.6516 17.023 36.6516 24C36.6516 30.977 30.9754 36.6533 23.9983 36.6533Z" fill="#2CC4BF"/>
<path d="M30.0336 18.7881L22.5921 26.2294L17.9625 21.5999C17.4136 21.0509 16.5234 21.0509 15.9743 21.5999C15.4252 22.149 15.4252 23.0391 15.9743 23.5882L21.598 29.2119C21.8725 29.4864 22.2323 29.6237 22.5921 29.6237C22.9518 29.6237 23.3117 29.4865 23.5861 29.2119L32.0217 20.7763C32.5707 20.2273 32.5707 19.3371 32.0217 18.7881C31.4728 18.239 30.5826 18.239 30.0336 18.7881Z" fill="#2CC4BF"/>
<path d="M45.9868 14.1427C45.9821 14.1398 41.0764 11.2033 41.0764 11.2033L39.9752 6.64264C39.4866 4.61896 37.6258 3.26637 35.5498 3.42739L29.9595 3.86004C29.9595 3.86004 26.7393 1.01802 26.7329 1.01268C25.1482 -0.337193 22.8476 -0.337193 21.2628 1.01268C21.2566 1.01802 18.0363 3.86004 18.0363 3.86004L12.4459 3.42739C10.3866 3.26749 8.54011 4.59646 8.03304 6.59221L6.50002 11.4769C6.50002 11.4769 2.01917 14.139 2.01326 14.1427C0.239648 15.2327 -0.471279 17.4206 0.322972 19.345L2.23577 23.9804L0.322972 28.6156C-0.471279 30.54 0.239648 32.7279 2.01336 33.818C2.01879 33.8213 6.91496 36.7387 6.91496 36.7387L8.02076 41.318C8.48303 43.2328 10.1737 44.5463 12.1126 44.5462C12.4091 44.5462 12.076 44.5574 17.9782 44.1051C17.9782 44.1051 21.2577 46.9829 21.2629 46.9873C22.0553 47.6622 23.0266 47.9998 23.998 47.9998C24.9693 47.9998 25.9407 47.6622 26.7331 46.9873C26.7383 46.9828 30.0178 44.1051 30.0178 44.1051L35.5499 44.5332C37.6252 44.6936 39.4868 43.3417 39.9753 41.318L41.0765 36.7573C47.0795 33.1639 45.8067 33.9291 45.9869 33.8179C47.7604 32.7278 48.4713 30.5399 47.6771 28.6155L45.7643 23.9802L47.6771 19.3449C48.4713 17.4206 47.7604 15.2328 45.9868 14.1427ZM42.9436 24.5167L45.0778 29.6883C45.3418 30.3277 45.1072 31.0545 44.5201 31.419L39.1262 34.6478C38.8025 34.8416 38.5702 35.1573 38.4816 35.5241L37.2419 40.6582C37.0791 41.3327 36.4597 41.7832 35.7668 41.7299L29.6441 41.256C29.267 41.2269 28.893 41.3512 28.6083 41.601L24.9031 44.8526C24.3771 45.2951 23.6187 45.2951 23.0928 44.8524L19.3877 41.601C19.103 41.3512 18.7288 41.2266 18.3519 41.256L12.2292 41.7299C11.5369 41.7833 10.917 41.3327 10.7542 40.6581L9.50954 35.5038C9.42078 35.1361 9.18749 34.8196 8.86253 34.626L3.47889 31.4181C2.89271 31.0534 2.65858 30.3272 2.92233 29.6882L5.05652 24.5166C5.19833 24.1731 5.19833 23.7875 5.05652 23.444L2.92205 18.2723C2.65849 17.6337 2.89234 16.9079 3.47786 16.5429L8.39858 13.6197C8.69626 13.4428 8.91821 13.1624 9.02187 12.832C10.8353 7.05017 10.733 7.38956 10.754 7.30249C10.9168 6.62802 11.535 6.17681 12.2291 6.2308L18.4123 6.70937C18.7917 6.73862 19.1661 6.61321 19.4511 6.36174L23.0941 3.14649C23.6193 2.70541 24.3762 2.70541 24.9015 3.1463L28.5447 6.36174C28.8297 6.6134 29.205 6.73862 29.5835 6.70937L35.7667 6.2308C36.4583 6.17737 37.079 6.62792 37.2418 7.30258L38.4815 12.4366C38.5701 12.8034 38.8024 13.1192 39.1261 13.313L44.5201 16.5417C45.1071 16.9062 45.3418 17.6329 45.0777 18.2723L42.9435 23.444C42.8018 23.7876 42.8018 24.1732 42.9436 24.5167Z" fill="#2CC4BF"/>
</g>
<defs>
<clipPath id="clip0_179_260">
<rect width="48" height="48" fill="white"/>
</clipPath>
</defs>
</svg>
