<svg width="168" height="28" viewBox="0 0 168 28" fill="none" xmlns="http://www.w3.org/2000/svg">
<path d="M25.6254 12.5619L20.7035 16.809L22.2031 23.1604C22.2858 23.5052 22.2645 23.8667 22.1418 24.1994C22.0192 24.5321 21.8007 24.821 21.5139 25.0295C21.2272 25.2381 20.8851 25.357 20.5308 25.3712C20.1765 25.3855 19.8259 25.2944 19.5234 25.1094L13.9999 21.7101L8.47321 25.1094C8.17071 25.2933 7.82058 25.3835 7.4669 25.3688C7.11322 25.354 6.7718 25.235 6.48565 25.0266C6.1995 24.8182 5.98141 24.5298 5.85883 24.1977C5.73625 23.8656 5.71467 23.5047 5.79681 23.1604L7.30181 16.809L2.37993 12.5619C2.11229 12.3306 1.91872 12.0256 1.82341 11.6849C1.7281 11.3442 1.73526 10.983 1.84401 10.6464C1.95276 10.3098 2.15826 10.0127 2.43487 9.79215C2.71147 9.57163 3.04692 9.43748 3.39931 9.40647L9.85243 8.88584L12.3418 2.86147C12.4766 2.53314 12.7059 2.2523 13.0007 2.05465C13.2954 1.857 13.6423 1.75146 13.9972 1.75146C14.3521 1.75146 14.699 1.857 14.9937 2.05465C15.2885 2.2523 15.5178 2.53314 15.6526 2.86147L18.1409 8.88584L24.594 9.40647C24.9471 9.43633 25.2835 9.56973 25.5611 9.78994C25.8387 10.0102 26.0452 10.3074 26.1546 10.6444C26.264 10.9815 26.2716 11.3433 26.1763 11.6846C26.0809 12.0259 25.887 12.3315 25.6188 12.563L25.6254 12.5619Z" fill="#FF8C40"/>
<path d="M60.6254 12.5619L55.7035 16.809L57.2031 23.1604C57.2858 23.5052 57.2645 23.8667 57.1418 24.1994C57.0192 24.5321 56.8007 24.821 56.5139 25.0295C56.2272 25.2381 55.8851 25.357 55.5308 25.3712C55.1765 25.3855 54.8259 25.2944 54.5234 25.1094L48.9999 21.7101L43.4732 25.1094C43.1707 25.2933 42.8206 25.3835 42.4669 25.3688C42.1132 25.354 41.7718 25.235 41.4857 25.0266C41.1995 24.8182 40.9814 24.5298 40.8588 24.1977C40.7363 23.8656 40.7147 23.5047 40.7968 23.1604L42.3018 16.809L37.3799 12.5619C37.1123 12.3306 36.9187 12.0256 36.8234 11.6849C36.7281 11.3442 36.7353 10.983 36.844 10.6464C36.9528 10.3098 37.1583 10.0127 37.4349 9.79215C37.7115 9.57163 38.0469 9.43748 38.3993 9.40647L44.8524 8.88584L47.3418 2.86147C47.4766 2.53314 47.7059 2.2523 48.0007 2.05465C48.2954 1.857 48.6423 1.75146 48.9972 1.75146C49.3521 1.75146 49.699 1.857 49.9937 2.05465C50.2885 2.2523 50.5178 2.53314 50.6526 2.86147L53.1409 8.88584L59.594 9.40647C59.9471 9.43633 60.2835 9.56973 60.5611 9.78994C60.8387 10.0102 61.0452 10.3074 61.1546 10.6444C61.264 10.9815 61.2716 11.3433 61.1763 11.6846C61.0809 12.0259 60.887 12.3315 60.6188 12.563L60.6254 12.5619Z" fill="#FF8C40"/>
<path d="M95.6254 12.5619L90.7035 16.809L92.2031 23.1604C92.2858 23.5052 92.2645 23.8667 92.1418 24.1994C92.0192 24.5321 91.8007 24.821 91.5139 25.0295C91.2272 25.2381 90.8851 25.357 90.5308 25.3712C90.1765 25.3855 89.8259 25.2944 89.5234 25.1094L83.9999 21.7101L78.4732 25.1094C78.1707 25.2933 77.8206 25.3835 77.4669 25.3688C77.1132 25.354 76.7718 25.235 76.4857 25.0266C76.1995 24.8182 75.9814 24.5298 75.8588 24.1977C75.7363 23.8656 75.7147 23.5047 75.7968 23.1604L77.3018 16.809L72.3799 12.5619C72.1123 12.3306 71.9187 12.0256 71.8234 11.6849C71.7281 11.3442 71.7353 10.983 71.844 10.6464C71.9528 10.3098 72.1583 10.0127 72.4349 9.79215C72.7115 9.57163 73.0469 9.43748 73.3993 9.40647L79.8524 8.88584L82.3418 2.86147C82.4766 2.53314 82.7059 2.2523 83.0007 2.05465C83.2954 1.857 83.6423 1.75146 83.9972 1.75146C84.3521 1.75146 84.699 1.857 84.9937 2.05465C85.2885 2.2523 85.5178 2.53314 85.6526 2.86147L88.1409 8.88584L94.594 9.40647C94.9471 9.43633 95.2835 9.56973 95.5611 9.78994C95.8387 10.0102 96.0452 10.3074 96.1546 10.6444C96.264 10.9815 96.2716 11.3433 96.1763 11.6846C96.0809 12.0259 95.887 12.3315 95.6188 12.563L95.6254 12.5619Z" fill="#FF8C40"/>
<path d="M130.625 12.5619L125.704 16.809L127.203 23.1604C127.286 23.5052 127.264 23.8667 127.142 24.1994C127.019 24.5321 126.801 24.821 126.514 25.0295C126.227 25.2381 125.885 25.357 125.531 25.3712C125.176 25.3855 124.826 25.2944 124.523 25.1094L119 21.7101L113.473 25.1094C113.171 25.2933 112.821 25.3835 112.467 25.3688C112.113 25.354 111.772 25.235 111.486 25.0266C111.2 24.8182 110.981 24.5298 110.859 24.1977C110.736 23.8656 110.715 23.5047 110.797 23.1604L112.302 16.809L107.38 12.5619C107.112 12.3306 106.919 12.0256 106.823 11.6849C106.728 11.3442 106.735 10.983 106.844 10.6464C106.953 10.3098 107.158 10.0127 107.435 9.79215C107.711 9.57163 108.047 9.43748 108.399 9.40647L114.852 8.88584L117.342 2.86147C117.477 2.53314 117.706 2.2523 118.001 2.05465C118.295 1.857 118.642 1.75146 118.997 1.75146C119.352 1.75146 119.699 1.857 119.994 2.05465C120.289 2.2523 120.518 2.53314 120.653 2.86147L123.141 8.88584L129.594 9.40647C129.947 9.43633 130.284 9.56973 130.561 9.78994C130.839 10.0102 131.045 10.3074 131.155 10.6444C131.264 10.9815 131.272 11.3433 131.176 11.6846C131.081 12.0259 130.887 12.3315 130.619 12.563L130.625 12.5619Z" fill="#FF8C40"/>
<path d="M165.625 12.5619L160.704 16.809L162.203 23.1604C162.286 23.5052 162.264 23.8667 162.142 24.1994C162.019 24.5321 161.801 24.821 161.514 25.0295C161.227 25.2381 160.885 25.357 160.531 25.3712C160.176 25.3855 159.826 25.2944 159.523 25.1094L154 21.7101L148.473 25.1094C148.171 25.2933 147.821 25.3835 147.467 25.3688C147.113 25.354 146.772 25.235 146.486 25.0266C146.2 24.8182 145.981 24.5298 145.859 24.1977C145.736 23.8656 145.715 23.5047 145.797 23.1604L147.302 16.809L142.38 12.5619C142.112 12.3306 141.919 12.0256 141.823 11.6849C141.728 11.3442 141.735 10.983 141.844 10.6464C141.953 10.3098 142.158 10.0127 142.435 9.79215C142.711 9.57163 143.047 9.43748 143.399 9.40647L149.852 8.88584L152.342 2.86147C152.477 2.53314 152.706 2.2523 153.001 2.05465C153.295 1.857 153.642 1.75146 153.997 1.75146C154.352 1.75146 154.699 1.857 154.994 2.05465C155.289 2.2523 155.518 2.53314 155.653 2.86147L158.141 8.88584L164.594 9.40647C164.947 9.43633 165.284 9.56973 165.561 9.78994C165.839 10.0102 166.045 10.3074 166.155 10.6444C166.264 10.9815 166.272 11.3433 166.176 11.6846C166.081 12.0259 165.887 12.3315 165.619 12.563L165.625 12.5619Z" fill="#FF8C40"/>
</svg>
