<svg width="512" height="512" viewBox="0 0 512 512" fill="none" xmlns="http://www.w3.org/2000/svg">
<g clip-path="url(#clip0_3_1296)">
<rect width="512" height="512" rx="256" fill="#F44336"/>
<mask id="mask0_3_1296" style="mask-type:alpha" maskUnits="userSpaceOnUse" x="0" y="0" width="512" height="512">
<rect width="512" height="512" rx="256" fill="#F44336"/>
</mask>
<g mask="url(#mask0_3_1296)">
<path d="M512 330.105V394.105C511.911 425.346 499.462 455.281 477.371 477.371C455.281 499.462 425.346 511.911 394.105 512H331.789L165.491 345.701C161.204 341.412 158.796 335.597 158.796 329.533C158.796 323.469 161.204 317.653 165.491 313.364L220.429 258.392C220.855 257.975 221.193 257.477 221.424 256.927C221.655 256.378 221.774 255.788 221.774 255.192C221.774 254.596 221.655 254.006 221.424 253.456C221.193 252.907 220.855 252.409 220.429 251.992L165.491 197.019C163.287 194.914 161.526 192.39 160.312 189.595C159.097 186.799 158.454 183.79 158.419 180.742C158.384 177.695 158.959 174.671 160.109 171.849C161.259 169.027 162.962 166.463 165.117 164.308C167.271 162.153 169.835 160.451 172.658 159.301C175.48 158.151 178.503 157.576 181.551 157.611C184.598 157.646 187.608 158.289 190.403 159.504C193.198 160.718 195.722 162.479 197.827 164.682L252.8 219.621C253.217 220.047 253.715 220.385 254.264 220.616C254.814 220.847 255.404 220.966 256 220.966C256.596 220.966 257.186 220.847 257.736 220.616C258.285 220.385 258.783 220.047 259.2 219.621L314.173 164.682C318.462 160.396 324.277 157.988 330.341 157.988C336.405 157.988 342.221 160.396 346.509 164.682L512 330.105Z" fill="url(#paint0_linear_3_1296)"/>
</g>
<path d="M346.509 345.701C342.221 349.988 336.405 352.396 330.341 352.396C324.277 352.396 318.462 349.988 314.173 345.701L259.368 290.762C258.951 290.337 258.453 289.998 257.904 289.767C257.354 289.537 256.764 289.418 256.168 289.418C255.572 289.418 254.982 289.537 254.433 289.767C253.883 289.998 253.386 290.337 252.968 290.762L197.827 345.701C193.507 349.829 187.742 352.101 181.767 352.033C175.792 351.965 170.081 349.561 165.856 345.336C161.631 341.11 159.227 335.399 159.159 329.425C159.09 323.45 161.363 317.685 165.491 313.364L220.429 258.392C220.855 257.975 221.193 257.477 221.424 256.927C221.655 256.378 221.774 255.788 221.774 255.192C221.774 254.596 221.655 254.006 221.424 253.456C221.193 252.907 220.855 252.409 220.429 251.992L165.491 197.019C163.287 194.914 161.526 192.39 160.312 189.595C159.097 186.799 158.454 183.79 158.419 180.742C158.384 177.695 158.959 174.671 160.109 171.849C161.259 169.027 162.962 166.463 165.117 164.308C167.271 162.153 169.835 160.451 172.658 159.301C175.48 158.151 178.503 157.576 181.551 157.611C184.598 157.646 187.608 158.289 190.403 159.504C193.198 160.718 195.722 162.479 197.827 164.682L252.8 219.621C253.217 220.047 253.715 220.385 254.264 220.616C254.814 220.847 255.404 220.966 256 220.966C256.596 220.966 257.186 220.847 257.736 220.616C258.285 220.385 258.783 220.047 259.2 219.621L314.173 164.682C318.493 160.555 324.258 158.282 330.233 158.35C336.208 158.419 341.919 160.823 346.144 165.048C350.369 169.273 352.773 174.984 352.841 180.959C352.91 186.934 350.637 192.698 346.509 197.019L291.571 251.992C291.145 252.409 290.807 252.907 290.576 253.456C290.345 254.006 290.226 254.596 290.226 255.192C290.226 255.788 290.345 256.378 290.576 256.927C290.807 257.477 291.145 257.975 291.571 258.392L346.509 313.263C348.647 315.389 350.344 317.916 351.501 320.699C352.659 323.483 353.255 326.468 353.255 329.482C353.255 332.497 352.659 335.482 351.501 338.265C350.344 341.049 348.647 343.576 346.509 345.701Z" fill="white"/>
</g>
<defs>
<linearGradient id="paint0_linear_3_1296" x1="165.491" y1="164.682" x2="477.777" y2="476.969" gradientUnits="userSpaceOnUse">
<stop stop-color="#B71C1C"/>
<stop offset="1" stop-color="#B71C1C" stop-opacity="0"/>
</linearGradient>
<clipPath id="clip0_3_1296">
<rect width="512" height="512" fill="white"/>
</clipPath>
</defs>
</svg>
