<svg width="56" height="52" viewBox="0 0 56 52" fill="none" xmlns="http://www.w3.org/2000/svg">
<path d="M4.21784 43.8131L6.67987 48.0833C7.19142 48.9822 7.92784 49.6891 8.79288 50.2038L17.6243 43.9424L17.6403 34.9528L8.82723 30.9822L8.95521e-06 34.9212C-0.00174104 35.9154 0.252993 36.9102 0.76465 37.8091L4.21784 43.8131Z" fill="#0066DD"/>
<path d="M28.032 17.0102L28.4927 5.30012L19.2392 1.7276C18.3723 2.23926 17.6333 2.94352 17.1185 3.84062L0.774922 32.036C0.260203 32.9332 0.00175 33.9269 0 34.9212L17.6403 34.9527L28.032 17.0102Z" fill="#00AD3C"/>
<path d="M28.0322 17.0102L36.5091 12.45L36.8796 1.7591C36.0145 1.24438 35.0206 0.986039 33.9944 0.984179L22.1273 0.962961C21.1009 0.961101 20.1062 1.24799 19.2393 1.7276L28.0322 17.0102Z" fill="#00831E"/>
<path d="M38.3597 34.9898L17.6403 34.9528L8.79297 50.2038C9.65802 50.7186 10.6519 50.9769 11.6782 50.9788L44.2646 51.037C45.291 51.0388 46.2857 50.7519 47.1526 50.2723L47.187 40.0283L38.3597 34.9898Z" fill="#0084FF"/>
<path d="M47.1528 50.2724C48.0197 49.7608 48.7587 49.0565 49.2734 48.1594L50.3029 46.3973L55.2253 37.9066C55.7401 37.0095 55.9985 36.0157 56.0003 35.0214L45.8042 29.6564L38.3921 34.99L47.1528 50.2724Z" fill="#FF4131"/>
<path d="M47.1142 18.0065L38.9928 3.87964C38.4813 2.98058 37.7448 2.27369 36.8797 1.75897L28.0322 17.0101L38.3597 34.9897L55.968 35.0212C55.9698 34.027 55.7149 33.0322 55.2034 32.1332L47.1142 18.0065Z" fill="#FFBA00"/>
</svg>
