<svg width="56" height="56" viewBox="0 0 56 56" fill="none" xmlns="http://www.w3.org/2000/svg">
<circle cx="28" cy="28" r="28" fill="#FEEFE5"/>
<path d="M31.4371 36.7431H24.5621C23.6583 36.7431 22.5971 36.1306 22.1458 35.3481L18.7083 29.3956C18.2496 28.6006 18.2496 27.4006 18.7083 26.605L22.1464 20.6525C22.5977 19.87 23.6589 19.2575 24.5627 19.2575H31.4371C32.3408 19.2575 33.4021 19.87 33.8533 20.6525L37.2908 26.605C37.7496 27.4 37.7496 28.6 37.2908 29.3956L33.8527 35.3481C33.4021 36.1306 32.3402 36.7431 31.4371 36.7431ZM24.5621 20.5069C24.0964 20.5069 23.4608 20.8738 23.2283 21.2769L19.7902 27.2294C19.5577 27.6325 19.5577 28.3669 19.7902 28.77L23.2277 34.7225C23.4608 35.1263 24.0964 35.4925 24.5614 35.4925H31.4371C31.9027 35.4925 32.5383 35.1256 32.7708 34.7225L36.2089 28.77C36.4414 28.3669 36.4414 27.6325 36.2089 27.2294L32.7714 21.2769C32.5383 20.8731 31.9027 20.5069 31.4377 20.5069H24.5621ZM27.9996 31.6975C25.9602 31.6975 24.3014 30.0388 24.3014 28C24.3014 25.9613 25.9602 24.3025 27.9996 24.3025C30.0389 24.3025 31.6977 25.9613 31.6977 28C31.6977 30.0388 30.0389 31.6975 27.9996 31.6975ZM27.9996 25.5525C26.6496 25.5525 25.5514 26.6506 25.5514 28C25.5514 29.3494 26.6496 30.4475 27.9996 30.4475C29.3496 30.4475 30.4477 29.3494 30.4477 28C30.4477 26.6506 29.3496 25.5525 27.9996 25.5525Z" fill="#FF8C40"/>
</svg>
