<svg width="56" height="56" viewBox="0 0 56 56" fill="none" xmlns="http://www.w3.org/2000/svg">
<circle cx="28" cy="28" r="28" fill="#E3F1F2"/>
<path d="M20.109 30.3084C19.9315 31.47 20.724 32.2759 21.694 32.6775C25.4132 34.2192 30.5882 34.2192 34.3073 32.6775C35.2773 32.2759 36.0698 31.4692 35.8923 30.3084C35.784 29.5942 35.2448 29 34.8457 28.4192C34.3232 27.6492 34.2715 26.81 34.2707 25.9167C34.2715 22.465 31.4648 19.6667 28.0007 19.6667C24.5365 19.6667 21.7298 22.465 21.7298 25.9167C21.7298 26.81 21.6782 27.65 21.1548 28.4192C20.7565 29 20.2182 29.5942 20.109 30.3084Z" stroke="#2CC4BF" stroke-width="1.25" stroke-linecap="round" stroke-linejoin="round"/>
<path d="M24.667 33.8333C25.0487 35.2708 26.397 36.3333 28.0003 36.3333C29.6045 36.3333 30.9512 35.2708 31.3337 33.8333" stroke="#2CC4BF" stroke-width="1.25" stroke-linecap="round" stroke-linejoin="round"/>
</svg>
