<svg width="56" height="56" viewBox="0 0 56 56" fill="none" xmlns="http://www.w3.org/2000/svg">
<g clip-path="url(#clip0_1083_34)">
<path d="M50.1667 51.3333H5.83333C2.618 51.3333 0 48.7153 0 45.5V15.1666C0 11.9513 2.618 9.33331 5.83333 9.33331H19.8333C20.4773 9.33331 21 9.85598 21 10.5C21 11.144 20.4773 11.6666 19.8333 11.6666H5.83333C3.90367 11.6666 2.33333 13.237 2.33333 15.1666V45.5C2.33333 47.4296 3.90367 49 5.83333 49H50.1667C52.0963 49 53.6667 47.4296 53.6667 45.5V15.1666C53.6667 13.237 52.0963 11.6666 50.1667 11.6666H36.1667C35.5227 11.6666 35 11.144 35 10.5C35 9.85598 35.5227 9.33331 36.1667 9.33331H50.1667C53.382 9.33331 56 11.9513 56 15.1666V45.5C56 48.7153 53.382 51.3333 50.1667 51.3333Z" fill="#6B84FE"/>
<path d="M17.4993 32.6667C14.284 32.6667 11.666 30.0487 11.666 26.8333C11.666 23.618 14.284 21 17.4993 21C20.7147 21 23.3327 23.618 23.3327 26.8333C23.3327 30.0487 20.7147 32.6667 17.4993 32.6667ZM17.4993 23.3333C15.5697 23.3333 13.9993 24.9037 13.9993 26.8333C13.9993 28.763 15.5697 30.3333 17.4993 30.3333C19.429 30.3333 20.9993 28.763 20.9993 26.8333C20.9993 24.9037 19.429 23.3333 17.4993 23.3333Z" fill="#6B84FE"/>
<path d="M26.8333 44.3333C26.1893 44.3333 25.6667 43.8107 25.6667 43.1667V40.8333C25.6667 38.9037 24.0963 37.3333 22.1667 37.3333H12.8333C10.9037 37.3333 9.33333 38.9037 9.33333 40.8333V43.1667C9.33333 43.8107 8.81067 44.3333 8.16667 44.3333C7.52267 44.3333 7 43.8107 7 43.1667V40.8333C7 37.618 9.618 35 12.8333 35H22.1667C25.382 35 28 37.618 28 40.8333V43.1667C28 43.8107 27.4773 44.3333 26.8333 44.3333Z" fill="#6B84FE"/>
<path d="M47.8327 25.6666H33.8327C33.1887 25.6666 32.666 25.144 32.666 24.5C32.666 23.856 33.1887 23.3333 33.8327 23.3333H47.8327C48.4767 23.3333 48.9993 23.856 48.9993 24.5C48.9993 25.144 48.4767 25.6666 47.8327 25.6666Z" fill="#6B84FE"/>
<path d="M47.8327 35H33.8327C33.1887 35 32.666 34.4774 32.666 33.8334C32.666 33.1894 33.1887 32.6667 33.8327 32.6667H47.8327C48.4767 32.6667 48.9993 33.1894 48.9993 33.8334C48.9993 34.4774 48.4767 35 47.8327 35Z" fill="#6B84FE"/>
<path d="M47.8327 44.3333H33.8327C33.1887 44.3333 32.666 43.8107 32.666 43.1667C32.666 42.5227 33.1887 42 33.8327 42H47.8327C48.4767 42 48.9993 42.5227 48.9993 43.1667C48.9993 43.8107 48.4767 44.3333 47.8327 44.3333Z" fill="#6B84FE"/>
<path d="M33.8327 16.3334H22.166C20.2363 16.3334 18.666 14.763 18.666 12.8334V8.16669C18.666 6.23702 20.2363 4.66669 22.166 4.66669H33.8327C35.7624 4.66669 37.3327 6.23702 37.3327 8.16669V12.8334C37.3327 14.763 35.7624 16.3334 33.8327 16.3334ZM22.166 7.00002C21.522 7.00002 20.9993 7.52269 20.9993 8.16669V12.8334C20.9993 13.4774 21.522 14 22.166 14H33.8327C34.4767 14 34.9993 13.4774 34.9993 12.8334V8.16669C34.9993 7.52269 34.4767 7.00002 33.8327 7.00002H22.166Z" fill="#6B84FE"/>
</g>
<defs>
<clipPath id="clip0_1083_34">
<rect width="56" height="56" fill="white"/>
</clipPath>
</defs>
</svg>
