<svg width="30" height="29" viewBox="0 0 30 29" fill="none" xmlns="http://www.w3.org/2000/svg">
<path fill-rule="evenodd" clip-rule="evenodd" d="M22.1269 0.760773C20.9743 0.666613 19.5405 0.666626 17.7115 0.666626H12.2887C10.4597 0.666626 9.0258 0.666613 7.87333 0.760773C6.6998 0.856653 5.73034 1.05513 4.85282 1.50224C3.41024 2.23727 2.23739 3.41012 1.50236 4.85269C1.05525 5.73021 0.856775 6.69969 0.760895 7.87321C0.666735 9.02568 0.666748 10.4596 0.666748 12.2885V17.971C0.666748 21.3008 3.36596 24 6.69563 24H7.49796C7.8293 24 8.05586 24.3346 7.9328 24.6422C7.01726 26.9312 9.65328 29.0004 11.6593 27.5676L15.1402 25.0812L15.2058 25.0345C16.151 24.3685 17.2773 24.0074 18.4335 24.0001L18.5139 24H19.4415C21.5063 24.0002 22.7659 24.0005 23.8239 23.6902C26.3295 22.9556 28.289 20.9961 29.0237 18.4905C29.334 17.4325 29.3337 16.173 29.3334 14.1082V12.2885C29.3334 10.4596 29.3334 9.02565 29.2393 7.87321C29.1434 6.69968 28.9449 5.73021 28.4978 4.85269C27.7627 3.41012 26.5899 2.23727 25.1473 1.50224C24.2698 1.05513 23.3004 0.856653 22.1269 0.760773ZM5.7608 3.28425C6.30937 3.00475 6.98635 2.83991 8.03619 2.75413C9.09771 2.6674 10.4501 2.66663 12.3334 2.66663H17.6667C19.5501 2.66663 20.9025 2.6674 21.9639 2.75413C23.0138 2.83991 23.6908 3.00475 24.2394 3.28425C25.3055 3.82753 26.1725 4.69443 26.7158 5.76068C26.9953 6.30925 27.1601 6.98623 27.2459 8.03607C27.3326 9.09759 27.3334 10.4499 27.3334 12.3333V13.9122C27.3334 16.2348 27.3233 17.1817 27.1045 17.9277C26.5614 19.7797 25.1131 21.228 23.2612 21.771C22.5152 21.9898 21.5682 22 19.2457 22H18.5139L18.4207 22.0001C16.8563 22.0101 15.3325 22.4985 14.0537 23.3996L10.4968 25.9401C10.1162 26.212 9.61604 25.8193 9.78976 25.385C10.4383 23.7637 9.24423 22 7.49796 22H6.69563C4.47053 22 2.66675 20.1962 2.66675 17.971V12.3333C2.66675 10.4499 2.66752 9.09759 2.75425 8.03607C2.84003 6.98623 3.00487 6.30925 3.28437 5.76068C3.82765 4.69443 4.69455 3.82753 5.7608 3.28425Z" fill="url(#paint0_linear_1302_406)"/>
<path d="M11.0002 12.3333C11.0002 13.0697 10.4032 13.6667 9.66683 13.6667C8.93046 13.6667 8.3335 13.0697 8.3335 12.3333C8.3335 11.597 8.93046 11 9.66683 11C10.4032 11 11.0002 11.597 11.0002 12.3333Z" fill="url(#paint1_linear_1302_406)"/>
<path d="M16.3334 12.3333C16.3334 13.0697 15.7365 13.6667 15.0001 13.6667C14.2637 13.6667 13.6667 13.0697 13.6667 12.3333C13.6667 11.597 14.2637 11 15.0001 11C15.7365 11 16.3334 11.597 16.3334 12.3333Z" fill="url(#paint2_linear_1302_406)"/>
<path d="M21.6667 12.3333C21.6667 13.0697 21.0697 13.6667 20.3333 13.6667C19.5969 13.6667 19 13.0697 19 12.3333C19 11.597 19.5969 11 20.3333 11C21.0697 11 21.6667 11.597 21.6667 12.3333Z" fill="url(#paint3_linear_1302_406)"/>
<defs>
<linearGradient id="paint0_linear_1302_406" x1="15.0001" y1="0.666626" x2="15.0001" y2="28.0404" gradientUnits="userSpaceOnUse">
<stop stop-color="#FF8C40"/>
<stop offset="1" stop-color="#FA8BFF"/>
</linearGradient>
<linearGradient id="paint1_linear_1302_406" x1="9.66683" y1="11" x2="9.66683" y2="13.6667" gradientUnits="userSpaceOnUse">
<stop stop-color="#FF8C40"/>
<stop offset="1" stop-color="#FA8BFF"/>
</linearGradient>
<linearGradient id="paint2_linear_1302_406" x1="15.0001" y1="11" x2="15.0001" y2="13.6667" gradientUnits="userSpaceOnUse">
<stop stop-color="#FF8C40"/>
<stop offset="1" stop-color="#FA8BFF"/>
</linearGradient>
<linearGradient id="paint3_linear_1302_406" x1="20.3333" y1="11" x2="20.3333" y2="13.6667" gradientUnits="userSpaceOnUse">
<stop stop-color="#FF8C40"/>
<stop offset="1" stop-color="#FA8BFF"/>
</linearGradient>
</defs>
</svg>
