<svg width="48" height="48" viewBox="0 0 48 48" fill="none" xmlns="http://www.w3.org/2000/svg">
<circle cx="24" cy="24" r="24" fill="white"/>
<path fill-rule="evenodd" clip-rule="evenodd" d="M28 15H20C17.2386 15 15 17.2386 15 20V28C15 30.7614 17.2386 33 20 33H28C30.7614 33 33 30.7614 33 28V20C33 17.2386 30.7614 15 28 15ZM31.25 28C31.2445 29.7926 29.7926 31.2445 28 31.25H20C18.2074 31.2445 16.7555 29.7926 16.75 28V20C16.7555 18.2074 18.2074 16.7555 20 16.75H28C29.7926 16.7555 31.2445 18.2074 31.25 20V28ZM28.75 20.25C29.3023 20.25 29.75 19.8023 29.75 19.25C29.75 18.6977 29.3023 18.25 28.75 18.25C28.1977 18.25 27.75 18.6977 27.75 19.25C27.75 19.8023 28.1977 20.25 28.75 20.25ZM24 19.5C21.5147 19.5 19.5 21.5147 19.5 24C19.5 26.4853 21.5147 28.5 24 28.5C26.4853 28.5 28.5 26.4853 28.5 24C28.5027 22.8057 28.0294 21.6596 27.1849 20.8151C26.3404 19.9706 25.1943 19.4973 24 19.5ZM21.25 24C21.25 25.5188 22.4812 26.75 24 26.75C25.5188 26.75 26.75 25.5188 26.75 24C26.75 22.4812 25.5188 21.25 24 21.25C22.4812 21.25 21.25 22.4812 21.25 24Z" fill="#6B84FE"/>
</svg>
