<svg width="18" height="18" viewBox="0 0 18 18" fill="none" xmlns="http://www.w3.org/2000/svg">
<g clip-path="url(#clip0_8_273)">
<path d="M3.49963 6.37795e-06C2.81022 6.37795e-06 2.25049 0.560105 2.25049 1.26673V16.7333C2.25049 17.4428 2.81022 18 3.49963 18H14.4991C15.1886 18 15.7494 17.4333 15.7494 16.7333V3.93641C15.7494 3.78691 15.688 3.64453 15.5824 3.5387C14.416 2.37032 13.1709 1.12501 12.2338 0.187873C12.1509 0.105045 12.0296 0 11.813 0L3.49963 6.37795e-06ZM11.2527 1.12501L11.2482 3.93641C11.2478 4.24877 11.5006 4.5011 11.8129 4.5011H14.6243V16.7333C14.6243 16.814 14.5714 16.875 14.4991 16.875H3.49956C3.42724 16.875 3.37542 16.8161 3.37542 16.7333C3.37542 16.7333 3.37542 6.42225 3.37542 1.26673C3.37542 1.18386 3.42723 1.12501 3.49956 1.12501C5.79805 1.125 8.66831 1.12501 11.2527 1.12501ZM12.3755 1.92042L13.8312 3.3761H12.3733L12.3755 1.92042ZM5.62549 6.18641C4.87512 6.18641 4.87512 7.3125 5.62549 7.3125H12.3733C13.124 7.3125 13.124 6.18641 12.3733 6.18641H5.62549ZM5.62549 8.99781C4.87512 8.99781 4.87512 10.1228 5.62549 10.1228H12.3733C13.1237 10.1228 13.1237 8.99781 12.3733 8.99781H5.62549ZM5.62549 12.9386H12.3733C13.1237 12.9386 13.1237 11.8136 12.3733 11.8136H5.62549C4.87512 11.8136 4.87512 12.9386 5.62549 12.9386Z" fill="#666666"/>
</g>
<defs>
<clipPath id="clip0_8_273">
<rect width="18" height="18" fill="white"/>
</clipPath>
</defs>
</svg>
