<svg width="40" height="40" viewBox="0 0 40 40" fill="none" xmlns="http://www.w3.org/2000/svg">
<path d="M20.0004 0C6.78766 0 -0.896013 14.8433 6.41969 25.6132C8.07446 28.0493 10.3277 29.9798 12.9691 31.2328V35.2344H15.3129V40H24.6879V35.2344H27.0316V31.2328C29.6732 29.9798 31.9263 28.0494 33.5811 25.6132C40.8931 14.8487 33.2183 0 20.0004 0ZM22.3441 37.6562H17.6566V35.2344H22.3441V37.6562ZM25.4087 29.3907L24.6878 29.6913V32.8906H21.1722V22.1477C23.8434 21.6034 25.8597 19.2359 25.8597 16.4062H23.5159C23.5159 18.3448 21.9389 19.9219 20.0003 19.9219C18.0618 19.9219 16.4847 18.3448 16.4847 16.4062H14.1409C14.1409 19.2359 16.1572 21.6033 18.8284 22.1477V32.8906H15.3128V29.6912L14.592 29.3906C9.33485 27.1981 5.93789 22.1014 5.93789 16.4062C5.93789 8.65219 12.2463 2.34375 20.0004 2.34375C27.7545 2.34375 34.0629 8.65219 34.0629 16.4062C34.0629 22.1014 30.6659 27.1981 25.4087 29.3907Z" fill="#6B84FE"/>
</svg>
