<svg width="48" height="48" viewBox="0 0 48 48" fill="none" xmlns="http://www.w3.org/2000/svg">
<circle cx="24" cy="24" r="24" fill="white"/>
<path fill-rule="evenodd" clip-rule="evenodd" d="M17 15H31C32.1046 15 33 15.8954 33 17V31C33 32.1046 32.1046 33 31 33H17C15.8954 33 15 32.1046 15 31V17C15 15.8954 15.8954 15 17 15ZM20 30C20.2761 30 20.5 29.7761 20.5 29.5V22.5C20.5 22.2239 20.2761 22 20 22H18.5C18.2239 22 18 22.2239 18 22.5V29.5C18 29.7761 18.2239 30 18.5 30H20ZM19.25 21C18.4216 21 17.75 20.3284 17.75 19.5C17.75 18.6716 18.4216 18 19.25 18C20.0784 18 20.75 18.6716 20.75 19.5C20.75 20.3284 20.0784 21 19.25 21ZM29.5 30C29.7761 30 30 29.7761 30 29.5V24.9C30.0325 23.3108 28.8576 21.9545 27.28 21.76C26.177 21.6593 25.1083 22.1744 24.5 23.1V22.5C24.5 22.2239 24.2761 22 24 22H22.5C22.2239 22 22 22.2239 22 22.5V29.5C22 29.7761 22.2239 30 22.5 30H24C24.2761 30 24.5 29.7761 24.5 29.5V25.75C24.5 24.9216 25.1716 24.25 26 24.25C26.8284 24.25 27.5 24.9216 27.5 25.75V29.5C27.5 29.7761 27.7239 30 28 30H29.5Z" fill="#6B84FE"/>
</svg>
