<svg width="91" height="32" viewBox="0 0 91 32" fill="none" xmlns="http://www.w3.org/2000/svg">
<path d="M90.7459 21.945C90.3556 22.3987 90.0374 22.9694 89.5615 23.2828C88.4852 23.9938 87.3968 23.604 86.4376 22.3005C82.452 24.0515 79.0354 23.3171 76.8482 20.2408C75.8705 18.8601 75.3648 17.1799 75.4113 15.4666C75.4578 13.7534 76.0539 12.1054 77.1049 10.7842C78.219 9.3942 79.7733 8.46166 81.4892 8.15367C83.2051 7.84568 84.9705 8.18235 86.4691 9.10338C87.6265 7.85601 88.5557 7.55509 89.593 8.25985C90.0644 8.57948 90.3721 9.15795 90.7534 9.61947L90.7459 21.945ZM79.2921 15.7175C79.3098 16.663 79.6848 17.5633 80.3362 18.224C80.9875 18.8848 81.8628 19.253 82.7733 19.2491C84.6572 19.2351 86.2485 17.5979 86.2379 15.6817C86.2274 13.7654 84.6302 12.1048 82.7778 12.0955C81.8539 12.0984 80.9687 12.4809 80.3156 13.1596C79.6624 13.8383 79.2945 14.7579 79.2921 15.7175ZM62.26 23.1362V27.5955C62.26 27.9853 62.2735 28.3751 62.26 28.7649C62.1939 30.098 61.2512 31.0289 59.9677 31.0445C58.6842 31.0601 57.6785 30.137 57.5959 28.8413C57.5434 28.0134 57.5719 27.1777 57.5704 26.3466C57.5704 21.2012 57.5839 16.0559 57.5599 10.9105C57.5599 9.75824 57.7941 8.77906 58.8374 8.21931C59.8326 7.68294 60.7543 7.87472 61.619 8.61379C61.7541 8.72761 62.1204 8.64809 62.3351 8.55142C66.8235 6.52445 72.004 9.21408 72.9857 14.1334C73.5742 17.0803 72.8086 19.6763 70.6665 21.7095C68.4808 23.7848 65.9003 24.3025 63.0631 23.4044C62.8424 23.328 62.6323 23.2547 62.26 23.1362ZM65.513 12.0659C65.032 12.0611 64.5549 12.1553 64.1091 12.3429C63.6633 12.5305 63.2576 12.8079 62.9155 13.1591C62.5734 13.5102 62.3015 13.9283 62.1156 14.389C61.9296 14.8498 61.8333 15.3442 61.8322 15.8438C61.8289 16.5939 62.0398 17.3282 62.4381 17.954C62.8364 18.5797 63.4043 19.0688 64.0701 19.3594C64.7359 19.6501 65.4696 19.7293 66.1787 19.5871C66.8878 19.4449 67.5405 19.0876 68.0542 18.5603C68.5679 18.0331 68.9196 17.3595 69.065 16.6247C69.2103 15.8899 69.1428 15.1269 68.8709 14.432C68.599 13.737 68.1349 13.1414 67.5372 12.7203C66.9396 12.2991 66.2352 12.0714 65.513 12.0659ZM43.7507 23.1362C43.7507 25.0743 43.7673 26.8908 43.7432 28.7072C43.7448 29.1925 43.599 29.6659 43.3265 30.06C43.054 30.4542 42.6688 30.749 42.2256 30.9026C41.2738 31.2144 40.3281 31.0959 39.7021 30.2477C39.3288 29.738 39.1136 29.1224 39.0852 28.4827C39.0401 22.4813 39.0596 16.4768 39.0566 10.4786C39.0566 9.45576 39.4394 8.65744 40.3326 8.18968C41.2258 7.72192 42.152 7.803 42.9206 8.49217C43.3169 8.84611 43.5961 8.63873 43.9309 8.49217C48.3953 6.57435 53.3882 9.17666 54.424 14.0086C55.071 17.0148 54.3039 19.6374 52.1137 21.7127C49.9235 23.788 47.3881 24.276 44.5869 23.4091C44.3452 23.3373 44.1125 23.2594 43.7507 23.1362ZM46.9257 19.6155C47.6453 19.6189 48.3496 19.4005 48.9497 18.988C49.5497 18.5755 50.0185 17.9874 50.2967 17.2981C50.5749 16.6088 50.65 15.8493 50.5125 15.1157C50.375 14.382 50.031 13.7073 49.5242 13.1767C49.0174 12.6461 48.3704 12.2836 47.6652 12.1351C46.96 11.9865 46.2282 12.0585 45.5624 12.342C44.8966 12.6256 44.3267 13.1078 43.9249 13.7278C43.5231 14.3478 43.3073 15.0777 43.3049 15.8251C43.2989 17.8614 44.9667 19.6077 46.9257 19.6218V19.6155ZM20.678 10.8668V2.67634C20.681 1.08907 21.6192 0.0599976 23.0423 0.0599976C24.4654 0.0599976 25.3856 1.12493 25.3856 2.69973C25.3856 7.77026 25.3961 12.8345 25.3766 17.9113C25.3766 18.5755 25.4922 19.0028 26.1647 19.2819C27.2621 19.7496 27.7439 20.9767 27.4107 22.1243C27.255 22.692 26.9095 23.1833 26.4362 23.51C25.9629 23.8367 25.3929 23.9773 24.8287 23.9065C22.3203 23.6227 20.7035 21.7547 20.6825 19.0573C20.66 16.3272 20.678 13.597 20.678 10.8668ZM12.3361 15.889L16.0364 19.4113C17.1968 20.5167 17.3424 22.051 16.3892 23.13C15.436 24.2089 13.9573 24.1855 12.7864 23.0816C10.934 21.3416 9.08258 19.6005 7.23215 17.8583C6.03123 16.7263 6.02072 15.125 7.21564 13.9821C9.08708 12.1901 10.967 10.4048 12.8555 8.62626C13.9678 7.58003 15.472 7.6159 16.4042 8.67771C17.3364 9.73953 17.2163 11.2332 16.1295 12.2888C14.8925 13.4894 13.6301 14.6635 12.3361 15.889ZM30.5376 15.8376C30.5376 14.0461 30.5286 12.2514 30.5376 10.463C30.5466 8.92407 31.5329 7.89187 32.962 7.90123C34.34 7.90903 35.3158 8.94746 35.3203 10.4521C35.3293 14.0632 35.3293 17.6733 35.3203 21.2823C35.3203 22.8119 34.283 23.933 32.9334 23.922C31.5479 23.9049 30.5451 22.8166 30.5316 21.2917C30.5301 19.4736 30.5376 17.6556 30.5376 15.8376ZM0.771181 6.33423C0.771181 5.13988 0.75617 3.94553 0.771181 2.74806C0.804207 1.08439 1.73042 0.0599976 3.15502 0.0599976C4.61564 0.0677936 5.55686 1.15144 5.56587 2.81511C5.56587 5.25682 5.57488 7.69853 5.56587 10.1434C5.57558 10.6666 5.4237 11.1793 5.13249 11.6063C4.84127 12.0334 4.42604 12.3523 3.94763 12.5165C2.97938 12.8455 1.86552 12.5788 1.32361 11.7228C1.01337 11.2009 0.831873 10.6075 0.7952 9.99524C0.71714 8.78062 0.772682 7.55509 0.771181 6.33423Z" fill="white"/>
<path d="M5.44194 21.3292C5.44194 22.8307 4.55025 23.7927 3.14968 23.7912C1.81665 23.7912 0.864918 22.7902 0.858913 21.3822C0.852909 19.9743 1.86619 18.875 3.1767 18.8875C4.4872 18.9 5.43894 19.9197 5.44194 21.3292Z" fill="white"/>
</svg>
