<svg width="74" height="74" viewBox="0 0 74 74" fill="none" xmlns="http://www.w3.org/2000/svg">
<path d="M62.7265 52.8984H57.6462C57.2993 52.8984 56.9741 53.0502 56.7573 53.3176C56.2515 53.9318 55.7095 54.5244 55.1386 55.0881C52.8037 57.4254 50.0379 59.2881 46.9942 60.573C43.841 61.9049 40.4518 62.5881 37.0288 62.582C33.5673 62.582 30.2142 61.9027 27.0634 60.573C24.0197 59.2881 21.2539 57.4254 18.919 55.0881C16.5799 52.7587 14.7148 49.9977 13.4269 46.9582C12.0899 43.8074 11.4179 40.4615 11.4179 37C11.4179 33.5385 12.0972 30.1926 13.4269 27.0418C14.7132 23.9994 16.5632 21.2605 18.919 18.9119C21.2749 16.5633 24.0138 14.7133 27.0634 13.4269C30.2142 12.0973 33.5673 11.418 37.0288 11.418C40.4903 11.418 43.8435 12.09 46.9942 13.4269C50.0438 14.7133 52.7827 16.5633 55.1386 18.9119C55.7095 19.4828 56.2442 20.0754 56.7573 20.6824C56.9741 20.9498 57.3065 21.1015 57.6462 21.1015H62.7265C63.1817 21.1015 63.4636 20.5957 63.2106 20.2127C57.6679 11.5986 47.9698 5.89686 36.9493 5.92577C19.6345 5.96913 5.75224 20.0248 5.92568 37.318C6.09912 54.3365 19.9597 68.0742 37.0288 68.0742C48.0204 68.0742 57.6751 62.3797 63.2106 53.7873C63.4563 53.4043 63.1817 52.8984 62.7265 52.8984ZM69.1509 36.5447L58.8964 28.451C58.5134 28.1475 57.9569 28.4221 57.9569 28.9062V34.3984H35.2655C34.9476 34.3984 34.6874 34.6586 34.6874 34.9766V39.0234C34.6874 39.3414 34.9476 39.6016 35.2655 39.6016H57.9569V45.0937C57.9569 45.5779 58.5206 45.8525 58.8964 45.549L69.1509 37.4553C69.22 37.4012 69.2759 37.3321 69.3143 37.2532C69.3527 37.1743 69.3727 37.0877 69.3727 37C69.3727 36.9122 69.3527 36.8256 69.3143 36.7468C69.2759 36.6679 69.22 36.5988 69.1509 36.5447Z" fill="black"/>
</svg>
