<svg width="603" height="96" viewBox="0 0 603 96" fill="none" xmlns="http://www.w3.org/2000/svg">
<path d="M148.781 72.9326C123.913 72.9326 121.299 62.0291 121.299 55.5319H130.634C130.634 60.2368 133.397 65.1657 148.781 65.1657C164.539 65.1657 167.302 61.5064 167.302 57.2495C167.302 54.7851 165.809 53.2167 162.747 52.3953C159.237 51.5738 151.171 51.3497 145.421 51.051C138.998 50.6776 131.082 50.0055 126.974 48.0637C123.315 46.3461 121 42.7614 121 38.1311C121 29.3188 129.663 22 148.557 22C171.111 22 175.293 30.1402 175.293 38.9526H165.958C165.958 33.3515 161.701 29.7668 148.557 29.7668C136.534 29.7668 131.231 32.7541 131.231 37.3843C131.231 39.8488 132.576 41.1931 135.04 42.0892C138.102 43.1348 146.392 43.4335 151.918 43.7322C158.863 44.1056 165.958 44.5537 170.364 46.122C174.995 47.9144 177.608 51.7978 177.608 56.5027C177.608 63.9708 173.352 72.9326 148.781 72.9326Z" fill="#0F172A"/>
<path d="M186.161 72.0364V22.8962H196.467V42.612H234.927V22.8962H245.159V72.0364H234.927V50.4535H196.467V72.0364H186.161Z" fill="#0F172A"/>
<path d="M308.998 72.0364L302.874 61.133H269.044L262.92 72.0364H252.091L280.545 22.8962H292.568L321.022 72.0364H308.998ZM272.853 54.337H299.066L285.996 31.1858H285.922L272.853 54.337Z" fill="#0F172A"/>
<path d="M327.938 72.0364V22.8962H358.856C375.211 22.8962 381.485 28.4973 381.485 37.235C381.485 42.612 378.647 47.2422 372.299 48.8852V49.0346C379.319 50.5282 381.186 55.4572 381.186 61.581V72.0364H370.954V61.581C370.954 55.8306 368.191 53.0674 361.097 53.0674H338.244V72.0364H327.938ZM338.244 46.2714H360.126C368.266 46.2714 371.851 43.2095 371.851 38.6539C371.851 34.0237 368.117 31.0364 358.035 31.0364H338.244V46.2714Z" fill="#0F172A"/>
<path d="M391.242 72.0364V22.8962H420.816C436.2 22.8962 443.519 28.8707 443.519 39.9235C443.519 50.7523 436.424 56.7268 420.891 56.7268H401.548V72.0364H391.242ZM401.548 49.632H420.069C429.255 49.632 433.661 46.6448 433.661 40.2969C433.661 34.173 429.778 31.0364 419.994 31.0364H401.548V49.632Z" fill="#0F172A"/>
<path d="M503.281 72.9326C480.578 72.9326 472.737 60.0127 472.737 47.6157C472.737 33.5009 483.043 22 502.833 22C523.893 22 530.988 33.5756 530.988 41.5665V42.5373H521.653V42.2386C521.653 37.0856 516.575 30.1402 503.356 30.1402C490.287 30.1402 483.342 37.5337 483.342 47.6157C483.342 56.428 489.092 64.7923 503.505 64.7923C515.903 64.7923 521.952 59.1166 521.952 52.918V52.4699H531.287V53.2914C531.287 62.5519 523.221 72.9326 503.281 72.9326Z" fill="#6B84FE"/>
<path d="M561.827 72.0364L533.672 22.8962H545.546L568.399 63.4481H568.548L591.251 22.8962H602.08L574 72.0364H561.827Z" fill="#6B84FE"/>
<path d="M47.5746 23.8288C54.1547 23.8288 59.489 18.4945 59.489 11.9144C59.489 5.33426 54.1547 0 47.5746 0C40.9944 0 35.6602 5.33426 35.6602 11.9144C35.6602 18.4945 40.9944 23.8288 47.5746 23.8288Z" fill="#0F172A"/>
<path d="M51.0345 29.7446L49.5635 34.3861L52.265 63.4078L47.5741 67.3344L42.8833 63.4078L45.5852 34.3861L44.1102 29.745C26.943 32.0602 16.91 51.3599 25.9355 66.9927L39.7982 91.0036C43.2541 96.9895 51.8941 96.9895 55.3501 91.0036L69.2128 66.9927C78.2389 51.359 68.2037 32.0577 51.0345 29.7446Z" fill="#0F172A"/>
<path d="M79.2569 47.4274C83.4363 47.4274 86.8244 44.0393 86.8244 39.8599C86.8244 35.6805 83.4363 32.2925 79.2569 32.2925C75.0775 32.2925 71.6895 35.6805 71.6895 39.8599C71.6895 44.0393 75.0775 47.4274 79.2569 47.4274Z" fill="#6B84FE"/>
<path d="M81.4548 51.1851L80.5205 54.1331L82.2363 72.5662L79.2569 75.0602L76.2775 72.5662L77.9936 54.1331L77.0568 51.1853C66.1531 52.6558 59.7805 64.9141 65.5131 74.8432L74.318 90.0937C76.513 93.8957 82.0007 93.8957 84.1958 90.0937L93.0007 74.8432C98.7337 64.9135 92.3599 52.6543 81.4548 51.1851Z" fill="#6B84FE"/>
<path d="M15.8936 47.4274C20.073 47.4274 23.4611 44.0393 23.4611 39.8599C23.4611 35.6805 20.073 32.2925 15.8936 32.2925C11.7142 32.2925 8.32617 35.6805 8.32617 39.8599C8.32617 44.0393 11.7142 47.4274 15.8936 47.4274Z" fill="#6B84FE"/>
<path d="M18.0916 51.1851L17.1572 54.1331L18.873 72.5662L15.8936 75.0602L12.9142 72.5662L14.6304 54.1331L13.6935 51.1853C2.7898 52.6558 -3.58278 64.9141 2.14978 74.8432L10.9547 90.0937C13.1498 93.8957 18.6374 93.8957 20.8325 90.0937L29.6374 74.8432C35.3704 64.9135 28.9966 52.6543 18.0916 51.1851Z" fill="#6B84FE"/>
<path d="M45.4197 34.0535L43.6349 29.6069H51.4881L49.7033 34.0535L52.9159 63.5917L47.5615 67.4031L42.207 63.5917L45.4197 34.0535Z" fill="#FF0000"/>
</svg>
