<svg width="147" height="28" viewBox="0 0 147 28" fill="none" xmlns="http://www.w3.org/2000/svg">
<path d="M0.879639 0.234713H4.33394L9.60033 14.688L14.7535 0.234713H18.2078V26.7709H14.7535V9.60044L10.9028 21.1631H8.18464L4.33394 9.60044V26.8288H0.879639V0.234713ZM25.6827 0.234713H30.3262L35.2528 26.7709H31.572L30.5526 21.0475H25.9091L26.3622 18.7927C26.5321 17.9834 26.9285 17.5787 27.608 17.5787H29.9298L27.9477 6.42072L24.2669 26.7709H20.5861L25.6827 0.234713ZM37.801 0.234713H41.1421L47.2013 16.6536V0.234713H50.7122V26.7709H47.5977L41.312 9.77389V26.8288H37.801V0.234713ZM54.3364 21.5678L54.2798 19.1396H58.0738L58.1304 21.7412C58.1304 22.9553 58.9798 23.5912 60.1691 23.5912H60.9052C62.151 23.5912 62.9438 22.9553 62.9438 21.7412V19.1974C62.9438 16.7114 61.5281 16.3067 58.4702 14.5146C54.6195 12.4911 54.3364 11.2192 54.3364 8.38637V5.55352C54.3364 1.91129 56.6015 0.00346045 59.7727 0.0612736H60.9052C64.0763 0.0612736 66.5114 1.91129 66.5114 5.55352V7.80823C66.5114 8.55981 66.0584 8.9645 65.2655 9.08013L62.7739 9.60044V5.32227C62.7739 4.1082 61.9244 3.47225 60.7353 3.47225H59.9991C58.7533 3.47225 58.0738 4.1082 58.0738 5.32227V8.38637C58.0738 10.1208 58.9233 10.6989 60.1124 11.4504L63.2835 13.0692C66.2848 14.5724 66.6812 16.3067 66.6812 18.7927V21.5678C66.6812 25.2101 64.3029 27.06 61.075 27.06H59.9425C56.7147 27.0022 54.3364 25.1522 54.3364 21.5678ZM70.2488 21.5678V5.55352C70.2488 1.91129 72.4572 0.00346045 75.6851 0.0612736H76.8176C79.9887 0.0612736 82.2539 1.73786 82.2539 5.32227V8.0973C82.2539 8.84887 81.8009 9.25357 81.0081 9.36919L78.5165 9.94732V5.32227C78.5165 4.1082 77.837 3.47225 76.5911 3.47225H75.8549C74.6091 3.47225 73.9863 4.1082 73.9863 5.32227V21.799C73.9863 23.0131 74.6091 23.6491 75.8549 23.6491H76.5911C77.837 23.6491 78.5165 23.0131 78.5165 21.799V19.1396H82.3105L82.2539 21.5099C82.2539 25.1521 80.0454 27.0022 76.8176 27.0022H75.6851C72.4572 27.0022 70.2488 25.1522 70.2488 21.5678ZM89.3324 0.234713H93.9759L98.9025 26.7709H95.2217L94.2024 21.0475H89.5589L90.0119 18.7927C90.1818 17.9834 90.5215 17.5787 91.2578 17.5787H93.5795L91.5975 6.42072L87.9166 26.7709H84.2358L89.3324 0.234713ZM101.507 0.234713H108.416C111.588 0.1769 113.852 2.02692 113.852 5.72697V12.2599C113.852 15.9021 111.644 17.8099 108.416 17.6943H105.811V15.5552C105.811 14.5146 106.151 14.2255 107.114 14.2255H108.189C109.435 14.2255 110.058 13.5895 110.058 12.3755V5.49571C110.058 4.28163 109.435 3.64569 108.189 3.64569H105.301V26.8288H101.507V0.234713ZM117.363 0.234713H127.896V3.87694H121.044V23.1288H127.84V26.7709H117.307L117.363 0.234713ZM121.61 12.7224C121.61 11.6817 121.95 11.3926 122.913 11.3926H127.273V15.0349H121.61V12.7224ZM131.463 0.234713H138.372C141.543 0.1769 143.809 2.02692 143.809 5.72697V21.3943C143.809 25.0365 141.599 26.9444 138.372 26.8866H131.463V0.234713ZM138.146 23.36C139.391 23.36 140.015 22.7241 140.015 21.5099V5.49571C140.015 4.28163 139.391 3.64569 138.146 3.64569H135.257V23.4178H138.146V23.36ZM144.262 0.408153H143.752V0.234713H144.998V0.408153H144.488V2.02692H144.262V0.408153ZM145.168 0.234713H145.451L145.96 1.62222L146.47 0.234713H146.753V2.02692H146.526V0.523779L145.96 2.02692H145.904L145.281 0.523779V2.02692H145.11L145.168 0.234713Z" fill="white"/>
</svg>
