<svg width="145" height="32" viewBox="0 0 145 32" fill="none" xmlns="http://www.w3.org/2000/svg">
<path d="M89.7834 13.3962L81.9604 5.43078V5.37557C81.4845 4.91659 80.8547 4.66653 80.2038 4.67812C79.5529 4.68971 78.9318 4.96205 78.4715 5.4377C78.0112 5.91335 77.7477 6.55514 77.7365 7.22772C77.7252 7.90029 77.9672 8.55108 78.4114 9.04284L78.4648 9.09016L86.1733 17.166H89.8215V13.3962H89.7834Z" fill="white"/>
<path d="M91.1208 22.2766L98.9286 30.242L98.982 30.2972C99.4526 30.7825 100.091 31.0547 100.755 31.054C101.42 31.0532 102.058 30.7796 102.527 30.2933C102.997 29.807 103.26 29.1478 103.259 28.4608C103.259 27.7738 102.994 27.1152 102.523 26.63L102.478 26.5826L94.769 18.5068H91.1208V22.2766Z" fill="white"/>
<path d="M94.7461 17.166L102.455 9.0901L102.508 9.04278C102.952 8.55102 103.194 7.90023 103.183 7.22765C103.172 6.55508 102.908 5.91329 102.448 5.43764C101.988 4.96199 101.367 4.68965 100.716 4.67806C100.065 4.66647 99.435 4.91653 98.9591 5.37551L98.9133 5.43072L91.1208 13.3962V17.166H94.7461Z" fill="white"/>
<path d="M86.137 18.5067L78.4361 26.5747L78.3827 26.622C77.912 27.1125 77.6493 27.7761 77.6521 28.4668C77.6535 28.8088 77.7201 29.1472 77.8481 29.4626C77.9761 29.778 78.1629 30.0643 78.3979 30.3051C78.633 30.5459 78.9116 30.7365 79.2179 30.866C79.5242 30.9955 79.8522 31.0614 80.1832 31.06C80.8516 31.057 81.4915 30.7798 81.9622 30.2893L82.008 30.2341L89.8233 22.2765V18.4988H86.1675L86.137 18.5067Z" fill="white"/>
<path d="M20.9722 27.1268L20.0487 13.4672C19.9419 11.8899 19.8732 10.5649 19.8732 9.20057C19.5832 10.6754 19.3695 11.5665 18.9421 13.1439L15.0267 27.1268H10.7985L7.27245 13.7196C6.9519 12.4656 6.50923 10.6675 6.27263 9.19268C6.27263 10.7069 6.20394 12.2132 6.09709 13.7906L5.24229 27.1268H0.296631L2.58629 1.56635H8.95916L12.1952 14.3663C12.5492 15.6983 12.8345 17.0488 13.05 18.4121C13.2862 17.0114 13.5919 15.6242 13.9659 14.2559L17.3088 1.56635H23.6435L25.8492 27.1268H20.9722ZM42.6324 28.0811C41.5508 27.6461 40.6459 26.8418 40.0679 25.8018C39.727 26.1619 39.3596 26.4942 38.9689 26.7955C37.877 27.5214 36.5952 27.8822 35.2978 27.8287C31.2451 27.8287 29.0394 25.6914 29.0394 21.9453C29.0394 17.5288 31.9931 15.4704 37.7935 15.4704H38.8621V14.6817C38.8621 12.5839 38.4652 11.882 36.725 11.882C35.1986 11.882 33.4127 12.6707 31.4588 14.0193L29.4287 10.4861C30.3632 9.86574 31.3521 9.33764 32.3823 8.90876C33.9511 8.18615 35.6486 7.81008 37.3661 7.80464C40.419 7.80464 42.5255 8.97974 43.2353 11.0776C43.5586 12.1721 43.6676 13.3223 43.5558 14.4609L43.449 20.7702C43.449 22.8286 43.5558 23.7119 45.1586 24.9659L42.6324 28.0811ZM38.572 18.8853C35.2673 18.8853 34.1225 19.5162 34.1225 21.756C34.0919 22.0629 34.123 22.373 34.2138 22.6669C34.3046 22.9608 34.4532 23.2321 34.6503 23.4638C34.8473 23.6956 35.0886 23.8828 35.3589 24.0137C35.6293 24.1446 35.9229 24.2164 36.2213 24.2245C36.7016 24.2006 37.1717 24.0731 37.6015 23.8504C38.0313 23.6276 38.4112 23.3145 38.717 22.9311L38.7857 18.8853H38.572ZM53.7219 27.5684C51.3025 27.5684 49.3792 26.4643 48.8144 24.8081C48.5051 23.8762 48.3957 22.8859 48.4939 21.9059V11.6533H46.6774V8.30149H48.4939C48.4554 6.8138 48.5141 5.32512 48.6694 3.84557L53.5082 2.59949C53.3219 4.49408 53.2276 6.39714 53.2258 8.30149H57.4922L56.2863 11.6848H53.2335V21.1487C53.2335 23.5147 53.6609 24.1614 55.2941 24.1614C55.8774 24.1219 56.4526 23.9998 57.0038 23.7986L57.6067 26.7403C56.3776 27.2795 55.0571 27.5609 53.7219 27.5684ZM68.6276 12.5997C68.2056 12.3492 67.725 12.2237 67.2385 12.2369C66.6694 12.2584 66.1122 12.4112 65.6078 12.6841C65.1033 12.957 64.6643 13.3432 64.323 13.8142V27.1268H59.5529V14.5477C59.6213 12.682 59.3944 10.8172 58.8813 9.02706L63.1477 7.85196C63.6035 8.6709 63.8651 9.58982 63.9109 10.5334C64.9412 9.09804 66.4066 7.85196 68.1849 7.85196C68.8009 7.82963 69.4125 7.96795 69.9632 8.25418L68.6276 12.5997ZM73.6419 6.16423C73.256 6.16216 72.8743 6.08158 72.5186 5.92708C72.1629 5.77257 71.8401 5.54718 71.5686 5.26376C71.2972 4.98035 71.0824 4.64446 70.9366 4.27528C70.7908 3.9061 70.7168 3.51086 70.7188 3.11212C70.7268 2.29839 71.0458 1.52095 71.6063 0.94923C72.1667 0.377514 72.9231 0.0578843 73.7106 0.0600081C74.0961 0.0610166 74.4775 0.140998 74.8329 0.295325C75.1882 0.449652 75.5104 0.675261 75.7808 0.959099C76.0513 1.24294 76.2645 1.57937 76.4083 1.94893C76.5521 2.31849 76.6235 2.71384 76.6185 3.11212C76.6195 3.51522 76.543 3.91453 76.3935 4.28685C76.244 4.65918 76.0245 4.99712 75.7475 5.28105C75.4706 5.56499 75.1419 5.78927 74.7805 5.94088C74.419 6.09249 74.032 6.16841 73.6419 6.16423ZM71.2759 27.1268V8.62484L76.0461 7.83619V27.1268H71.2759ZM107.224 6.16423C106.838 6.16217 106.457 6.08153 106.101 5.92693C105.746 5.77233 105.424 5.54681 105.153 5.26329C104.882 4.97977 104.668 4.64382 104.523 4.27468C104.378 3.90555 104.305 3.51048 104.308 3.11212C104.314 2.29911 104.631 1.52165 105.191 0.949717C105.75 0.377781 106.505 0.0578993 107.292 0.0600081C107.678 0.0610166 108.059 0.140998 108.414 0.295325C108.77 0.449652 109.092 0.675261 109.362 0.959099C109.633 1.24294 109.846 1.57937 109.99 1.94893C110.134 2.31849 110.205 2.71384 110.2 3.11212C110.201 3.51522 110.125 3.91453 109.975 4.28685C109.826 4.65918 109.606 4.99712 109.329 5.28105C109.052 5.56499 108.724 5.78927 108.362 5.94088C108.001 6.09249 107.614 6.16841 107.224 6.16423ZM104.858 27.1268V8.62484L109.62 7.83619V27.1268H104.858ZM125.693 28.0811C124.612 27.6461 123.707 26.8418 123.129 25.8018C122.79 26.1638 122.422 26.4962 122.03 26.7955C120.938 27.5214 119.656 27.8822 118.359 27.8287C114.306 27.8287 112.1 25.6914 112.1 21.9453C112.1 17.5288 115.054 15.4704 120.855 15.4704H121.923V14.6817C121.923 12.5839 121.526 11.882 119.786 11.882C118.26 11.882 116.474 12.6707 114.52 14.0193L112.49 10.5413C113.424 9.92095 114.413 9.39285 115.443 8.96397C117.012 8.24136 118.71 7.86529 120.427 7.85985C123.48 7.85985 125.587 9.03495 126.296 11.1328C126.62 12.2274 126.729 13.3775 126.617 14.5161L126.51 20.8254C126.51 22.8838 126.617 23.7671 128.22 25.0211L125.693 28.0811ZM121.648 18.8853C118.344 18.8853 117.206 19.5162 117.206 21.756C117.175 22.0631 117.205 22.3737 117.295 22.6681C117.386 22.9625 117.534 23.2343 117.731 23.4663C117.929 23.6983 118.171 23.8855 118.441 24.016C118.712 24.1465 119.006 24.2175 119.305 24.2245C119.782 24.1973 120.247 24.0683 120.673 23.8457C121.099 23.6231 121.475 23.3117 121.778 22.9311L121.847 18.8853H121.648ZM140.179 27.1268V14.8789C140.179 12.7495 139.821 12.1186 138.577 12.1186C137.318 12.2772 136.149 12.8755 135.264 13.8142V27.1268H130.494V13.4672C130.517 11.9686 130.3 10.4764 129.853 9.05072L134.089 7.80464C134.51 8.51885 134.745 9.33434 134.768 10.1706C135.44 9.66268 136.141 9.19655 136.867 8.77469C137.887 8.26028 139.006 7.99068 140.141 7.98603C142.171 7.98603 143.957 9.08227 144.522 10.7069C144.791 11.5723 144.91 12.4801 144.873 13.3883V27.1268H140.179Z" fill="white"/>
</svg>
