<svg width="56" height="40" viewBox="0 0 56 40" fill="none" xmlns="http://www.w3.org/2000/svg">
<path d="M51.0781 0.3125H4.92188C2.20248 0.3125 0 2.52866 0 5.23438V34.7656C0 37.4874 2.21867 39.6875 4.92188 39.6875H51.0781C53.7748 39.6875 56 37.4967 56 34.7656V5.23438C56 2.53347 53.8063 0.3125 51.0781 0.3125ZM50.3888 3.59375C49.3833 4.59398 32.0778 21.8083 31.4803 22.4026C30.5506 23.3323 29.3147 23.8442 28 23.8442C26.6853 23.8442 25.4494 23.3322 24.5166 22.3996C24.1148 21.9998 7.00033 4.97559 5.61116 3.59375H50.3888ZM3.28125 34.0978V5.9043L17.4604 20.0087L3.28125 34.0978ZM5.61323 36.4062L19.7868 22.3228L22.1995 24.7228C23.7489 26.2722 25.8089 27.1255 28 27.1255C30.1911 27.1255 32.2511 26.2722 33.7974 24.7259L36.2132 22.3228L50.3868 36.4062H5.61323ZM52.7188 34.0978L38.5396 20.0087L52.7188 5.9043V34.0978Z" fill="#6B84FE"/>
</svg>
