<svg width="56" height="56" viewBox="0 0 56 56" fill="none" xmlns="http://www.w3.org/2000/svg">
<path d="M47.4467 11.6231L36.9004 1.64566C35.7786 0.584391 34.3104 0 32.7662 0H12.6875C9.37048 0 6.67188 2.69861 6.67188 6.01562V49.9844C6.67188 53.3014 9.37048 56 12.6875 56H43.3125C46.6295 56 49.3281 53.3014 49.3281 49.9844V15.993C49.3281 14.347 48.6423 12.7542 47.4467 11.6231ZM44.2598 13.125H36.0938C35.7922 13.125 35.5469 12.8797 35.5469 12.5781V4.88206L44.2598 13.125ZM43.3125 52.7188H12.6875C11.1798 52.7188 9.95312 51.4921 9.95312 49.9844V6.01562C9.95312 4.50789 11.1798 3.28125 12.6875 3.28125H32.2656V12.5781C32.2656 14.689 33.9829 16.4062 36.0938 16.4062H46.0469V49.9844C46.0469 51.4921 44.8202 52.7188 43.3125 52.7188Z" fill="#0F172A"/>
<path d="M39.7031 21.875H15.6406C14.7346 21.875 14 22.6096 14 23.5156C14 24.4217 14.7346 25.1562 15.6406 25.1562H39.7031C40.6092 25.1562 41.3438 24.4217 41.3438 23.5156C41.3438 22.6096 40.6092 21.875 39.7031 21.875Z" fill="#0F172A"/>
<path d="M39.7031 30.625H15.6406C14.7346 30.625 14 31.3596 14 32.2656C14 33.1717 14.7346 33.9062 15.6406 33.9062H39.7031C40.6092 33.9062 41.3438 33.1717 41.3438 32.2656C41.3438 31.3596 40.6092 30.625 39.7031 30.625Z" fill="#0F172A"/>
<path d="M23.5944 39.375H15.6406C14.7346 39.375 14 40.1096 14 41.0156C14 41.9217 14.7346 42.6562 15.6406 42.6562H23.5944C24.5004 42.6562 25.235 41.9217 25.235 41.0156C25.235 40.1096 24.5004 39.375 23.5944 39.375Z" fill="#0F172A"/>
</svg>
