<svg width="44" height="56" viewBox="0 0 44 56" fill="none" xmlns="http://www.w3.org/2000/svg">
<path d="M41.4467 11.6231L30.9004 1.64566C29.7786 0.584391 28.3104 0 26.7662 0H6.6875C3.37048 0 0.671875 2.69861 0.671875 6.01562V49.9844C0.671875 53.3014 3.37048 56 6.6875 56H37.3125C40.6295 56 43.3281 53.3014 43.3281 49.9844V15.993C43.3281 14.347 42.6423 12.7542 41.4467 11.6231ZM38.2598 13.125H30.0938C29.7922 13.125 29.5469 12.8797 29.5469 12.5781V4.88206L38.2598 13.125ZM37.3125 52.7188H6.6875C5.17977 52.7188 3.95312 51.4921 3.95312 49.9844V6.01562C3.95312 4.50789 5.17977 3.28125 6.6875 3.28125H26.2656V12.5781C26.2656 14.689 27.9829 16.4062 30.0938 16.4062H40.0469V49.9844C40.0469 51.4921 38.8202 52.7188 37.3125 52.7188Z" fill="white"/>
</svg>
