<svg width="78" height="21" viewBox="0 0 78 21" fill="none" xmlns="http://www.w3.org/2000/svg">
<path d="M33.854 8.168C33.854 8.66267 33.7373 9.12933 33.504 9.568C33.2707 10.0067 32.8973 10.366 32.384 10.646C31.8707 10.9167 31.2127 11.052 30.41 11.052H28.646V15H27.05V5.27H30.41C31.1567 5.27 31.7867 5.40067 32.3 5.662C32.8227 5.914 33.21 6.25933 33.462 6.698C33.7233 7.13667 33.854 7.62667 33.854 8.168ZM30.41 9.75C31.0167 9.75 31.4693 9.61467 31.768 9.344C32.0667 9.064 32.216 8.672 32.216 8.168C32.216 7.104 31.614 6.572 30.41 6.572H28.646V9.75H30.41ZM40.4302 15L38.1902 11.108H36.9722V15H35.3762V5.27H38.7362C39.4828 5.27 40.1128 5.40067 40.6262 5.662C41.1488 5.92333 41.5362 6.27333 41.7882 6.712C42.0495 7.15067 42.1802 7.64067 42.1802 8.182C42.1802 8.81667 41.9935 9.39533 41.6202 9.918C41.2562 10.4313 40.6915 10.7813 39.9262 10.968L42.3342 15H40.4302ZM36.9722 9.834H38.7362C39.3335 9.834 39.7815 9.68467 40.0802 9.386C40.3882 9.08733 40.5422 8.686 40.5422 8.182C40.5422 7.678 40.3928 7.286 40.0942 7.006C39.7955 6.71667 39.3428 6.572 38.7362 6.572H36.9722V9.834ZM48.6599 15.098C47.7545 15.098 46.9192 14.888 46.1539 14.468C45.3979 14.0387 44.7959 13.446 44.3479 12.69C43.9092 11.9247 43.6899 11.066 43.6899 10.114C43.6899 9.162 43.9092 8.308 44.3479 7.552C44.7959 6.796 45.3979 6.208 46.1539 5.788C46.9192 5.35867 47.7545 5.144 48.6599 5.144C49.5745 5.144 50.4099 5.35867 51.1659 5.788C51.9312 6.208 52.5332 6.796 52.9719 7.552C53.4105 8.308 53.6299 9.162 53.6299 10.114C53.6299 11.066 53.4105 11.9247 52.9719 12.69C52.5332 13.446 51.9312 14.0387 51.1659 14.468C50.4099 14.888 49.5745 15.098 48.6599 15.098ZM48.6599 13.712C49.3039 13.712 49.8779 13.5673 50.3819 13.278C50.8859 12.9793 51.2779 12.5593 51.5579 12.018C51.8472 11.4673 51.9919 10.8327 51.9919 10.114C51.9919 9.39533 51.8472 8.76533 51.5579 8.224C51.2779 7.68267 50.8859 7.26733 50.3819 6.978C49.8779 6.68867 49.3039 6.544 48.6599 6.544C48.0159 6.544 47.4419 6.68867 46.9379 6.978C46.4339 7.26733 46.0372 7.68267 45.7479 8.224C45.4679 8.76533 45.3279 9.39533 45.3279 10.114C45.3279 10.8327 45.4679 11.4673 45.7479 12.018C46.0372 12.5593 46.4339 12.9793 46.9379 13.278C47.4419 13.5673 48.0159 13.712 48.6599 13.712ZM65.1231 5.27V6.572H62.5331V15H60.9371V6.572H58.3331V5.27H65.1231ZM68.3355 5.27V15H66.7395V5.27H68.3355ZM77.2349 8.168C77.2349 8.66267 77.1182 9.12933 76.8849 9.568C76.6515 10.0067 76.2782 10.366 75.7649 10.646C75.2515 10.9167 74.5935 11.052 73.7909 11.052H72.0269V15H70.4309V5.27H73.7909C74.5375 5.27 75.1675 5.40067 75.6809 5.662C76.2035 5.914 76.5909 6.25933 76.8429 6.698C77.1042 7.13667 77.2349 7.62667 77.2349 8.168ZM73.7909 9.75C74.3975 9.75 74.8502 9.61467 75.1489 9.344C75.4475 9.064 75.5969 8.672 75.5969 8.168C75.5969 7.104 74.9949 6.572 73.7909 6.572H72.0269V9.75H73.7909Z" fill="#6B84FE"/>
<path d="M7.03036 14.2187C6.8813 14.2187 6.73786 14.1597 6.6338 14.0528C6.52974 13.9459 6.46786 13.8053 6.46786 13.6562C6.46786 12.9728 6.15568 12.3231 5.61005 11.8759C4.22349 10.7369 3.50349 8.98749 3.68349 7.19312C3.9338 4.71249 5.9138 2.7128 8.39161 2.43718C9.91318 2.26843 11.4319 2.75218 12.5625 3.76468C13.6932 4.77718 14.3429 6.22843 14.3429 7.74718C14.3429 9.35312 13.6285 10.8606 12.3797 11.8816C11.8397 12.3231 11.5304 12.97 11.5304 13.6534C11.5304 13.9628 11.2772 14.2159 10.9679 14.2159H7.03036V14.2187ZM7.54505 13.0937H10.4504C10.5854 12.2837 11.0129 11.5469 11.6654 11.0125C12.6497 10.2081 13.2151 9.01843 13.2151 7.74999C13.2151 6.55187 12.7032 5.40437 11.8088 4.60562C10.9032 3.79562 9.73036 3.42155 8.51255 3.55655C6.56068 3.77312 4.99974 5.35093 4.80005 7.30562C4.65661 8.72312 5.22474 10.1041 6.3188 11.0041C6.97693 11.5441 7.40443 12.2837 7.54224 13.0909L7.54505 13.0937Z" fill="#6B84FE"/>
<path d="M9.84375 17.5938H8.15625C7.22531 17.5938 6.46875 16.8372 6.46875 15.9062V13.6562C6.46875 13.3469 6.72187 13.0938 7.03125 13.0938H10.9688C11.2781 13.0938 11.5312 13.3469 11.5312 13.6562V15.9062C11.5312 16.8372 10.7747 17.5938 9.84375 17.5938ZM7.59375 14.2188V15.9062C7.59375 16.2156 7.84687 16.4688 8.15625 16.4688H9.84375C10.1531 16.4688 10.4062 16.2156 10.4062 15.9062V14.2188H7.59375Z" fill="#6B84FE"/>
<path d="M9.84375 17.5938H8.15625C7.22531 17.5938 6.46875 16.8372 6.46875 15.9062V13.6562C6.46875 13.3469 6.72187 13.0938 7.03125 13.0938H10.9688C11.2781 13.0938 11.5312 13.3469 11.5312 13.6562V15.9062C11.5312 16.8372 10.7747 17.5938 9.84375 17.5938ZM7.59375 14.2188V15.9062C7.59375 16.2156 7.84687 16.4688 8.15625 16.4688H9.84375C10.1531 16.4688 10.4062 16.2156 10.4062 15.9062V14.2188H7.59375Z" fill="#6B84FE"/>
<path d="M16.875 8.3125H15.75C15.4406 8.3125 15.1875 8.05937 15.1875 7.75C15.1875 7.44062 15.4406 7.1875 15.75 7.1875H16.875C17.1844 7.1875 17.4375 7.44062 17.4375 7.75C17.4375 8.05937 17.1844 8.3125 16.875 8.3125Z" fill="#6B84FE"/>
<path d="M2.25 8.3125H1.125C0.815625 8.3125 0.5625 8.05937 0.5625 7.75C0.5625 7.44062 0.815625 7.1875 1.125 7.1875H2.25C2.55938 7.1875 2.8125 7.44062 2.8125 7.75C2.8125 8.05937 2.55938 8.3125 2.25 8.3125Z" fill="#6B84FE"/>
<path d="M2.24918 12.25C2.06637 12.25 1.88918 12.1628 1.77949 11.9997C1.60793 11.7409 1.67824 11.3922 1.93418 11.2206L2.77793 10.6581C3.03668 10.4837 3.38543 10.5569 3.55699 10.8128C3.72856 11.0715 3.65824 11.4203 3.40231 11.5919L2.55856 12.1544C2.46293 12.219 2.35324 12.25 2.24637 12.25H2.24918Z" fill="#6B84FE"/>
<path d="M15.7503 12.25C15.6434 12.25 15.5337 12.219 15.4381 12.1544L14.5944 11.5919C14.3356 11.4203 14.2653 11.0715 14.4397 10.8128C14.6112 10.554 14.96 10.4837 15.2187 10.6581L16.0625 11.2206C16.3212 11.3922 16.3915 11.7409 16.2172 11.9997C16.1075 12.1628 15.9303 12.25 15.7475 12.25H15.7503Z" fill="#6B84FE"/>
<path d="M3.09404 4.93749C2.98717 4.93749 2.87748 4.90655 2.78185 4.84186L1.9381 4.27936C1.67935 4.1078 1.60904 3.75905 1.78342 3.5003C1.95498 3.24155 2.30373 3.17124 2.56248 3.34561L3.40623 3.90811C3.66498 4.07967 3.73529 4.42842 3.56092 4.68717C3.45123 4.8503 3.27404 4.93749 3.09123 4.93749H3.09404Z" fill="#6B84FE"/>
<path d="M14.9054 4.9375C14.7226 4.9375 14.5454 4.85031 14.4357 4.68719C14.2642 4.42844 14.3345 4.07969 14.5904 3.90812L15.4342 3.34562C15.6929 3.17406 16.0417 3.24437 16.2132 3.50031C16.3848 3.75906 16.3145 4.10781 16.0586 4.27937L15.2148 4.84187C15.1192 4.90656 15.0095 4.9375 14.9026 4.9375H14.9054Z" fill="#6B84FE"/>
</svg>
