<svg width="88" height="88" viewBox="0 0 88 88" fill="none" xmlns="http://www.w3.org/2000/svg">
<circle cx="38" cy="38" r="37.5" fill="#6B84FE" stroke="white"/>
<circle cx="50" cy="50" r="38" fill="white"/>
<g clip-path="url(#clip0_439_942)">
<path d="M46.2829 65.962H37.831C36.8241 65.962 35.8583 65.562 35.1463 64.85C34.4342 64.1379 34.0342 63.1722 34.0342 62.1652V37.7969C34.0342 36.7899 34.4342 35.8241 35.1463 35.1121C35.8583 34.4 36.8241 34 37.831 34H55.4105C56.4175 34 57.3833 34.4 58.0953 35.1121C58.8074 35.8241 59.2074 36.7899 59.2074 37.7969V47.3498C59.2186 47.4687 59.2049 47.5887 59.1671 47.7021C59.1292 47.8154 59.0682 47.9196 58.9877 48.008C58.9073 48.0963 58.8093 48.1669 58.7001 48.2152C58.5908 48.2636 58.4726 48.2885 58.3531 48.2885C58.2336 48.2885 58.1155 48.2636 58.0062 48.2152C57.8969 48.1669 57.7989 48.0963 57.7185 48.008C57.6381 47.9196 57.577 47.8154 57.5392 47.7021C57.5013 47.5887 57.4876 47.4687 57.4988 47.3498V37.7969C57.4988 37.526 57.4453 37.2578 57.3414 37.0076C57.2376 36.7574 57.0853 36.5302 56.8934 36.339C56.7015 36.1478 56.4737 35.9964 56.2232 35.8934C55.9726 35.7905 55.7042 35.738 55.4333 35.739H37.831C37.5589 35.736 37.2888 35.787 37.0365 35.889C36.7842 35.9911 36.5547 36.1422 36.3611 36.3336C36.1676 36.525 36.014 36.7529 35.9092 37.004C35.8043 37.2552 35.7503 37.5247 35.7504 37.7969V62.1879C35.7503 62.4601 35.8043 62.7296 35.9092 62.9808C36.014 63.2319 36.1676 63.4598 36.3611 63.6512C36.5547 63.8426 36.7842 63.9937 37.0365 64.0958C37.2888 64.1979 37.5589 64.2489 37.831 64.2458H46.2829C46.5105 64.2458 46.7287 64.3363 46.8896 64.4972C47.0506 64.6581 47.141 64.8764 47.141 65.1039C47.141 65.3315 47.0506 65.5498 46.8896 65.7107C46.7287 65.8716 46.5105 65.962 46.2829 65.962Z" fill="#6B84FE"/>
<path d="M53.8158 43.1733H39.3877C39.2687 43.1846 39.1488 43.1708 39.0354 43.133C38.9221 43.0952 38.8179 43.0341 38.7295 42.9537C38.6411 42.8732 38.5705 42.7752 38.5222 42.666C38.4739 42.5567 38.449 42.4385 38.449 42.319C38.449 42.1995 38.4739 42.0814 38.5222 41.9721C38.5705 41.8628 38.6411 41.7648 38.7295 41.6844C38.8179 41.604 38.9221 41.5429 39.0354 41.5051C39.1488 41.4672 39.2687 41.4535 39.3877 41.4647H53.8158C54.0285 41.4848 54.226 41.5835 54.3698 41.7415C54.5136 41.8995 54.5933 42.1054 54.5933 42.319C54.5933 42.5327 54.5136 42.7386 54.3698 42.8966C54.226 43.0546 54.0285 43.1533 53.8158 43.1733Z" fill="#6B84FE"/>
<path d="M47.346 49.8405H39.4106C39.183 49.8405 38.9647 49.75 38.8038 49.5891C38.6429 49.4282 38.5525 49.2099 38.5525 48.9824C38.5525 48.7548 38.6429 48.5365 38.8038 48.3756C38.9647 48.2147 39.183 48.1243 39.4106 48.1243H47.346C47.5736 48.1243 47.7919 48.2147 47.9528 48.3756C48.1137 48.5365 48.2041 48.7548 48.2041 48.9824C48.2041 49.2099 48.1137 49.4282 47.9528 49.5891C47.7919 49.75 47.5736 49.8405 47.346 49.8405Z" fill="#6B84FE"/>
<path d="M63.1638 57.1381C63.0381 57.1384 62.9137 57.1137 62.7977 57.0654C62.6817 57.0172 62.5764 56.9464 62.4879 56.8572L59.0328 53.3944C58.8545 53.2162 58.7544 52.9745 58.7544 52.7224C58.7544 52.4703 58.8545 52.2286 59.0328 52.0503C59.211 51.8721 59.4527 51.772 59.7048 51.772C59.9569 51.772 60.1986 51.8721 60.3769 52.0503L63.8396 55.5131C64.0145 55.6931 64.1123 55.9342 64.1123 56.1851C64.1123 56.4361 64.0145 56.6772 63.8396 56.8572C63.7511 56.9464 63.6459 57.0172 63.5298 57.0654C63.4138 57.1137 63.2894 57.1384 63.1638 57.1381Z" fill="#6B84FE"/>
<path d="M49.8899 65.9999L50.8543 60.2287L60.4756 50.6074C60.914 50.1701 61.508 49.9246 62.1272 49.9246C62.7464 49.9246 63.3404 50.1701 63.7788 50.6074L65.2976 52.1262C65.7349 52.5646 65.9804 53.1586 65.9804 53.7778C65.9804 54.397 65.7349 54.991 65.2976 55.4294L55.6611 65.0355L49.8899 65.9999ZM52.6312 61.1095L52.2136 63.6459L54.7499 63.2206L63.9459 54.0322C64.0261 53.9499 64.0711 53.8396 64.0711 53.7246C64.0711 53.6097 64.0261 53.4994 63.9459 53.4171L62.4271 51.8983C62.3449 51.8181 62.2345 51.7732 62.1196 51.7732C62.0047 51.7732 61.8943 51.8181 61.8121 51.8983L52.6312 61.1095Z" fill="#6B84FE"/>
</g>
<defs>
<clipPath id="clip0_439_942">
<rect width="32" height="32" fill="white" transform="translate(34 34)"/>
</clipPath>
</defs>
</svg>
