<svg width="88" height="88" viewBox="0 0 88 88" fill="none" xmlns="http://www.w3.org/2000/svg">
<circle cx="38" cy="38" r="37.5" fill="#6B84FE" stroke="white"/>
<circle cx="50" cy="50" r="38" fill="white"/>
<path d="M58 38H56C56 37.4696 55.7893 36.9609 55.4142 36.5858C55.0391 36.2107 54.5304 36 54 36H46C45.4696 36 44.9609 36.2107 44.5858 36.5858C44.2107 36.9609 44 37.4696 44 38H42C41.2044 38 40.4413 38.3161 39.8787 38.8787C39.3161 39.4413 39 40.2044 39 41V61C39 61.7956 39.3161 62.5587 39.8787 63.1213C40.4413 63.6839 41.2044 64 42 64H58C58.7956 64 59.5587 63.6839 60.1213 63.1213C60.6839 62.5587 61 61.7956 61 61V41C61 40.2044 60.6839 39.4413 60.1213 38.8787C59.5587 38.3161 58.7956 38 58 38ZM46 38H54V39V40H46V38ZM59 61C59 61.2652 58.8946 61.5196 58.7071 61.7071C58.5196 61.8946 58.2652 62 58 62H42C41.7348 62 41.4804 61.8946 41.2929 61.7071C41.1054 61.5196 41 61.2652 41 61V41C41 40.7348 41.1054 40.4804 41.2929 40.2929C41.4804 40.1054 41.7348 40 42 40H44C44 40.5304 44.2107 41.0391 44.5858 41.4142C44.9609 41.7893 45.4696 42 46 42H54C54.5304 42 55.0391 41.7893 55.4142 41.4142C55.7893 41.0391 56 40.5304 56 40H58C58.2652 40 58.5196 40.1054 58.7071 40.2929C58.8946 40.4804 59 40.7348 59 41V61ZM49 50V45C49 44.7348 49.1054 44.4804 49.2929 44.2929C49.4804 44.1054 49.7348 44 50 44C50.2652 44 50.5196 44.1054 50.7071 44.2929C50.8946 44.4804 51 44.7348 51 45V50C51 50.2652 50.8946 50.5196 50.7071 50.7071C50.5196 50.8946 50.2652 51 50 51C49.7348 51 49.4804 50.8946 49.2929 50.7071C49.1054 50.5196 49 50.2652 49 50ZM53 50V47C53 46.7348 53.1054 46.4804 53.2929 46.2929C53.4804 46.1054 53.7348 46 54 46C54.2652 46 54.5196 46.1054 54.7071 46.2929C54.8946 46.4804 55 46.7348 55 47V50C55 50.2652 54.8946 50.5196 54.7071 50.7071C54.5196 50.8946 54.2652 51 54 51C53.7348 51 53.4804 50.8946 53.2929 50.7071C53.1054 50.5196 53 50.2652 53 50ZM45 50V48C45 47.7348 45.1054 47.4804 45.2929 47.2929C45.4804 47.1054 45.7348 47 46 47C46.2652 47 46.5196 47.1054 46.7071 47.2929C46.8946 47.4804 47 47.7348 47 48V50C47 50.2652 46.8946 50.5196 46.7071 50.7071C46.5196 50.8946 46.2652 51 46 51C45.7348 51 45.4804 50.8946 45.2929 50.7071C45.1054 50.5196 45 50.2652 45 50ZM56 59C56 59.2652 55.8946 59.5196 55.7071 59.7071C55.5196 59.8946 55.2652 60 55 60H45C44.7348 60 44.4804 59.8946 44.2929 59.7071C44.1054 59.5196 44 59.2652 44 59C44 58.7348 44.1054 58.4804 44.2929 58.2929C44.4804 58.1054 44.7348 58 45 58H55C55.2652 58 55.5196 58.1054 55.7071 58.2929C55.8946 58.4804 56 58.7348 56 59ZM56 55C56 55.2652 55.8946 55.5196 55.7071 55.7071C55.5196 55.8946 55.2652 56 55 56H45C44.7348 56 44.4804 55.8946 44.2929 55.7071C44.1054 55.5196 44 55.2652 44 55C44 54.7348 44.1054 54.4804 44.2929 54.2929C44.4804 54.1054 44.7348 54 45 54H55C55.2652 54 55.5196 54.1054 55.7071 54.2929C55.8946 54.4804 56 54.7348 56 55Z" fill="#26A378"/>
</svg>
