<svg width="88" height="88" viewBox="0 0 88 88" fill="none" xmlns="http://www.w3.org/2000/svg">
<circle cx="38" cy="38" r="37.5" fill="#6B84FE" stroke="white"/>
<circle cx="50" cy="50" r="38" fill="white"/>
<path fill-rule="evenodd" clip-rule="evenodd" d="M35.6666 41.9999C35.6666 39.9749 37.3083 38.3333 39.3333 38.3333H60.6666C62.6917 38.3333 64.3333 39.9749 64.3333 41.9999V55.3333C64.3333 57.3583 62.6917 58.9999 60.6666 58.9999H52.9513L53.9513 60.9999H56.6666C57.2189 60.9999 57.6666 61.4477 57.6666 61.9999C57.6666 62.5522 57.2189 62.9999 56.6666 62.9999H43.3333C42.781 62.9999 42.3333 62.5522 42.3333 61.9999C42.3333 61.4477 42.781 60.9999 43.3333 60.9999H46.0486L47.0486 58.9999H39.3333C37.3083 58.9999 35.6666 57.3583 35.6666 55.3333V41.9999ZM60.6666 56.9999H39.3333C38.4128 56.9999 37.6666 56.2538 37.6666 55.3333V41.9999C37.6666 41.0794 38.4128 40.3333 39.3333 40.3333H60.6666C61.5872 40.3333 62.3333 41.0794 62.3333 41.9999V55.3333C62.3333 56.2538 61.5872 56.9999 60.6666 56.9999Z" fill="#FF9E1B"/>
</svg>
