<svg width="18" height="18" viewBox="0 0 18 18" fill="none" xmlns="http://www.w3.org/2000/svg">
<path d="M12.0937 16.8688H5.90616C5.09278 16.8688 4.13766 16.3176 3.73153 15.6133L0.637781 10.2561C0.224906 9.54056 0.224906 8.46056 0.637781 7.7445L3.73209 2.38725C4.13822 1.683 5.09334 1.13175 5.90672 1.13175H12.0937C12.907 1.13175 13.8622 1.683 14.2683 2.38725L17.362 7.7445C17.7749 8.46 17.7749 9.54 17.362 10.2561L14.2677 15.6133C13.8622 16.3176 12.9065 16.8688 12.0937 16.8688ZM5.90616 2.25619C5.48709 2.25619 4.91503 2.58638 4.70578 2.94919L1.61147 8.30644C1.40222 8.66925 1.40222 9.33019 1.61147 9.693L4.70522 15.0503C4.91503 15.4136 5.48709 15.7433 5.90559 15.7433H12.0937C12.5127 15.7433 13.0848 15.4131 13.294 15.0503L16.3883 9.693C16.5976 9.33019 16.5976 8.66925 16.3883 8.30644L13.2946 2.94919C13.0848 2.58581 12.5127 2.25619 12.0942 2.25619H5.90616ZM8.99991 12.3278C7.16447 12.3278 5.67159 10.8349 5.67159 9C5.67159 7.16513 7.16447 5.67225 8.99991 5.67225C10.8353 5.67225 12.3282 7.16513 12.3282 9C12.3282 10.8349 10.8353 12.3278 8.99991 12.3278ZM8.99991 6.79725C7.78491 6.79725 6.79659 7.78556 6.79659 9C6.79659 10.2144 7.78491 11.2028 8.99991 11.2028C10.2149 11.2028 11.2032 10.2144 11.2032 9C11.2032 7.78556 10.2149 6.79725 8.99991 6.79725Z" fill="#666666"/>
</svg>
