<svg width="163" height="77" viewBox="0 0 163 77" fill="none" xmlns="http://www.w3.org/2000/svg">
<path d="M57.8913 28.5048V18.4164C57.8913 8.25062 66.0939 0 76.222 0H86.6678C96.7959 0 104.999 8.24095 104.999 18.4164V28.9788C104.999 39.1445 96.7959 47.3951 86.6678 47.3951H76.6071V37.9258H86.3501C91.5201 37.9258 95.708 33.7183 95.708 28.5241V18.9774C95.708 13.7833 91.5201 9.57576 86.3501 9.57576H76.6456C71.4757 9.57576 67.2877 13.7833 67.2877 18.9774V28.5048H57.8913Z" fill="url(#paint0_linear_439_1314)"/>
<path d="M67.2877 37.9258H57.8913V47.3661H67.2877V37.9258Z" fill="url(#paint1_linear_439_1314)"/>
<path d="M86.1961 18.9774H76.7997V28.4177H86.1961V18.9774Z" fill="#FA8BFF"/>
<path d="M7.35086 77C6.60879 77 5.84905 76.9379 5.07164 76.8136C4.31189 76.7071 3.57866 76.5474 2.87192 76.3343C2.18285 76.1213 1.56446 75.8551 1.01674 75.5355C0.628031 75.3225 0.354171 75.0474 0.195156 74.7101C0.0361399 74.3551 -0.0256995 74.0001 0.00963731 73.6451C0.0626425 73.29 0.195156 72.9794 0.407176 72.7131C0.636866 72.4291 0.91956 72.2516 1.25526 72.1806C1.60863 72.0919 1.99733 72.154 2.42137 72.367C3.14578 72.7753 3.93202 73.077 4.78011 73.2723C5.64586 73.4676 6.50278 73.5652 7.35086 73.5652C8.64065 73.5652 9.55941 73.3699 10.1071 72.9794C10.6549 72.5711 10.9287 72.0652 10.9287 71.4617C10.9287 70.9469 10.7344 70.5386 10.3457 70.2369C9.95695 69.9351 9.27672 69.6777 8.30495 69.4647L5.31016 68.8257C3.61399 68.4706 2.3507 67.8671 1.52029 67.0151C0.707539 66.1453 0.301166 65.0092 0.301166 63.6069C0.301166 62.7193 0.486684 61.9117 0.857721 61.1839C1.22876 60.4561 1.74998 59.8259 2.42137 59.2934C3.09277 58.7609 3.88785 58.3526 4.80661 58.0686C5.74303 57.7846 6.7678 57.6425 7.88091 57.6425C8.87034 57.6425 9.8421 57.7668 10.7962 58.0153C11.7503 58.2461 12.5895 58.5922 13.3139 59.0537C13.6673 59.2668 13.9058 59.5419 14.0295 59.8792C14.1709 60.1987 14.215 60.5271 14.162 60.8643C14.1267 61.1839 13.9942 61.4679 13.7645 61.7164C13.5525 61.9649 13.2786 62.1247 12.9429 62.1957C12.6072 62.2667 12.2008 62.1868 11.7238 61.956C11.1407 61.6543 10.5223 61.4324 9.86861 61.2904C9.21488 61.1484 8.54348 61.0774 7.85441 61.0774C7.11234 61.0774 6.47627 61.175 5.94622 61.3703C5.43384 61.5655 5.0363 61.8407 4.7536 62.1957C4.48858 62.5507 4.35606 62.959 4.35606 63.4205C4.35606 63.9353 4.54158 64.3524 4.91262 64.6719C5.28366 64.9915 5.92855 65.2488 6.84731 65.4441L9.8421 66.0831C11.5736 66.4559 12.8634 67.0594 13.7115 67.8937C14.5596 68.7103 14.9836 69.7931 14.9836 71.1422C14.9836 72.0297 14.8069 72.8374 14.4536 73.5652C14.1002 74.2752 13.5878 74.8876 12.9164 75.4024C12.245 75.9172 11.4411 76.3166 10.5047 76.6006C9.56824 76.8669 8.51697 77 7.35086 77Z" fill="white"/>
<path d="M19.7176 76.9467C19.0462 76.9467 18.5339 76.7604 18.1805 76.3876C17.8271 76.0148 17.6504 75.4912 17.6504 74.8166V59.8259C17.6504 59.1514 17.8271 58.6277 18.1805 58.255C18.5339 57.8822 19.0462 57.6958 19.7176 57.6958C20.3714 57.6958 20.8749 57.8822 21.2283 58.255C21.5817 58.6277 21.7583 59.1514 21.7583 59.8259V65.4707H30.4512V59.8259C30.4512 59.1514 30.6279 58.6277 30.9812 58.255C31.3346 57.8822 31.8382 57.6958 32.4919 57.6958C33.1633 57.6958 33.6757 57.8822 34.029 58.255C34.3824 58.6277 34.5591 59.1514 34.5591 59.8259V74.8166C34.5591 75.4912 34.3824 76.0148 34.029 76.3876C33.6757 76.7604 33.1633 76.9467 32.4919 76.9467C31.8382 76.9467 31.3346 76.7604 30.9812 76.3876C30.6279 76.0148 30.4512 75.4912 30.4512 74.8166V68.9056H21.7583V74.8166C21.7583 75.4912 21.5817 76.0148 21.2283 76.3876C20.8926 76.7604 20.389 76.9467 19.7176 76.9467Z" fill="white"/>
<path d="M38.8598 76.9467C38.365 76.9467 37.9587 76.8314 37.6406 76.6006C37.3403 76.3698 37.1459 76.0592 37.0576 75.6687C36.9869 75.2782 37.0664 74.8433 37.2961 74.364L44.0808 59.4265C44.3635 58.823 44.6992 58.3881 45.0879 58.1218C45.4766 57.8378 45.9271 57.6958 46.4395 57.6958C46.9519 57.6958 47.4024 57.8378 47.7911 58.1218C48.1799 58.3881 48.5067 58.823 48.7717 59.4265L55.6094 74.364C55.8391 74.8433 55.9186 75.287 55.8479 75.6953C55.7949 76.0858 55.6182 76.3965 55.3179 76.6272C55.0175 76.8402 54.6288 76.9467 54.1518 76.9467C53.551 76.9467 53.0828 76.8047 52.7471 76.5207C52.4291 76.2367 52.1464 75.7929 51.899 75.1894L50.3089 71.4883L51.9521 72.6333H40.9005L42.5436 71.4883L40.98 75.1894C40.715 75.8107 40.4323 76.2633 40.1319 76.5473C39.8492 76.8136 39.4252 76.9467 38.8598 76.9467ZM46.3865 62.3288L42.9942 70.4499L42.2786 69.4115H50.5739L49.8583 70.4499L46.4395 62.3288H46.3865Z" fill="white"/>
<path d="M60.3515 76.9467C59.6801 76.9467 59.1677 76.7604 58.8144 76.3876C58.461 76.0148 58.2843 75.4912 58.2843 74.8166V60.0389C58.2843 59.3466 58.461 58.823 58.8144 58.468C59.1854 58.1129 59.7066 57.9354 60.378 57.9354H66.8181C68.903 57.9354 70.5108 58.4413 71.6416 59.4531C72.7724 60.465 73.3378 61.8762 73.3378 63.6868C73.3378 64.8583 73.0816 65.8701 72.5692 66.7222C72.0568 67.5742 71.3148 68.231 70.343 68.6925C69.3889 69.1541 68.214 69.3848 66.8181 69.3848L67.0302 68.9322H68.1168C68.8588 68.9322 69.5038 69.1186 70.0515 69.4913C70.6169 69.8464 71.1027 70.3966 71.5091 71.1422L73.1523 74.2042C73.3996 74.648 73.5145 75.0829 73.4968 75.5089C73.4791 75.9349 73.3201 76.2811 73.0198 76.5473C72.7194 76.8136 72.2777 76.9467 71.6946 76.9467C71.1116 76.9467 70.6345 76.8225 70.2635 76.574C69.9101 76.3255 69.5921 75.9438 69.3094 75.429L66.7651 70.7161C66.5001 70.2191 66.1733 69.8819 65.7846 69.7043C65.4135 69.5268 64.9541 69.4381 64.4064 69.4381H62.3922V74.8166C62.3922 75.4912 62.2155 76.0148 61.8622 76.3876C61.5265 76.7604 61.0229 76.9467 60.3515 76.9467ZM62.3922 66.4559H66.0761C67.1715 66.4559 67.9931 66.234 68.5408 65.7902C69.1062 65.3465 69.3889 64.6808 69.3889 63.7933C69.3889 62.9235 69.1062 62.2667 68.5408 61.8229C67.9931 61.3791 67.1715 61.1572 66.0761 61.1572H62.3922V66.4559Z" fill="white"/>
<path d="M78.805 76.9467C78.1336 76.9467 77.6212 76.7604 77.2678 76.3876C76.9145 76.0148 76.7378 75.4912 76.7378 74.8166V60.0389C76.7378 59.3466 76.9145 58.823 77.2678 58.468C77.6389 58.1129 78.1601 57.9354 78.8315 57.9354H85.2716C87.3565 57.9354 88.9643 58.468 90.0951 59.533C91.2259 60.5803 91.7913 62.0448 91.7913 63.9264C91.7913 65.808 91.2259 67.2813 90.0951 68.3464C88.9643 69.4115 87.3565 69.944 85.2716 69.944H80.8457V74.8166C80.8457 75.4912 80.669 76.0148 80.3156 76.3876C79.9799 76.7604 79.4764 76.9467 78.805 76.9467ZM80.8457 66.7488H84.5826C85.6427 66.7488 86.4466 66.5092 86.9943 66.0299C87.5597 65.5506 87.8424 64.8494 87.8424 63.9264C87.8424 63.0033 87.5597 62.3111 86.9943 61.8495C86.4466 61.388 85.6427 61.1572 84.5826 61.1572H80.8457V66.7488Z" fill="white"/>
<path d="M96.4839 76.7071C95.7948 76.7071 95.2648 76.5207 94.8937 76.148C94.5227 75.7752 94.3372 75.2427 94.3372 74.5504V60.0922C94.3372 59.3999 94.5227 58.8674 94.8937 58.4946C95.2648 58.1218 95.7948 57.9354 96.4839 57.9354H101.652C104.85 57.9354 107.315 58.752 109.046 60.3851C110.795 62.0004 111.67 64.308 111.67 67.308C111.67 68.8168 111.44 70.157 110.981 71.3286C110.539 72.4824 109.894 73.4587 109.046 74.2575C108.198 75.0563 107.156 75.6687 105.919 76.0947C104.682 76.503 103.26 76.7071 101.652 76.7071H96.4839ZM98.4451 73.3255H101.413C102.42 73.3255 103.295 73.2013 104.037 72.9528C104.779 72.7043 105.398 72.3315 105.892 71.8345C106.387 71.3374 106.758 70.7161 107.005 69.9706C107.253 69.2073 107.376 68.3198 107.376 67.308C107.376 65.2843 106.873 63.7844 105.866 62.8081C104.876 61.814 103.392 61.317 101.413 61.317H98.4451V73.3255Z" fill="white"/>
<path d="M117.008 76.7071C116.319 76.7071 115.789 76.5207 115.418 76.148C115.047 75.7752 114.861 75.2427 114.861 74.5504V60.0922C114.861 59.3999 115.047 58.8674 115.418 58.4946C115.789 58.1218 116.319 57.9354 117.008 57.9354H126.257C126.787 57.9354 127.185 58.0774 127.45 58.3615C127.733 58.6277 127.874 59.0182 127.874 59.533C127.874 60.0656 127.733 60.4738 127.45 60.7578C127.185 61.0241 126.787 61.1572 126.257 61.1572H118.784V65.5506H125.648C126.195 65.5506 126.602 65.6926 126.867 65.9766C127.15 66.2429 127.291 66.6423 127.291 67.1748C127.291 67.7074 127.15 68.1156 126.867 68.3996C126.602 68.6659 126.195 68.799 125.648 68.799H118.784V73.4853H126.257C126.787 73.4853 127.185 73.6273 127.45 73.9113C127.733 74.1776 127.874 74.5681 127.874 75.0829C127.874 75.6154 127.733 76.0237 127.45 76.3077C127.185 76.574 126.787 76.7071 126.257 76.7071H117.008Z" fill="white"/>
<path d="M137.328 77C136.585 77 135.826 76.9379 135.048 76.8136C134.289 76.7071 133.555 76.5474 132.849 76.3343C132.16 76.1213 131.541 75.8551 130.993 75.5355C130.605 75.3225 130.331 75.0474 130.172 74.7101C130.013 74.3551 129.951 74.0001 129.986 73.6451C130.039 73.29 130.172 72.9794 130.384 72.7131C130.614 72.4291 130.896 72.2516 131.232 72.1806C131.585 72.0919 131.974 72.154 132.398 72.367C133.122 72.7753 133.909 73.077 134.757 73.2723C135.623 73.4676 136.479 73.5652 137.328 73.5652C138.617 73.5652 139.536 73.3699 140.084 72.9794C140.632 72.5711 140.905 72.0652 140.905 71.4617C140.905 70.9469 140.711 70.5386 140.322 70.2369C139.934 69.9351 139.253 69.6777 138.282 69.4647L135.287 68.8257C133.591 68.4706 132.327 67.8671 131.497 67.0151C130.684 66.1453 130.278 65.0092 130.278 63.6069C130.278 62.7193 130.463 61.9117 130.834 61.1839C131.205 60.4561 131.727 59.8259 132.398 59.2934C133.069 58.7609 133.865 58.3526 134.783 58.0686C135.72 57.7846 136.744 57.6425 137.858 57.6425C138.847 57.6425 139.819 57.7668 140.773 58.0153C141.727 58.2461 142.566 58.5922 143.291 59.0537C143.644 59.2668 143.882 59.5419 144.006 59.8792C144.148 60.1987 144.192 60.5271 144.139 60.8643C144.103 61.1839 143.971 61.4679 143.741 61.7164C143.529 61.9649 143.255 62.1247 142.92 62.1957C142.584 62.2667 142.177 62.1868 141.7 61.956C141.117 61.6543 140.499 61.4324 139.845 61.2904C139.192 61.1484 138.52 61.0774 137.831 61.0774C137.089 61.0774 136.453 61.175 135.923 61.3703C135.41 61.5655 135.013 61.8407 134.73 62.1957C134.465 62.5507 134.333 62.959 134.333 63.4205C134.333 63.9353 134.518 64.3524 134.889 64.6719C135.26 64.9915 135.905 65.2488 136.824 65.4441L139.819 66.0831C141.55 66.4559 142.84 67.0594 143.688 67.8937C144.536 68.7103 144.96 69.7931 144.96 71.1422C144.96 72.0297 144.784 72.8374 144.43 73.5652C144.077 74.2752 143.564 74.8876 142.893 75.4024C142.222 75.9172 141.418 76.3166 140.481 76.6006C139.545 76.8669 138.494 77 137.328 77Z" fill="white"/>
<path d="M149.694 76.9467C149.023 76.9467 148.511 76.7604 148.157 76.3876C147.804 76.0148 147.627 75.4912 147.627 74.8166V59.7993C147.627 59.1248 147.804 58.61 148.157 58.255C148.511 57.8822 149.023 57.6958 149.694 57.6958C150.348 57.6958 150.852 57.8822 151.205 58.255C151.558 58.61 151.735 59.1248 151.735 59.7993V66.1098H151.788L158.838 58.7076C159.138 58.3881 159.447 58.1484 159.765 57.9887C160.101 57.8112 160.481 57.7224 160.905 57.7224C161.523 57.7224 161.965 57.8822 162.23 58.2017C162.513 58.5212 162.636 58.894 162.601 59.32C162.566 59.746 162.371 60.1454 162.018 60.5182L154.942 67.7872L154.968 66.0033L162.389 73.9646C162.795 74.4084 162.999 74.861 162.999 75.3225C163.016 75.7841 162.866 76.1746 162.548 76.4941C162.248 76.7959 161.797 76.9467 161.196 76.9467C160.684 76.9467 160.269 76.8402 159.951 76.6272C159.65 76.4142 159.315 76.1036 158.944 75.6953L151.788 68.1334H151.735V74.8166C151.735 75.4912 151.558 76.0148 151.205 76.3876C150.869 76.7604 150.366 76.9467 149.694 76.9467Z" fill="white"/>
<defs>
<linearGradient id="paint0_linear_439_1314" x1="81.5" y1="0" x2="81.5" y2="77" gradientUnits="userSpaceOnUse">
<stop stop-color="#10D18A"/>
<stop offset="1" stop-color="#0FDCFF"/>
</linearGradient>
<linearGradient id="paint1_linear_439_1314" x1="81.5" y1="0" x2="81.5" y2="77" gradientUnits="userSpaceOnUse">
<stop stop-color="#10D18A"/>
<stop offset="1" stop-color="#0FDCFF"/>
</linearGradient>
</defs>
</svg>
