<svg width="16" height="19" viewBox="0 0 16 19" fill="none" xmlns="http://www.w3.org/2000/svg">
<path d="M15.6471 2.32354C15.6471 1.08824 14.6471 0.0882416 13.4119 0.0882416H2.58832C1.35303 0.0882416 0.353027 1.08824 0.353027 2.32354V16.6765C0.353027 17.9118 1.35303 18.9118 2.58832 18.9118H13.4119C14.6471 18.9118 15.6471 17.9118 15.6471 16.6765V2.32354ZM14.4707 16.6765C14.4707 17.2647 14.0001 17.7353 13.4119 17.7353H2.58832C2.00009 17.7353 1.5295 17.2647 1.5295 16.6765V2.32354C1.5295 1.7353 2.00009 1.26471 2.58832 1.26471H13.4119C14.0001 1.26471 14.4707 1.7353 14.4707 2.32354V16.6765Z" fill="#6B84FE"/>
<path d="M4.41197 10.6765H11.3531C11.5296 10.6765 11.7061 10.6177 11.8237 10.4412C11.9414 10.3235 12.0002 10.1471 11.9414 9.9706C11.7061 8.55883 10.8237 7.44118 9.64726 6.91177C10.0002 6.50001 10.2355 5.9706 10.2355 5.32354C10.2355 4.02942 9.17667 2.9706 7.88255 2.9706C6.58844 2.9706 5.52961 4.02942 5.52961 5.32354C5.52961 5.91177 5.76491 6.44118 6.11785 6.91177C4.94138 7.50001 4.0002 8.61765 3.82373 9.9706C3.82373 10.1471 3.82373 10.3235 3.94138 10.4412C4.05903 10.6177 4.2355 10.6765 4.41197 10.6765ZM6.70608 5.38236C6.70608 4.7353 7.23549 4.20589 7.88255 4.20589C8.52961 4.20589 9.05902 4.7353 9.05902 5.38236C9.05902 6.02942 8.52961 6.55883 7.88255 6.55883C7.23549 6.55883 6.70608 6.02942 6.70608 5.38236ZM7.88255 7.7353C9.05902 7.7353 10.1178 8.44118 10.5884 9.50001H5.17667C5.64726 8.44118 6.70608 7.7353 7.88255 7.7353Z" fill="#6B84FE"/>
<path d="M12.7061 12.4412H3.29429C2.94135 12.4412 2.70605 12.6765 2.70605 13.0294C2.70605 13.3824 2.94135 13.6176 3.29429 13.6176H12.7061C13.059 13.6176 13.2943 13.3824 13.2943 13.0294C13.2943 12.6765 13.059 12.4412 12.7061 12.4412Z" fill="#6B84FE"/>
<path d="M12.7061 14.7941H3.29429C2.94135 14.7941 2.70605 15.0294 2.70605 15.3824C2.70605 15.7353 2.94135 15.9706 3.29429 15.9706H12.7061C13.059 15.9706 13.2943 15.7353 13.2943 15.3824C13.2943 15.0294 13.059 14.7941 12.7061 14.7941Z" fill="#6B84FE"/>
</svg>
