<svg width="20" height="20" viewBox="0 0 20 20" fill="none" xmlns="http://www.w3.org/2000/svg">
<path d="M17.6471 2.82352C17.6471 1.58823 16.6471 0.588226 15.4119 0.588226H4.58832C3.35303 0.588226 2.35303 1.58823 2.35303 2.82352V17.1765C2.35303 18.4118 3.35303 19.4118 4.58832 19.4118H15.4119C16.6471 19.4118 17.6471 18.4118 17.6471 17.1765V2.82352ZM16.4707 17.1765C16.4707 17.7647 16.0001 18.2353 15.4119 18.2353H4.58832C4.00009 18.2353 3.5295 17.7647 3.5295 17.1765V2.82352C3.5295 2.23529 4.00009 1.7647 4.58832 1.7647H15.4119C16.0001 1.7647 16.4707 2.23529 16.4707 2.82352V17.1765Z" fill="#666666"/>
<path d="M6.41197 11.1765H13.3531C13.5296 11.1765 13.7061 11.1176 13.8237 10.9412C13.9414 10.8235 14.0002 10.6471 13.9414 10.4706C13.7061 9.05882 12.8237 7.94117 11.6473 7.41176C12.0002 6.99999 12.2355 6.47058 12.2355 5.82352C12.2355 4.5294 11.1767 3.47058 9.88255 3.47058C8.58844 3.47058 7.52961 4.5294 7.52961 5.82352C7.52961 6.41176 7.76491 6.94117 8.11785 7.41176C6.94138 7.99999 6.0002 9.11764 5.82373 10.4706C5.82373 10.6471 5.82373 10.8235 5.94138 10.9412C6.05903 11.1176 6.2355 11.1765 6.41197 11.1765ZM8.70608 5.88235C8.70608 5.23529 9.23549 4.70588 9.88255 4.70588C10.5296 4.70588 11.059 5.23529 11.059 5.88235C11.059 6.5294 10.5296 7.05882 9.88255 7.05882C9.23549 7.05882 8.70608 6.5294 8.70608 5.88235ZM9.88255 8.23529C11.059 8.23529 12.1178 8.94117 12.5884 9.99999H7.17667C7.64726 8.94117 8.70608 8.23529 9.88255 8.23529Z" fill="#666666"/>
<path d="M14.7061 12.9412H5.29429C4.94135 12.9412 4.70605 13.1765 4.70605 13.5294C4.70605 13.8823 4.94135 14.1176 5.29429 14.1176H14.7061C15.059 14.1176 15.2943 13.8823 15.2943 13.5294C15.2943 13.1765 15.059 12.9412 14.7061 12.9412Z" fill="#666666"/>
<path d="M14.7061 15.2941H5.29429C4.94135 15.2941 4.70605 15.5294 4.70605 15.8823C4.70605 16.2353 4.94135 16.4706 5.29429 16.4706H14.7061C15.059 16.4706 15.2943 16.2353 15.2943 15.8823C15.2943 15.5294 15.059 15.2941 14.7061 15.2941Z" fill="#666666"/>
</svg>
