<svg width="48" height="48" viewBox="0 0 48 48" fill="none" xmlns="http://www.w3.org/2000/svg">
<circle cx="24" cy="24" r="24" fill="white"/>
<path d="M32.9728 18.7174C32.5084 19.3369 31.947 19.8773 31.3103 20.3178C31.3103 20.4796 31.3103 20.6414 31.3103 20.8123C31.3154 23.7511 30.1415 26.5691 28.0518 28.6345C25.962 30.6999 23.1312 31.8399 20.1941 31.7989C18.496 31.8046 16.8197 31.4169 15.2964 30.6661C15.2143 30.6302 15.1613 30.549 15.1616 30.4593V30.3604C15.1616 30.2313 15.2662 30.1267 15.3953 30.1267C17.0644 30.0716 18.674 29.4929 19.9963 28.4724C18.4855 28.4419 17.1262 27.5469 16.5006 26.1707C16.469 26.0956 16.4788 26.0093 16.5266 25.9432C16.5743 25.8771 16.653 25.8407 16.7343 25.8471C17.1934 25.8932 17.6572 25.8505 18.1002 25.7212C16.4324 25.375 15.1792 23.9904 14.9999 22.2957C14.9935 22.2144 15.0299 22.1357 15.096 22.0879C15.1621 22.0402 15.2482 22.0303 15.3234 22.062C15.7709 22.2595 16.2541 22.3635 16.7432 22.3676C15.2818 21.4085 14.6506 19.5841 15.2066 17.9262C15.2639 17.7651 15.4018 17.6461 15.5695 17.6129C15.7372 17.5798 15.91 17.6373 16.0243 17.7644C17.9964 19.8633 20.706 21.114 23.5819 21.2528C23.5083 20.9589 23.4721 20.6568 23.4741 20.3537C23.501 18.7647 24.4842 17.3492 25.9634 16.7699C27.4425 16.1905 29.1249 16.562 30.223 17.7104C30.9714 17.5679 31.695 17.3165 32.3707 16.9642C32.4202 16.9333 32.483 16.9333 32.5325 16.9642C32.5634 17.0137 32.5634 17.0765 32.5325 17.126C32.2052 17.8755 31.6523 18.5041 30.9509 18.9242C31.5651 18.853 32.1685 18.7081 32.7482 18.4926C32.797 18.4594 32.8611 18.4594 32.9099 18.4926C32.9508 18.5113 32.9814 18.5471 32.9935 18.5904C33.0056 18.6337 32.998 18.6802 32.9728 18.7174Z" fill="#6B84FE"/>
</svg>
