<svg width="40" height="40" viewBox="0 0 40 40" fill="none" xmlns="http://www.w3.org/2000/svg">
<g clip-path="url(#clip0_439_999)">
<path d="M3.03125 20.4687C3.03906 20.4765 3.04688 20.4843 3.05469 20.4921L7.35156 24.5546C6.46094 25.9687 6.625 27.8671 7.85938 29.1015C8.5625 29.8046 9.47656 30.1562 10.3906 30.1718C10.4219 31.1093 10.7969 32.039 11.5156 32.7578C12.2266 33.4687 13.1719 33.8671 14.1797 33.8828C14.1953 34.8515 14.5703 35.8046 15.3047 36.5468C16.7344 38.039 19.3125 38.039 20.75 36.5468L23.0859 34.2109L23.6094 34.7343C25.125 36.25 27.6016 36.25 29.1172 34.7343L29.1484 34.7031C29.8828 33.9687 30.2578 33.0156 30.2891 32.0468C31.2969 32.0546 32.2969 31.6718 33.0625 30.9062L33.0938 30.875C33.8203 30.1484 34.2266 29.1874 34.2344 28.1562C35.2188 28.1484 36.1953 27.7656 36.9453 27.0156L36.9766 26.9843C38.4922 25.4687 38.4922 22.9921 36.9766 21.4765L36.5781 21.0781L36.7812 20.875C46.5234 10.289 32.0391 -4.17974 21.4609 5.55464L19.4609 7.55464L17.6719 5.81245C13.625 1.78901 7.0625 1.78901 3.03125 5.82026C-1.00781 9.85932 -1.00781 16.4296 3.03125 20.4687ZM35.2812 25.3593C34.6719 25.9687 33.6875 25.9687 33.0859 25.3593L30.9375 23.2109C30.3359 22.6328 30.3359 21.5937 30.9375 21.0156L30.9688 20.9843C31.5469 20.3828 32.5859 20.3828 33.1641 20.9843L35.3125 23.1328C35.9219 23.7421 35.9219 24.7265 35.3125 25.3281L35.2812 25.3593ZM29.1953 29.2499L25.6797 25.7343C25.0781 25.1562 25.0781 24.1171 25.6797 23.539L25.7109 23.5078C26.3203 22.8984 27.3047 22.8984 27.9063 23.5078L29.2656 24.8671L31.4141 27.0156C32.0156 27.5937 32.0156 28.6328 31.4141 29.2109L31.3828 29.2421C30.7891 29.8515 29.8047 29.8515 29.1953 29.2499ZM25.25 33.0781L23.8594 31.6875C23.2578 31.1093 23.2578 30.0703 23.8594 29.4921L23.8906 29.4609C24.5 28.8515 25.4844 28.8515 26.0859 29.4609L27.4766 30.8515C28.0859 31.4609 28.0859 32.4453 27.4766 33.0468L27.4453 33.0781C26.8438 33.6796 25.8594 33.6796 25.25 33.0781ZM9.51562 25.5781L17.5547 17.539C17.5938 17.4999 17.6641 17.4999 17.7031 17.539L19 18.8359C20.5625 20.4687 23.3828 20.4687 24.9453 18.8359C26.5938 17.2578 26.5703 14.3984 24.8984 12.8437L21.1406 9.19526L23.1172 7.2187C26.4297 3.9062 31.8125 3.9062 35.125 7.2187C38.4375 10.5312 38.4375 15.914 35.125 19.2265L34.9219 19.4296L34.8203 19.3281C33.3672 17.8203 30.7578 17.8203 29.3125 19.3281L29.2812 19.3593C28.8125 19.8281 28.4844 20.3906 28.3047 20.9999C26.8906 20.4218 25.2109 20.7031 24.0703 21.8437L24.0391 21.875C22.6953 23.164 22.5234 25.414 23.625 26.8984C23.125 27.0859 22.6484 27.3828 22.2422 27.789L22.2109 27.8203C21 28.9921 20.7188 30.9687 21.5391 32.4375L19.0938 34.8828C18.5312 35.4687 17.5234 35.4687 16.9609 34.8828C16.3672 34.289 16.375 33.3281 16.9688 32.7421L19.1406 30.5703C19.6016 30.1093 19.6016 29.375 19.1406 28.914C18.6797 28.4531 17.9453 28.4531 17.4844 28.914L15.3047 31.0937C14.7422 31.6796 13.7344 31.6796 13.1719 31.0937C12.5859 30.5078 12.5859 29.5546 13.1719 28.9609L15.3672 26.7656C15.8281 26.3046 15.8281 25.5703 15.3672 25.1093C14.9062 24.6484 14.1719 24.6484 13.7109 25.1093C13.7109 25.1093 11.3984 27.4218 11.3906 27.4296C10.875 27.9453 10.0391 27.9453 9.52344 27.4296C9 26.9296 9 26.0937 9.51562 25.5781ZM4.6875 7.48432C7.8125 4.35932 12.9062 4.35932 16.0312 7.49995L23.2656 14.5312C23.625 14.8828 23.8281 15.3515 23.8359 15.8515C23.8516 17.5156 21.8359 18.3515 20.6562 17.1796L19.3594 15.8828C18.4453 14.9296 16.8125 14.9296 15.8984 15.8828L8.94531 22.8359L4.67969 18.7968C1.5625 15.6796 1.5625 10.6015 4.6875 7.48432Z" fill="#6B84FE"/>
</g>
<defs>
<clipPath id="clip0_439_999">
<rect width="40" height="40" fill="white"/>
</clipPath>
</defs>
</svg>
