<svg width="43" height="56" viewBox="0 0 43 56" fill="none" xmlns="http://www.w3.org/2000/svg">
<path d="M36.8957 0H12.2936C11.8586 0 11.4412 0.173035 11.1336 0.480652L0.590027 11.0242C0.28241 11.3318 0.109375 11.7493 0.109375 12.1842V50.8448C0.109375 53.6873 2.42206 56 5.26453 56H36.8957C39.73 56 42.0508 53.7083 42.0508 50.8448V5.15515C42.0508 2.3208 39.7595 0 36.8957 0ZM12.4102 3.84393V10.4269C12.4102 11.4604 11.5698 12.3008 10.5363 12.3008H3.95331L12.4102 3.84393ZM38.7696 50.8448C38.7696 51.8655 37.9446 52.7188 36.8957 52.7188H5.26453C4.23145 52.7188 3.39062 51.8779 3.39062 50.8448V15.5825H10.5363C13.3788 15.5825 15.6915 13.2698 15.6915 10.4274V3.28125H36.8957C37.9168 3.28125 38.7696 4.10669 38.7696 5.15515V50.8448Z" fill="white"/>
</svg>
