<svg width="56" height="56" viewBox="0 0 56 56" fill="none" xmlns="http://www.w3.org/2000/svg">
<g clip-path="url(#clip0_1052_7)">
<path d="M29.2402 26.84C28.5994 26.1992 27.5607 26.1992 26.9199 26.84L19.8908 33.8691C19.2499 34.5099 19.2499 35.5486 19.8908 36.1895C20.5312 36.8299 21.5703 36.8299 22.2108 36.1895L26.4392 31.961V43.8158C26.4392 44.7216 27.1741 45.4564 28.0798 45.4564C28.986 45.4564 29.7205 44.7216 29.7205 43.8158V31.961L33.9489 36.189C34.5902 36.8303 35.6284 36.8299 36.2693 36.189C36.9102 35.5486 36.9102 34.5099 36.2693 33.8691L29.2402 26.84Z" fill="#0F172A"/>
<path d="M35.1093 19.3303H21.0508C20.145 19.3303 19.4102 20.0648 19.4102 20.9709C19.4102 21.8767 20.145 22.6116 21.0508 22.6116H35.1093C36.0151 22.6116 36.7499 21.8767 36.7499 20.9709C36.7499 20.0648 36.0155 19.3303 35.1093 19.3303Z" fill="#0F172A"/>
<path d="M43.8957 0H19.2936C18.8586 0 18.4412 0.173035 18.1336 0.480652L7.59003 11.0242C7.28241 11.3318 7.10938 11.7493 7.10938 12.1842V50.8448C7.10938 53.6873 9.42206 56 12.2645 56H43.8957C46.73 56 49.0508 53.7083 49.0508 50.8448V5.15515C49.0508 2.3208 46.7595 0 43.8957 0ZM19.4102 3.84393V10.4269C19.4102 11.4604 18.5698 12.3008 17.5363 12.3008H10.9533L19.4102 3.84393ZM45.7696 50.8448C45.7696 51.8655 44.9446 52.7188 43.8957 52.7188H12.2645C11.2314 52.7188 10.3906 51.8779 10.3906 50.8448V15.5825H17.5363C20.3788 15.5825 22.6915 13.2698 22.6915 10.4274V3.28125H43.8957C44.9168 3.28125 45.7696 4.10669 45.7696 5.15515V50.8448Z" fill="#0F172A"/>
</g>
<defs>
<clipPath id="clip0_1052_7">
<rect width="56" height="56" fill="white"/>
</clipPath>
</defs>
</svg>
