<?xml version="1.0" encoding="UTF-8"?>
<svg version="1.1" viewBox="0 0 2048 2048" width="512" height="512" xmlns="http://www.w3.org/2000/svg">
<path transform="translate(1425,988)" d="m0 0 29 1 38 4 31 6 23 6 23 8 26 11 16 8 22 12 12 8 17 12 17 14 13 12 20 20 9 11 13 16 13 18 10 15 15 25 8 15 20 40 16 41 10 28 15 53 8 36 8 40 9 57 6 57 3 43 2 58v45l-1 25-4 33-7 34-6 20-6 18-11 25-11 21-8 13-8 12-12 15-9 11-7 7-1 2h-2l-2 4h-2l-2 4h-2v2h-2v2l-11 9-13 11-20 14-15 9-16 9-24 11-24 9-28 8-29 6-36 6h-1070l-48-8-27-6-25-8-16-6-20-9-25-13-18-12-14-10-13-11-15-13-15-16-11-12-14-19-9-14-11-19-12-25-7-19-8-25-7-34-4-31-2-40v-23l1-45 3-55 5-52 7-49 6-35 10-48 6-25 14-49 12-33 11-28 12-25 16-32 16-27 8-12 12-17 10-13 11-13 9-11 23-23 11-9 12-10 16-11 15-10 21-12 24-11 23-9 25-8 24-6 31-5 30-3h38l16 4 18 8 18 10 41 26 40 26 11 7 13 8 21 12 26 12 40 15 19 7 37 10 27 5 30 4 13 1h46l30-3 30-5 26-6 27-8 53-20 28-13 23-13 23-15 22-14 20-13 17-11 28-17 17-9 17-6 9-2z"/>
<path transform="translate(958)" d="m0 0h105v1l49 8 37 9 36 12 22 9 33 16 21 12 22 14 19 14 13 10 11 9 12 11 8 7 16 15v2h2l7 8 12 13 12 14 10 13 14 19 10 15 10 17 9 15 11 23 11 25 10 28 7 25 7 30 5 33 3 31 1 18v35l-2 30-3 26-4 26-8 34-8 26-11 30-17 36-11 20-13 21-11 16-6 8-13 17-12 14-4 5h-2l-2 4-7 8h-2l-2 4-16 16-8 7-12 11-13 11-19 14-18 13-27 16-14 8-24 12-21 9-37 13-40 10-36 6-26 3-38 2h-16l-38-2-38-5-18-3-44-11-34-12-23-10-29-14-28-17-11-7-19-14-13-10-10-8-13-12-10-9-8-7-14-14-7-8-11-12-11-13-14-19-11-15-13-21-11-19-8-16-12-25-11-30-8-26-7-29-4-22-4-29-2-28v-56l2-26 6-41 9-39 7-23 13-35 16-33 6-11 8-14 13-21 14-19 10-13 7-9 10-11 1-2h2l2-4 9-9 7-8 12-12 8-7 14-13 14-11 13-10 18-13 19-12 22-13 23-11 14-7 15-6 29-10 26-7 27-6 38-6 7-1z"/>
<path transform="translate(480,2047)" d="m0 0 4 1z"/>
</svg>
