<svg width="123" height="58" viewBox="0 0 123 58" fill="none" xmlns="http://www.w3.org/2000/svg">
<path d="M43.6849 21.4711V13.8721C43.6849 6.21476 49.8746 0 57.5172 0H65.3997C73.0423 0 79.232 6.20747 79.232 13.8721V21.8281C79.232 29.4855 73.0423 35.7002 65.3997 35.7002H57.8078V28.5675H65.1599C69.0612 28.5675 72.2214 25.3982 72.2214 21.4857V14.2947C72.2214 10.3822 69.0612 7.21291 65.1599 7.21291H57.8369C53.9356 7.21291 50.7754 10.3822 50.7754 14.2947V21.4711H43.6849Z" fill="url(#paint0_linear_439_729)"/>
<path d="M50.7754 28.5675H43.6849V35.6784H50.7754V28.5675Z" fill="url(#paint1_linear_439_729)"/>
<path d="M65.0437 14.2946H57.9531V21.4055H65.0437V14.2946Z" fill="#FA8BFF"/>
<path d="M5.54697 58C4.987 58 4.4137 57.9532 3.82706 57.8596C3.25376 57.7794 2.70046 57.659 2.16715 57.4986C1.64718 57.3381 1.18054 57.1376 0.767231 56.8969C0.473913 56.7365 0.267258 56.5292 0.147265 56.2752C0.0272712 56.0077 -0.0193929 55.7403 0.00727233 55.4729C0.0472701 55.2055 0.147265 54.9715 0.307256 54.7709C0.48058 54.557 0.693901 54.4233 0.947221 54.3698C1.21387 54.303 1.50719 54.3498 1.82717 54.5102C2.37381 54.8177 2.96711 55.045 3.60707 55.1921C4.26037 55.3392 4.907 55.4127 5.54697 55.4127C6.52025 55.4127 7.21354 55.2657 7.62685 54.9715C8.04016 54.664 8.24682 54.2829 8.24682 53.8283C8.24682 53.4405 8.10016 53.133 7.80684 52.9057C7.51353 52.6784 7.00022 52.4845 6.26693 52.3241L4.00705 51.8427C2.72712 51.5753 1.77384 51.1207 1.14721 50.4789C0.53391 49.8237 0.22726 48.968 0.22726 47.9117C0.22726 47.2431 0.367253 46.6348 0.647237 46.0866C0.927222 45.5383 1.32053 45.0637 1.82717 44.6626C2.33381 44.2614 2.93378 43.9539 3.62707 43.74C4.3337 43.526 5.10699 43.4191 5.94695 43.4191C6.69357 43.4191 7.42686 43.5127 8.14682 43.6998C8.86679 43.8737 9.50008 44.1344 10.0467 44.482C10.3134 44.6425 10.4934 44.8497 10.5867 45.1038C10.6934 45.3445 10.7267 45.5918 10.6867 45.8459C10.66 46.0865 10.56 46.3005 10.3867 46.4877C10.2267 46.6749 10.0201 46.7952 9.76674 46.8487C9.51342 46.9022 9.20677 46.842 8.84679 46.6682C8.40681 46.4409 7.94017 46.2737 7.44686 46.1668C6.95356 46.0598 6.44692 46.0063 5.92695 46.0063C5.36698 46.0063 4.887 46.0799 4.48703 46.2269C4.10038 46.374 3.8004 46.5813 3.58708 46.8487C3.38709 47.1161 3.28709 47.4236 3.28709 47.7713C3.28709 48.159 3.42708 48.4733 3.70707 48.7139C3.98705 48.9546 4.47369 49.1485 5.16699 49.2956L7.42686 49.7769C8.73346 50.0577 9.70674 50.5123 10.3467 51.1407C10.9867 51.7558 11.3067 52.5714 11.3067 53.5876C11.3067 54.2562 11.1733 54.8645 10.9067 55.4127C10.64 55.9476 10.2534 56.4089 9.74674 56.7966C9.2401 57.1844 8.63346 57.4852 7.92684 57.6992C7.22021 57.8997 6.42692 58 5.54697 58Z" fill="#0E0437"/>
<path d="M14.879 57.9599C14.3723 57.9599 13.9857 57.8195 13.719 57.5387C13.4524 57.2579 13.319 56.8635 13.319 56.3554V45.0637C13.319 44.5556 13.4524 44.1611 13.719 43.8804C13.9857 43.5996 14.3723 43.4592 14.879 43.4592C15.3723 43.4592 15.7522 43.5996 16.0189 43.8804C16.2855 44.1611 16.4189 44.5556 16.4189 45.0637V49.3156H22.9785V45.0637C22.9785 44.5556 23.1118 44.1611 23.3785 43.8804C23.6451 43.5996 24.0251 43.4592 24.5184 43.4592C25.0251 43.4592 25.4117 43.5996 25.6784 43.8804C25.945 44.1611 26.0783 44.5556 26.0783 45.0637V56.3554C26.0783 56.8635 25.945 57.2579 25.6784 57.5387C25.4117 57.8195 25.0251 57.9599 24.5184 57.9599C24.0251 57.9599 23.6451 57.8195 23.3785 57.5387C23.1118 57.2579 22.9785 56.8635 22.9785 56.3554V51.9029H16.4189V56.3554C16.4189 56.8635 16.2855 57.2579 16.0189 57.5387C15.7656 57.8195 15.3856 57.9599 14.879 57.9599Z" fill="#0E0437"/>
<path d="M29.3236 57.9599C28.9503 57.9599 28.6437 57.873 28.4037 57.6992C28.177 57.5253 28.0304 57.2913 27.9637 56.9972C27.9104 56.703 27.9704 56.3754 28.1437 56.0144L33.2634 44.7628C33.4767 44.3082 33.7301 43.9806 34.0234 43.7801C34.3167 43.5661 34.6567 43.4592 35.0433 43.4592C35.43 43.4592 35.7699 43.5661 36.0633 43.7801C36.3566 43.9806 36.6032 44.3082 36.8032 44.7628L41.9629 56.0144C42.1363 56.3754 42.1963 56.7097 42.1429 57.0172C42.1029 57.3114 41.9696 57.5454 41.7429 57.7192C41.5163 57.8797 41.223 57.9599 40.863 57.9599C40.4097 57.9599 40.0564 57.8529 39.8031 57.639C39.5631 57.4251 39.3497 57.0908 39.1631 56.6362L37.9632 53.8483L39.2031 54.7108H30.8635L32.1035 53.8483L30.9235 56.6362C30.7236 57.1042 30.5102 57.4451 30.2836 57.659C30.0703 57.8596 29.7503 57.9599 29.3236 57.9599ZM35.0033 46.949L32.4435 53.0662L31.9035 52.284H38.1631L37.6232 53.0662L35.0433 46.949H35.0033Z" fill="#0E0437"/>
<path d="M45.5413 57.9599C45.0347 57.9599 44.648 57.8195 44.3814 57.5387C44.1147 57.2579 43.9814 56.8635 43.9814 56.3554V45.2241C43.9814 44.7027 44.1147 44.3082 44.3814 44.0408C44.6614 43.7734 45.0547 43.6397 45.5613 43.6397H50.4211C51.9943 43.6397 53.2076 44.0207 54.0609 44.7829C54.9141 45.545 55.3408 46.608 55.3408 47.9718C55.3408 48.8543 55.1475 49.6165 54.7608 50.2583C54.3742 50.9001 53.8142 51.3948 53.0809 51.7424C52.361 52.0901 51.4743 52.2639 50.4211 52.2639L50.5811 51.9229H51.401C51.961 51.9229 52.4476 52.0633 52.8609 52.3441C53.2876 52.6115 53.6542 53.026 53.9609 53.5876L55.2008 55.8941C55.3875 56.2284 55.4741 56.5559 55.4608 56.8768C55.4474 57.1977 55.3275 57.4585 55.1008 57.659C54.8741 57.8596 54.5408 57.9599 54.1009 57.9599C53.6609 57.9599 53.3009 57.8663 53.0209 57.6791C52.7543 57.4919 52.5143 57.2044 52.301 56.8167L50.3811 53.2667C50.1811 52.8923 49.9344 52.6383 49.6411 52.5046C49.3611 52.3709 49.0145 52.304 48.6012 52.304H47.0812V56.3554C47.0812 56.8635 46.9479 57.2579 46.6813 57.5387C46.4279 57.8195 46.048 57.9599 45.5413 57.9599ZM47.0812 50.0577H49.8611C50.6877 50.0577 51.3077 49.8906 51.721 49.5563C52.1476 49.222 52.361 48.7206 52.361 48.0521C52.361 47.3969 52.1476 46.9022 51.721 46.5679C51.3077 46.2336 50.6877 46.0665 49.8611 46.0665H47.0812V50.0577Z" fill="#0E0437"/>
<path d="M59.4663 57.9599C58.9597 57.9599 58.5731 57.8195 58.3064 57.5387C58.0398 57.2579 57.9064 56.8635 57.9064 56.3554V45.2241C57.9064 44.7027 58.0398 44.3082 58.3064 44.0408C58.5864 43.7734 58.9797 43.6397 59.4863 43.6397H64.3461C65.9193 43.6397 67.1326 44.0408 67.9859 44.8431C68.8392 45.6319 69.2658 46.735 69.2658 48.1524C69.2658 49.5697 68.8392 50.6794 67.9859 51.4817C67.1326 52.284 65.9193 52.6851 64.3461 52.6851H61.0063V56.3554C61.0063 56.8635 60.8729 57.2579 60.6063 57.5387C60.353 57.8195 59.973 57.9599 59.4663 57.9599ZM61.0063 50.2783H63.8261C64.6261 50.2783 65.2327 50.0978 65.646 49.7368C66.0726 49.3758 66.286 48.8476 66.286 48.1524C66.286 47.4571 66.0726 46.9356 65.646 46.588C65.2327 46.2403 64.6261 46.0665 63.8261 46.0665H61.0063V50.2783Z" fill="#0E0437"/>
<path d="M72.8069 57.7794C72.2869 57.7794 71.8869 57.639 71.6069 57.3582C71.327 57.0774 71.187 56.6763 71.187 56.1548V45.2642C71.187 44.7428 71.327 44.3416 71.6069 44.0609C71.8869 43.7801 72.2869 43.6397 72.8069 43.6397H76.7066C79.1199 43.6397 80.9797 44.2547 82.2863 45.4849C83.6063 46.7016 84.2662 48.4398 84.2662 50.6995C84.2662 51.836 84.0929 52.8455 83.7463 53.728C83.4129 54.5971 82.9263 55.3325 82.2863 55.9342C81.6464 56.5359 80.8598 56.9972 79.9265 57.3181C78.9932 57.6256 77.9199 57.7794 76.7066 57.7794H72.8069ZM74.2868 55.2322H76.5267C77.2866 55.2322 77.9466 55.1386 78.5065 54.9514C79.0665 54.7642 79.5332 54.4835 79.9065 54.1091C80.2798 53.7347 80.5598 53.2667 80.7464 52.7051C80.9331 52.1302 81.0264 51.4616 81.0264 50.6995C81.0264 49.1752 80.6464 48.0454 79.8865 47.31C79.1398 46.5612 78.0199 46.1868 76.5267 46.1868H74.2868V55.2322Z" fill="#0E0437"/>
<path d="M88.2943 57.7794C87.7743 57.7794 87.3743 57.639 87.0944 57.3582C86.8144 57.0774 86.6744 56.6763 86.6744 56.1548V45.2642C86.6744 44.7428 86.8144 44.3416 87.0944 44.0609C87.3743 43.7801 87.7743 43.6397 88.2943 43.6397H95.2739C95.6739 43.6397 95.9739 43.7466 96.1739 43.9606C96.3872 44.1611 96.4938 44.4553 96.4938 44.8431C96.4938 45.2442 96.3872 45.5517 96.1739 45.7656C95.9739 45.9662 95.6739 46.0665 95.2739 46.0665H89.6342V49.3758H94.8139C95.2272 49.3758 95.5339 49.4827 95.7339 49.6967C95.9472 49.8972 96.0539 50.1981 96.0539 50.5992C96.0539 51.0003 95.9472 51.3079 95.7339 51.5218C95.5339 51.7224 95.2272 51.8227 94.8139 51.8227H89.6342V55.3526H95.2739C95.6739 55.3526 95.9739 55.4595 96.1739 55.6735C96.3872 55.874 96.4938 56.1682 96.4938 56.5559C96.4938 56.9571 96.3872 57.2646 96.1739 57.4785C95.9739 57.6791 95.6739 57.7794 95.2739 57.7794H88.2943Z" fill="#0E0437"/>
<path d="M103.628 58C103.068 58 102.494 57.9532 101.908 57.8596C101.334 57.7794 100.781 57.659 100.248 57.4986C99.7277 57.3381 99.2611 57.1376 98.8478 56.8969C98.5545 56.7365 98.3478 56.5292 98.2278 56.2752C98.1078 56.0077 98.0611 55.7403 98.0878 55.4729C98.1278 55.2055 98.2278 54.9715 98.3878 54.7709C98.5611 54.557 98.7745 54.4233 99.0278 54.3698C99.2944 54.303 99.5877 54.3498 99.9077 54.5102C100.454 54.8177 101.048 55.045 101.688 55.1921C102.341 55.3392 102.988 55.4127 103.628 55.4127C104.601 55.4127 105.294 55.2657 105.707 54.9715C106.121 54.664 106.327 54.2829 106.327 53.8283C106.327 53.4405 106.181 53.133 105.887 52.9057C105.594 52.6784 105.081 52.4845 104.347 52.3241L102.088 51.8427C100.808 51.5753 99.8544 51.1207 99.2278 50.4789C98.6145 49.8237 98.3078 48.968 98.3078 47.9117C98.3078 47.2431 98.4478 46.6348 98.7278 46.0866C99.0078 45.5383 99.4011 45.0637 99.9077 44.6626C100.414 44.2614 101.014 43.9539 101.708 43.74C102.414 43.526 103.188 43.4191 104.027 43.4191C104.774 43.4191 105.507 43.5127 106.227 43.6998C106.947 43.8737 107.581 44.1344 108.127 44.482C108.394 44.6425 108.574 44.8497 108.667 45.1038C108.774 45.3445 108.807 45.5918 108.767 45.8459C108.741 46.0865 108.641 46.3005 108.467 46.4877C108.307 46.6749 108.101 46.7952 107.847 46.8487C107.594 46.9022 107.287 46.842 106.927 46.6682C106.487 46.4409 106.021 46.2737 105.527 46.1668C105.034 46.0598 104.527 46.0063 104.007 46.0063C103.448 46.0063 102.968 46.0799 102.568 46.2269C102.181 46.374 101.881 46.5813 101.668 46.8487C101.468 47.1161 101.368 47.4236 101.368 47.7713C101.368 48.159 101.508 48.4733 101.788 48.7139C102.068 48.9546 102.554 49.1485 103.248 49.2956L105.507 49.7769C106.814 50.0577 107.787 50.5123 108.427 51.1407C109.067 51.7558 109.387 52.5714 109.387 53.5876C109.387 54.2562 109.254 54.8645 108.987 55.4127C108.721 55.9476 108.334 56.4089 107.827 56.7966C107.321 57.1844 106.714 57.4852 106.007 57.6992C105.301 57.8997 104.507 58 103.628 58Z" fill="#0E0437"/>
<path d="M112.959 57.9599C112.453 57.9599 112.066 57.8195 111.8 57.5387C111.533 57.2579 111.4 56.8635 111.4 56.3554V45.0436C111.4 44.5355 111.533 44.1478 111.8 43.8804C112.066 43.5996 112.453 43.4592 112.959 43.4592C113.453 43.4592 113.833 43.5996 114.099 43.8804C114.366 44.1478 114.499 44.5355 114.499 45.0436V49.797H114.539L119.859 44.2213C120.086 43.9806 120.319 43.8001 120.559 43.6798C120.812 43.5461 121.099 43.4792 121.419 43.4792C121.886 43.4792 122.219 43.5996 122.419 43.8402C122.632 44.0809 122.726 44.3617 122.699 44.6826C122.672 45.0035 122.526 45.3044 122.259 45.5851L116.919 51.0605L116.939 49.7167L122.539 55.7136C122.846 56.0479 122.999 56.3888 122.999 56.7365C123.012 57.0841 122.899 57.3783 122.659 57.6189C122.432 57.8462 122.092 57.9599 121.639 57.9599C121.252 57.9599 120.939 57.8797 120.699 57.7192C120.472 57.5588 120.219 57.3248 119.939 57.0172L114.539 51.3212H114.499V56.3554C114.499 56.8635 114.366 57.2579 114.099 57.5387C113.846 57.8195 113.466 57.9599 112.959 57.9599Z" fill="#0E0437"/>
<defs>
<linearGradient id="paint0_linear_439_729" x1="61.5" y1="0" x2="61.5" y2="58" gradientUnits="userSpaceOnUse">
<stop stop-color="#10D18A"/>
<stop offset="1" stop-color="#0FDCFF"/>
</linearGradient>
<linearGradient id="paint1_linear_439_729" x1="61.5" y1="0" x2="61.5" y2="58" gradientUnits="userSpaceOnUse">
<stop stop-color="#10D18A"/>
<stop offset="1" stop-color="#0FDCFF"/>
</linearGradient>
</defs>
</svg>
