<svg width="78" height="32" viewBox="0 0 78 32" fill="none" xmlns="http://www.w3.org/2000/svg">
<path d="M77.2966 0.0599976H0.282717V2.84597H77.2966V0.0599976ZM77.2966 28.2941H0.282717V31.06H77.2966V28.2941ZM74.5563 15.5238C74.5563 13.1081 74.3235 11.6306 72.7009 11.6306H71.3432V19.3846H72.7009C74.3235 19.3846 74.5563 17.9111 74.5563 15.4875V15.5238ZM77.2966 15.4875C77.2966 19.2397 76.2399 22.0418 72.7009 22.0418H68.9038C68.8704 22.0442 68.8369 22.0385 68.8055 22.0252C68.7741 22.0119 68.7456 21.9912 68.7219 21.9645C68.6982 21.9379 68.6798 21.9059 68.668 21.8706C68.6561 21.8353 68.651 21.7976 68.6531 21.76V9.23114C68.651 9.19352 68.6561 9.15582 68.668 9.12063C68.6798 9.08535 68.6982 9.05335 68.7219 9.02662C68.7456 8.99998 68.7741 8.97928 68.8055 8.96596C68.8369 8.95264 68.8704 8.94703 68.9038 8.94937H72.7009C76.2399 8.94937 77.2966 11.7675 77.2966 15.5036V15.4875ZM63.1654 19.6786V21.7761C63.1675 21.8137 63.1625 21.8514 63.1506 21.8867C63.1388 21.922 63.1204 21.954 63.0966 21.9806C63.073 22.0072 63.0444 22.0279 63.013 22.0413C62.9817 22.0546 62.9482 22.0603 62.9147 22.0579H55.6109C55.5774 22.0603 55.5439 22.0546 55.5126 22.0413C55.4812 22.0279 55.4526 22.0072 55.429 21.9806C55.4052 21.954 55.3868 21.922 55.375 21.8867C55.3631 21.8514 55.3581 21.8137 55.3602 21.7761V9.23114C55.3581 9.19352 55.3631 9.15582 55.375 9.12063C55.3868 9.08535 55.4052 9.05335 55.429 9.02662C55.4526 8.99998 55.4812 8.97928 55.5126 8.96596C55.5439 8.95264 55.5774 8.94703 55.6109 8.94937H62.9003C62.9338 8.94703 62.9674 8.95264 62.9988 8.96596C63.0301 8.97928 63.0586 8.99998 63.0823 9.02662C63.106 9.05335 63.1245 9.08535 63.1363 9.12063C63.1481 9.15582 63.1532 9.19352 63.1511 9.23114V11.3327C63.1532 11.3703 63.1481 11.408 63.1363 11.4433C63.1245 11.4786 63.106 11.5106 63.0823 11.5372C63.0586 11.5639 63.0301 11.5845 62.9988 11.5979C62.9674 11.6113 62.9338 11.6169 62.9003 11.6145H58.0539V14.1509H62.492C62.5255 14.1486 62.559 14.1542 62.5904 14.1675C62.6217 14.1809 62.6503 14.2015 62.674 14.2282C62.6977 14.2549 62.716 14.2869 62.728 14.3222C62.7398 14.3574 62.7448 14.3951 62.7427 14.4327V16.5303C62.7448 16.5679 62.7398 16.6055 62.728 16.6408C62.716 16.6761 62.6977 16.7081 62.674 16.7347C62.6503 16.7615 62.6217 16.7821 62.5904 16.7955C62.559 16.8088 62.5255 16.8144 62.492 16.8121H58.0539V19.4249H62.9183C62.9513 19.4213 62.9845 19.4258 63.0157 19.4382C63.0469 19.4506 63.0754 19.4705 63.099 19.4967C63.1226 19.5228 63.1407 19.5545 63.1523 19.5893C63.1637 19.6243 63.1682 19.6616 63.1654 19.6987V19.6786ZM49.9943 18.342C49.9943 21.1601 48.4934 22.3679 45.5561 22.3679C42.8158 22.3679 41.469 21.3211 41.2577 18.7003C41.2506 18.662 41.2514 18.6224 41.2599 18.5845C41.2684 18.5466 41.2845 18.5114 41.3069 18.4815C41.3294 18.4517 41.3576 18.4279 41.3894 18.4121C41.4211 18.3963 41.4558 18.3888 41.4905 18.3903H43.4964C43.6469 18.3903 43.7042 18.4949 43.7472 18.6439C43.9657 19.3162 44.4958 19.6464 45.5382 19.6464C46.6558 19.6464 47.3471 19.2921 47.3471 18.4386C47.3471 17.5851 47.0964 17.102 45.4809 16.7436C43.414 16.2846 41.4153 15.3225 41.4153 12.6814C41.4153 10.2659 42.7227 8.77619 45.4809 8.77619C47.9382 8.77619 49.4212 9.82299 49.6289 12.3513C49.6369 12.3911 49.6369 12.4324 49.6289 12.4723C49.621 12.5122 49.6054 12.5496 49.5832 12.5818C49.561 12.6142 49.5327 12.6406 49.5003 12.6592C49.468 12.6778 49.4324 12.6881 49.396 12.6895H47.5656C47.4152 12.6895 47.3579 12.5566 47.3149 12.4076C47.1573 11.8641 46.6308 11.4736 45.549 11.4736C44.5567 11.4736 44.0588 11.989 44.0588 12.6814C44.0588 13.241 44.0266 13.8248 45.5096 14.1429C47.6946 14.5978 50.0015 15.4594 50.0015 18.3339L49.9943 18.342ZM30.6835 15.1373H32.4387C33.4453 15.1373 33.8393 14.94 33.8393 13.3699C33.8393 11.7997 33.4488 11.6105 32.4387 11.6105H30.6835V15.1373ZM36.2858 22.0579H34.219C34.156 22.0633 34.0931 22.0448 34.0406 22.0054C33.988 21.966 33.9486 21.908 33.9288 21.8405L32.3384 17.8145H30.6799V21.7922C30.682 21.8298 30.6769 21.8675 30.6651 21.9028C30.6532 21.938 30.6348 21.97 30.6112 21.9967C30.5874 22.0234 30.559 22.044 30.5276 22.0573C30.4962 22.0707 30.4626 22.0764 30.4291 22.074H28.2226C28.1889 22.0763 28.155 22.0706 28.1233 22.0573C28.0916 22.0441 28.0626 22.0236 28.0384 21.997C28.0141 21.9705 27.995 21.9386 27.9824 21.9034C27.9697 21.8681 27.9636 21.8302 27.9648 21.7922V9.23114C27.9636 9.19318 27.9697 9.15531 27.9824 9.12004C27.995 9.08477 28.0141 9.05285 28.0384 9.02637C28.0626 8.99981 28.0916 8.97928 28.1233 8.96605C28.155 8.95281 28.1889 8.94711 28.2226 8.94937H32.4208C35.5694 8.94937 36.3932 10.5597 36.3932 13.3779C36.3932 15.3426 35.992 16.7114 34.7025 17.3636L36.4613 21.7238C36.5401 21.9251 36.4613 22.0579 36.2714 22.0579H36.2858ZM22.4484 19.6786V21.7761C22.4505 21.8137 22.4454 21.8514 22.4336 21.8867C22.4217 21.922 22.4033 21.954 22.3796 21.9806C22.3559 22.0072 22.3274 22.0279 22.2961 22.0413C22.2647 22.0546 22.2311 22.0603 22.1976 22.0579H14.8938C14.8604 22.0603 14.8269 22.0546 14.7955 22.0413C14.7641 22.0279 14.7356 22.0072 14.7119 21.9806C14.6882 21.954 14.6698 21.922 14.6579 21.8867C14.6461 21.8514 14.641 21.8137 14.6431 21.7761V9.23114C14.641 9.19352 14.6461 9.15582 14.6579 9.12063C14.6698 9.08535 14.6882 9.05335 14.7119 9.02662C14.7356 8.99998 14.7641 8.97928 14.7955 8.96596C14.8269 8.95264 14.8604 8.94703 14.8938 8.94937H22.1833C22.2168 8.94703 22.2503 8.95264 22.2817 8.96596C22.3131 8.97928 22.3415 8.99998 22.3653 9.02662C22.389 9.05335 22.4074 9.08535 22.4192 9.12063C22.4311 9.15582 22.4362 9.19352 22.4341 9.23114V11.3327C22.4362 11.3703 22.4311 11.408 22.4192 11.4433C22.4074 11.4786 22.389 11.5106 22.3653 11.5372C22.3415 11.5639 22.3131 11.5845 22.2817 11.5979C22.2503 11.6113 22.2168 11.6169 22.1833 11.6145H17.3332V14.1509H21.775C21.8084 14.1486 21.842 14.1542 21.8733 14.1675C21.9047 14.1809 21.9332 14.2015 21.9569 14.2282C21.9807 14.2549 21.9991 14.2869 22.0109 14.3222C22.0227 14.3574 22.0278 14.3951 22.0257 14.4327V16.5303C22.0278 16.5679 22.0227 16.6055 22.0109 16.6408C21.9991 16.6761 21.9807 16.7081 21.9569 16.7347C21.9332 16.7615 21.9047 16.7821 21.8733 16.7955C21.842 16.8088 21.8084 16.8144 21.775 16.8121H17.3332V19.4249H22.1976C22.2307 19.4213 22.2641 19.4259 22.2956 19.4383C22.327 19.4507 22.3555 19.4705 22.3794 19.4966C22.4032 19.5226 22.4217 19.5542 22.4337 19.5891C22.4456 19.624 22.4506 19.6614 22.4484 19.6987V19.6786ZM7.12441 8.94937H9.36322C9.54589 8.94937 9.596 9.08217 9.56381 9.26742L6.88083 21.8284C6.86435 21.8972 6.82707 21.9572 6.77542 21.9984C6.72378 22.0395 6.66099 22.0592 6.59785 22.0539H3.24865C3.18551 22.0592 3.12272 22.0395 3.07107 21.9984C3.01942 21.9572 2.98215 21.8972 2.96567 21.8284L0.282717 9.26742C0.239732 9.08217 0.300627 8.94937 0.483311 8.94937H2.71492C2.77872 8.93974 2.8434 8.95758 2.89591 8.99948C2.94843 9.04128 2.98488 9.10395 2.99791 9.17484L4.78892 18.9096H5.03967L6.83068 9.17484C6.84371 9.10395 6.88016 9.04128 6.93267 8.99948C6.98519 8.95758 7.04987 8.93974 7.11366 8.94937" fill="white"/>
</svg>
