<svg width="102" height="24" viewBox="0 0 102 24" fill="none" xmlns="http://www.w3.org/2000/svg">
<path d="M9.63684 0.197174V0.905921C8.80587 0.997373 8.24439 1.13455 7.90751 1.29459C7.57062 1.45463 7.39095 1.82044 7.39095 2.36914C7.39095 2.62063 7.43587 2.87213 7.50325 3.10076C7.57062 3.32938 7.68292 3.67232 7.86258 4.12958L12.8709 16.384L17.1157 5.54707C17.3178 5.02124 17.4975 4.44966 17.6771 3.87809C17.8568 3.28365 17.9466 2.84927 17.9466 2.55205C17.9466 1.93475 17.6547 1.47749 17.0933 1.20314C16.7339 1.0431 16.2622 0.951648 15.6558 0.905921V0.197174H22.2812V0.905921C21.5176 0.97451 20.9561 1.22601 20.6193 1.70612C20.2824 2.16338 19.7883 3.21507 19.137 4.88405L12.3095 22.2598C12.1747 22.557 12.0849 22.7628 11.995 22.8771C11.9052 22.9915 11.8154 23.06 11.6806 23.06C11.5234 23.06 11.3887 22.9686 11.2764 22.7856C11.164 22.6028 11.0518 22.3741 10.917 22.0997L3.66277 4.40394C3.07884 2.96357 2.44998 2.00334 1.79868 1.47749C1.39442 1.18028 0.832941 0.997373 0.0693359 0.905921V0.197174H9.63684ZM31.0177 0.128586V15.561C31.0177 16.6584 31.1749 17.5272 31.467 18.1902C32.0508 19.402 33.1514 20.0193 34.7235 20.0193C35.8015 20.0193 36.8571 19.6535 37.9126 18.9447C38.4966 18.556 39.1029 17.9845 39.7094 17.2757V4.061C39.7094 2.80354 39.4623 2.00334 38.9906 1.61467C38.5191 1.22601 37.5758 0.997373 36.1609 0.905921V0.105723H43.7295V17.2757C43.7295 18.3274 43.9092 19.059 44.291 19.4705C44.6728 19.8821 45.4589 20.0421 46.6492 19.9964V20.7051C45.7958 20.9338 45.1669 21.1166 44.7627 21.2309C44.3584 21.3452 43.6846 21.574 42.7413 21.8711C42.3371 22.0083 41.4611 22.3513 40.0912 22.8999C40.0013 22.8999 39.9789 22.8543 39.9564 22.7856C39.934 22.7171 39.934 22.6256 39.934 22.5113V18.556C38.8559 19.8592 37.8678 20.8195 36.9694 21.4597C35.6219 22.4198 34.1845 22.8999 32.6797 22.8999C31.3098 22.8999 30.0072 22.397 28.7719 21.4139C27.5367 20.4308 26.9078 18.7846 26.9078 16.4756V3.96954C26.9078 2.68922 26.6607 1.82044 26.1217 1.38604C25.7848 1.11169 25.0662 0.928785 23.9656 0.814471V0.105723H31.0177V0.128586ZM51.972 3.30652C53.9259 1.13455 56.4413 0.0599976 59.5182 0.0599976C62.5725 0.0599976 65.1105 1.08883 67.1317 3.14648C69.1306 5.20413 70.1412 7.92481 70.1412 11.3542C70.1412 14.4864 69.1755 17.23 67.2216 19.5392C65.2677 21.8482 62.7523 23.0142 59.6529 23.0142C56.6883 23.0142 54.173 21.894 52.1067 19.6764C50.0405 17.4586 49.0298 14.6465 49.0298 11.2856C49.0298 8.13057 49.9956 5.47849 51.972 3.30652ZM55.6552 2.6435C54.1055 4.08386 53.3195 6.5759 53.3195 10.0968C53.3195 12.9089 53.9483 15.5381 55.2061 17.9616C56.4637 20.4079 58.1931 21.6196 60.4165 21.6196C62.1683 21.6196 63.4934 20.7966 64.4367 19.1733C65.38 17.55 65.8515 15.401 65.8515 12.7718C65.8515 10.0282 65.2452 7.46755 64.0549 5.0441C62.8645 2.62063 61.1127 1.4089 58.8444 1.4089C57.6091 1.4089 56.5536 1.82044 55.6552 2.6435ZM72.477 22.0997C73.9368 21.9854 74.9026 21.711 75.3741 21.2996C75.8458 20.9109 76.0929 20.0649 76.0929 18.7618V7.81049C76.0929 6.23296 75.9357 5.08982 75.6436 4.40394C75.3517 3.71806 74.8127 3.3751 74.0266 3.3751C73.8694 3.3751 73.6448 3.39796 73.3978 3.4437C73.1283 3.48942 72.8588 3.53515 72.5668 3.60373V2.8264C73.4652 2.50632 74.4084 2.18624 75.3517 1.86616C76.3175 1.52322 76.9688 1.29459 77.3506 1.13455C78.1367 0.837333 78.9676 0.494392 79.8211 0.105723C79.9333 0.105723 80.0007 0.151449 80.0232 0.2429C80.0456 0.334352 80.068 0.517254 80.068 0.791608V4.7926C81.0563 3.35224 82.022 2.20911 82.9428 1.4089C83.8636 0.608705 84.8294 0.197174 85.8175 0.197174C86.6037 0.197174 87.255 0.448665 87.749 0.951648C88.2431 1.45463 88.4902 2.07192 88.4902 2.8264C88.4902 3.48942 88.3106 4.061 87.9288 4.51825C87.547 4.9755 87.0753 5.20413 86.4914 5.20413C85.9074 5.20413 85.3235 4.92978 84.7171 4.3582C84.1332 3.78664 83.6615 3.51229 83.3246 3.51229C82.7856 3.51229 82.1343 3.96954 81.3258 4.86119C80.5397 5.7757 80.1355 6.71308 80.1355 7.67332V18.5103C80.1355 19.8821 80.4499 20.8195 81.1012 21.3452C81.73 21.8711 82.808 22.1226 84.2904 22.0997V22.8771H72.477V22.0997ZM97.4738 0.197174C97.6759 0.128586 97.6534 0.425803 97.6534 0.56298V17.8702C97.6534 19.6991 97.878 20.8423 98.3047 21.2996C98.754 21.7568 99.7197 22.054 101.269 22.1912V22.8999H89.7254V22.1912C91.4324 22.0312 92.4879 21.7339 92.9371 21.3225C93.3862 20.888 93.5884 19.7678 93.5884 17.893V6.23296C93.5884 5.20413 93.5209 4.47252 93.3862 4.08386C93.1392 3.42084 92.6676 3.10076 91.9039 3.10076C91.7243 3.10076 91.5671 3.12362 91.4098 3.14648C91.2526 3.16934 90.7811 3.30652 89.9949 3.53515V2.59777C89.9949 2.57491 93.3862 1.50036 97.4738 0.197174Z" fill="white"/>
</svg>
