<svg width="54" height="54" viewBox="0 0 54 54" fill="none" xmlns="http://www.w3.org/2000/svg">
<path d="M27 0.749985C32.1918 0.749985 37.2669 2.28952 41.5837 5.17391C45.9005 8.05829 49.265 12.158 51.2518 16.9545C53.2386 21.7511 53.7585 27.0291 52.7456 32.1211C51.7327 37.2131 49.2327 41.8904 45.5616 45.5615C41.8904 49.2327 37.2131 51.7327 32.1211 52.7456C27.0291 53.7585 21.7511 53.2386 16.9546 51.2518C12.158 49.265 8.05831 45.9005 5.17392 41.5837C2.28954 37.2669 0.75 32.1917 0.75 27C0.75 20.0381 3.51562 13.3613 8.43845 8.43843C13.3613 3.5156 20.0381 0.749985 27 0.749985ZM27 43.415C27.6922 43.415 28.3689 43.2097 28.9445 42.8251C29.5201 42.4405 29.9687 41.8939 30.2336 41.2544C30.4985 40.6148 30.5678 39.9111 30.4327 39.2322C30.2977 38.5532 29.9644 37.9296 29.4749 37.4401C28.9854 36.9506 28.3617 36.6173 27.6828 36.4822C27.0039 36.3472 26.3001 36.4165 25.6606 36.6814C25.0211 36.9463 24.4744 37.3949 24.0899 37.9705C23.7053 38.5461 23.5 39.2228 23.5 39.915C23.5 40.8432 23.8687 41.7335 24.5251 42.3899C25.1815 43.0462 26.0717 43.415 27 43.415ZM23.5 27C23.5 27.9282 23.8687 28.8185 24.5251 29.4749C25.1815 30.1312 26.0717 30.5 27 30.5C27.9283 30.5 28.8185 30.1312 29.4749 29.4749C30.1313 28.8185 30.5 27.9282 30.5 27V13C30.5 12.0717 30.1313 11.1815 29.4749 10.5251C28.8185 9.86873 27.9283 9.49998 27 9.49998C26.0717 9.49998 25.1815 9.86873 24.5251 10.5251C23.8687 11.1815 23.5 12.0717 23.5 13V27Z" fill="#6B84FE"/>
</svg>
