<svg width="56" height="56" viewBox="0 0 56 56" fill="none" xmlns="http://www.w3.org/2000/svg">
<g clip-path="url(#clip0_1107_10)">
<path d="M47.7969 14.1094H46.2656V8.20312C46.2656 3.67992 42.5857 0 38.0625 0H17.9375C13.4143 0 9.73438 3.67992 9.73438 8.20312V14.1094H8.20312C3.67992 14.1094 0 17.7893 0 22.3125V35.4375C0 39.9607 3.67992 43.6406 8.20312 43.6406H9.73438V51.0781C9.73438 53.792 11.9423 56 14.6562 56H41.3438C44.0577 56 46.2656 53.792 46.2656 51.0781V43.6406H47.7969C52.3201 43.6406 56 39.9607 56 35.4375V22.3125C56 17.7893 52.3201 14.1094 47.7969 14.1094ZM13.0156 8.20312C13.0156 5.4892 15.2236 3.28125 17.9375 3.28125H38.0625C40.7764 3.28125 42.9844 5.4892 42.9844 8.20312V14.1094H13.0156V8.20312ZM42.9844 51.0781C42.9844 51.9828 42.2484 52.7188 41.3438 52.7188H14.6562C13.7516 52.7188 13.0156 51.9828 13.0156 51.0781V34.8906H42.9844V51.0781ZM52.7188 35.4375C52.7188 38.1514 50.5108 40.3594 47.7969 40.3594H46.2656V34.8906H47.25C48.1561 34.8906 48.8906 34.1561 48.8906 33.25C48.8906 32.3439 48.1561 31.6094 47.25 31.6094H8.75C7.84394 31.6094 7.10938 32.3439 7.10938 33.25C7.10938 34.1561 7.84394 34.8906 8.75 34.8906H9.73438V40.3594H8.20312C5.4892 40.3594 3.28125 38.1514 3.28125 35.4375V22.3125C3.28125 19.5986 5.4892 17.3906 8.20312 17.3906H47.7969C50.5108 17.3906 52.7188 19.5986 52.7188 22.3125V35.4375Z" fill="white"/>
<path d="M32.375 38.6094H23.625C22.7189 38.6094 21.9844 39.3439 21.9844 40.25C21.9844 41.1561 22.7189 41.8906 23.625 41.8906H32.375C33.2811 41.8906 34.0156 41.1561 34.0156 40.25C34.0156 39.3439 33.2811 38.6094 32.375 38.6094Z" fill="white"/>
<path d="M32.375 45.6094H23.625C22.7189 45.6094 21.9844 46.3439 21.9844 47.25C21.9844 48.1561 22.7189 48.8906 23.625 48.8906H32.375C33.2811 48.8906 34.0156 48.1561 34.0156 47.25C34.0156 46.3439 33.2811 45.6094 32.375 45.6094Z" fill="white"/>
<path d="M14 21.1094H8.75C7.84394 21.1094 7.10938 21.8439 7.10938 22.75C7.10938 23.6561 7.84394 24.3906 8.75 24.3906H14C14.9061 24.3906 15.6406 23.6561 15.6406 22.75C15.6406 21.8439 14.9061 21.1094 14 21.1094Z" fill="white"/>
</g>
<defs>
<clipPath id="clip0_1107_10">
<rect width="56" height="56" fill="white"/>
</clipPath>
</defs>
</svg>
