<svg width="88" height="89" viewBox="0 0 88 89" fill="none" xmlns="http://www.w3.org/2000/svg">
<circle cx="38" cy="38.5" r="37.5" fill="#FFFEFE" stroke="#6B84FE"/>
<circle cx="50" cy="50.5" r="38" fill="#6B84FE"/>
<g clip-path="url(#clip0_8_73)">
<path d="M54.6194 34.6848C54.4727 34.5303 54.2715 34.4375 54.063 34.4375H41.5798C39.2764 34.4375 37.375 36.3313 37.375 38.6345V62.2403C37.375 64.5438 39.2764 66.4376 41.5798 66.4376H58.5227C60.8262 66.4376 62.7276 64.5438 62.7276 62.2403V43.4964C62.7276 43.2954 62.6348 43.1023 62.5035 42.9553L54.6194 34.6848ZM54.8435 37.166L60.1228 42.708H56.691C55.6707 42.708 54.8435 41.8887 54.8435 40.8684V37.166ZM58.5227 64.8917H41.5798C40.1345 64.8917 38.9209 63.6937 38.9209 62.2403V38.6345C38.9209 37.1892 40.1267 35.9834 41.5798 35.9834H53.2976V40.8684C53.2976 42.7466 54.8128 44.2539 56.691 44.2539H61.1817V62.2403C61.1817 63.6937 59.9759 64.8917 58.5227 64.8917Z" fill="white"/>
<path d="M56.4126 59.5584H43.6899C43.2649 59.5584 42.917 59.9061 42.917 60.3313C42.917 60.7564 43.2649 61.1043 43.6899 61.1043H56.4204C56.8455 61.1043 57.1934 60.7564 57.1934 60.3313C57.1934 59.9061 56.8455 59.5584 56.4126 59.5584Z" fill="white"/>
<path d="M46.0938 51.2415L49.2784 47.8172V56.2579C49.2784 56.6829 49.6263 57.0308 50.0514 57.0308C50.4766 57.0308 50.8243 56.6829 50.8243 56.2579V47.8172L54.0089 51.2415C54.1634 51.4036 54.3646 51.4888 54.5731 51.4888C54.7586 51.4888 54.952 51.4192 55.0987 51.2801C55.4081 50.9864 55.4312 50.4993 55.1375 50.1902L50.608 45.3284C50.461 45.1739 50.2601 45.0811 50.0438 45.0811C49.8272 45.0811 49.6263 45.1739 49.4796 45.3284L44.95 50.1902C44.6563 50.4993 44.6795 50.9939 44.9886 51.2801C45.3133 51.5738 45.8001 51.5506 46.0938 51.2415Z" fill="white"/>
</g>
<defs>
<clipPath id="clip0_8_73">
<rect width="32" height="32" fill="white" transform="translate(34 34.5)"/>
</clipPath>
</defs>
</svg>
