<svg width="88" height="89" viewBox="0 0 88 89" fill="none" xmlns="http://www.w3.org/2000/svg">
<circle cx="38" cy="38.5" r="37.5" fill="#FFFEFE" stroke="#26A378"/>
<circle cx="50" cy="50.5" r="38" fill="#26A378"/>
<g clip-path="url(#clip0_8_52)">
<path d="M50 34.5C41.1771 34.5 34 41.6771 34 50.5C34 59.3229 41.1771 66.5 50 66.5C58.8229 66.5 66 59.3217 66 50.5C66 41.6783 58.8229 34.5 50 34.5ZM50 64.0213C42.5453 64.0213 36.4787 57.9559 36.4787 50.5C36.4787 43.0441 42.5453 36.9787 50 36.9787C57.4547 36.9787 63.5213 43.0441 63.5213 50.5C63.5213 57.9559 57.4559 64.0213 50 64.0213Z" fill="white"/>
<path d="M56.1968 49.1491H51.2395V44.1918C51.2395 43.5076 50.6855 42.9524 50.0001 42.9524C49.3147 42.9524 48.7607 43.5076 48.7607 44.1918V49.1491H43.8033C43.118 49.1491 42.564 49.7044 42.564 50.3885C42.564 51.0726 43.118 51.6279 43.8033 51.6279H48.7607V56.5853C48.7607 57.2694 49.3147 57.8246 50.0001 57.8246C50.6855 57.8246 51.2395 57.2694 51.2395 56.5853V51.6279H56.1968C56.8822 51.6279 57.4362 51.0726 57.4362 50.3885C57.4362 49.7044 56.8822 49.1491 56.1968 49.1491Z" fill="white"/>
</g>
<defs>
<clipPath id="clip0_8_52">
<rect width="32" height="32" fill="white" transform="translate(34 34.5)"/>
</clipPath>
</defs>
</svg>
