<svg width="28" height="28" viewBox="0 0 28 28" fill="none" xmlns="http://www.w3.org/2000/svg">
<g clip-path="url(#clip0_11_424)">
<path d="M23.8995 4.10049C21.2553 1.45627 17.7395 0 14 0C10.2603 0 6.74472 1.45627 4.10049 4.10049C1.45627 6.74472 0 10.2603 0 14C0 17.7395 1.45627 21.2553 4.10049 23.8995C6.74472 26.5437 10.2603 28 14 28C17.7395 28 21.2553 26.5437 23.8995 23.8995C26.5437 21.2553 28 17.7395 28 14C28 10.2603 26.5437 6.74472 23.8995 4.10049ZM7.01859 24.193C7.60413 20.8216 10.5256 18.3348 14 18.3348C17.4746 18.3348 20.3959 20.8216 20.9814 24.193C18.9937 25.5587 16.5887 26.3594 14 26.3594C11.4113 26.3594 9.00635 25.5587 7.01859 24.193ZM9.54852 12.2427C9.54852 9.78799 11.5455 7.79126 14 7.79126C16.4545 7.79126 18.4515 9.78821 18.4515 12.2427C18.4515 14.6973 16.4545 16.6942 14 16.6942C11.5455 16.6942 9.54852 14.6973 9.54852 12.2427ZM22.4024 23.0551C21.9609 21.4856 21.084 20.0616 19.8548 18.9492C19.1007 18.2667 18.2423 17.7281 17.3195 17.3485C18.9875 16.2606 20.0923 14.3783 20.0923 12.2427C20.0923 8.88351 17.3592 6.15063 14 6.15063C10.6408 6.15063 7.9079 8.88351 7.9079 12.2427C7.9079 14.3783 9.01276 16.2606 10.6805 17.3485C9.75787 17.7281 8.89932 18.2665 8.14523 18.949C6.91626 20.0613 6.03912 21.4854 5.59756 23.0548C3.16547 20.7962 1.64062 17.5731 1.64062 14C1.64062 7.185 7.185 1.64062 14 1.64062C20.815 1.64062 26.3594 7.185 26.3594 14C26.3594 17.5733 24.8345 20.7964 22.4024 23.0551Z" fill="#555370"/>
</g>
<defs>
<clipPath id="clip0_11_424">
<rect width="28" height="28" fill="white"/>
</clipPath>
</defs>
</svg>
